<svg width="85" height="84" viewBox="0 0 85 84" fill="none" xmlns="http://www.w3.org/2000/svg">
<path d="M42.4997 62.8335C43.6802 62.8335 44.6705 62.4335 45.4705 61.6335C46.2705 60.8335 46.6691 59.8446 46.6663 58.6668C46.6636 57.489 46.2636 56.5002 45.4663 55.7002C44.6691 54.9002 43.6802 54.5002 42.4997 54.5002C41.3191 54.5002 40.3302 54.9002 39.533 55.7002C38.7358 56.5002 38.3358 57.489 38.333 58.6668C38.3302 59.8446 38.7302 60.8349 39.533 61.6377C40.3358 62.4404 41.3247 62.8391 42.4997 62.8335ZM38.333 46.1668H46.6663V21.1668H38.333V46.1668ZM42.4997 83.6668C36.7358 83.6668 31.3191 82.5724 26.2497 80.3835C21.1802 78.1946 16.7705 75.2266 13.0205 71.4793C9.27051 67.7321 6.30246 63.3224 4.11635 58.2502C1.93024 53.1779 0.835791 47.7613 0.833013 42.0002C0.830235 36.2391 1.92468 30.8224 4.11635 25.7502C6.30801 20.6779 9.27607 16.2682 13.0205 12.521C16.765 8.77377 21.1747 5.80572 26.2497 3.61683C31.3247 1.42794 36.7413 0.333496 42.4997 0.333496C48.258 0.333496 53.6747 1.42794 58.7497 3.61683C63.8247 5.80572 68.2344 8.77377 71.9789 12.521C75.7233 16.2682 78.6927 20.6779 80.8872 25.7502C83.0816 30.8224 84.1747 36.2391 84.1663 42.0002C84.158 47.7613 83.0636 53.1779 80.883 58.2502C78.7025 63.3224 75.7344 67.7321 71.9789 71.4793C68.2233 75.2266 63.8136 78.196 58.7497 80.3877C53.6858 82.5793 48.2691 83.6724 42.4997 83.6668Z" fill="#CF0202"/>
</svg>
