<svg width="80" height="80" viewBox="0 0 80 80" fill="none" xmlns="http://www.w3.org/2000/svg">
<g clip-path="url(#clip0_2128_3195)">
<path d="M51.0584 55.6099C50.9951 54.811 50.9526 54.0107 50.9312 53.2099C60.2003 52.3399 66.7057 50.3032 66.7057 47.9266C66.6803 47.9266 66.6839 47.8266 66.6839 47.7899C59.753 42.0632 72.6912 1.38991 48.6075 2.20991C46.3143 0.63099 43.4855 -0.153071 40.6221 -0.00342405H40.6512C8.02936 2.25658 22.4548 40.6732 15.0185 47.9232H15.0039C15.033 50.2499 21.3166 52.2499 30.3166 53.1432C30.2912 53.7099 30.2366 54.4132 30.1203 55.5899C26.3857 64.8232 1.16754 62.2366 0.00390625 79.9999H81.073C79.913 62.2332 54.7966 64.8199 51.0584 55.6099Z" fill="#595959"/>
</g>
<defs>
<clipPath id="clip0_2128_3195">
<rect width="80" height="80" fill="white"/>
</clipPath>
</defs>
</svg>
