<svg width="124" height="121" viewBox="0 0 124 121" fill="none" xmlns="http://www.w3.org/2000/svg">
<path d="M106.033 58.464V54.1649C106.033 53.3452 105.77 52.5589 105.302 51.9793C104.834 51.3996 104.2 51.0739 103.538 51.0739H100.835C100.508 51.0739 100.183 50.994 99.8806 50.8386C99.5779 50.6833 99.3028 50.4556 99.0712 50.1686C98.8395 49.8815 98.6557 49.5408 98.5303 49.1658C98.4049 48.7907 98.3403 48.3888 98.3403 47.9829V43.6838C98.3403 42.864 98.6032 42.0778 99.0712 41.4981C99.5391 40.9184 100.174 40.5927 100.835 40.5927H101.114C101.441 40.5927 101.766 40.5128 102.068 40.3574C102.371 40.2021 102.646 39.9744 102.878 39.6874C103.11 39.4004 103.293 39.0596 103.419 38.6846C103.544 38.3096 103.609 37.9076 103.609 37.5017V33.2026C103.609 32.3828 103.346 31.5966 102.878 31.0169C102.41 30.4372 101.775 30.1116 101.114 30.1116H28.2574C27.9298 30.1116 27.6053 30.1915 27.3026 30.3469C26.9998 30.5022 26.7248 30.7299 26.4931 31.0169C26.2614 31.3039 26.0776 31.6447 25.9522 32.0197C25.8268 32.3947 25.7623 32.7967 25.7623 33.2026V37.5017C25.7623 37.9076 25.8268 38.3096 25.9522 38.6846C26.0776 39.0596 26.2614 39.4004 26.4931 39.6874C26.7248 39.9744 26.9998 40.2021 27.3026 40.3575C27.6053 40.5128 27.9298 40.5927 28.2574 40.5927C28.5851 40.5927 28.9096 40.6727 29.2123 40.828C29.515 40.9834 29.7901 41.2111 30.0218 41.4981C30.2535 41.7851 30.4373 42.1259 30.5627 42.5009C30.688 42.8759 30.7526 43.2779 30.7526 43.6838V47.9829C30.7526 48.3888 30.688 48.7907 30.5627 49.1658C30.4373 49.5408 30.2535 49.8815 30.0218 50.1686C29.7901 50.4556 29.515 50.6833 29.2123 50.8386C28.9096 50.994 28.5851 51.0739 28.2574 51.0739H18.6084C18.2808 51.0739 17.9563 51.1539 17.6536 51.3092C17.3509 51.4645 17.0758 51.6922 16.8441 51.9793C16.6124 52.2663 16.4286 52.607 16.3032 52.9821C16.1778 53.3571 16.1133 53.759 16.1133 54.165V58.464C16.1133 58.87 16.1778 59.2719 16.3032 59.6469C16.4286 60.022 16.6124 60.3627 16.8441 60.6497C17.0758 60.9368 17.3509 61.1644 17.6536 61.3198C17.9563 61.4751 18.2808 61.5551 18.6084 61.5551H22.3946C22.7222 61.5551 23.0467 61.635 23.3494 61.7904C23.6521 61.9457 23.9272 62.1734 24.1589 62.4604C24.3906 62.7475 24.5744 63.0882 24.6998 63.4632C24.8252 63.8383 24.8897 64.2402 24.8897 64.6461V68.9452C24.8897 69.765 24.6268 70.5512 24.1589 71.1309C23.691 71.7106 23.0563 72.0363 22.3946 72.0363H22.3854C21.7236 72.0363 21.089 72.3619 20.6211 72.9416C20.1531 73.5213 19.8902 74.3075 19.8902 75.1273V79.4264C19.8902 79.8323 19.9548 80.2342 20.0802 80.6093C20.2056 80.9843 20.3894 81.325 20.6211 81.6121C20.8528 81.8991 21.1278 82.1268 21.4305 82.2821C21.7333 82.4375 22.0577 82.5174 22.3854 82.5174H22.9332C23.2608 82.5174 23.5853 82.5974 23.888 82.7527C24.1908 82.908 24.4658 83.1357 24.6975 83.4228C24.9292 83.7098 25.113 84.0505 25.2384 84.4256C25.3638 84.8006 25.4283 85.2025 25.4283 85.6085V89.9076C25.4283 90.7274 25.1654 91.5136 24.6975 92.0933C24.2296 92.6729 23.5949 92.9986 22.9332 92.9986H21.574C21.2464 92.9986 20.9219 93.0785 20.6192 93.2339C20.3165 93.3892 20.0414 93.6169 19.8097 93.9039C19.578 94.191 19.3942 94.5317 19.2688 94.9068C19.1434 95.2818 19.0789 95.6837 19.0789 96.0896V100.389C19.0789 101.209 19.3418 101.995 19.8097 102.574C20.2776 103.154 20.9123 103.48 21.574 103.48H104.361C105.023 103.48 105.657 103.154 106.125 102.574C106.593 101.995 106.856 101.209 106.856 100.389V96.0896C106.856 95.2698 106.593 94.4836 106.125 93.9039C105.657 93.3243 105.023 92.9986 104.361 92.9986H100.29C99.962 92.9986 99.6376 92.9186 99.3349 92.7633C99.0321 92.608 98.7571 92.3803 98.5254 92.0933C98.2937 91.8062 98.1099 91.4655 97.9845 91.0904C97.8591 90.7154 97.7946 90.3135 97.7946 89.9076V85.6085C97.7946 84.7887 98.0574 84.0024 98.5254 83.4228C98.9933 82.8431 99.628 82.5174 100.29 82.5174H105.391C105.719 82.5174 106.043 82.4375 106.346 82.2821C106.648 82.1268 106.924 81.8991 107.155 81.6121C107.387 81.325 107.571 80.9843 107.696 80.6093C107.821 80.2342 107.886 79.8323 107.886 79.4264V75.1273C107.886 74.7214 107.821 74.3194 107.696 73.9444C107.571 73.5694 107.387 73.2286 107.155 72.9416C106.924 72.6546 106.648 72.4269 106.346 72.2716C106.043 72.1162 105.719 72.0363 105.391 72.0363H103.843C103.182 72.0363 102.547 71.7106 102.079 71.1309C101.611 70.5512 101.348 69.765 101.348 68.9452V64.6461C101.348 63.8263 101.611 63.0401 102.079 62.4604C102.547 61.8807 103.182 61.5551 103.843 61.5551H103.538C104.2 61.5551 104.834 61.2294 105.302 60.6497C105.77 60.07 106.033 59.2838 106.033 58.464Z" fill="#DBE8EC"/>
<path d="M60.7098 103.288C79.0019 103.288 93.8307 84.9179 93.8307 62.2573C93.8307 39.5967 79.0019 21.2266 60.7098 21.2266C42.4176 21.2266 27.5889 39.5967 27.5889 62.2573C27.5889 84.9179 42.4176 103.288 60.7098 103.288Z" fill="#DBE8EC"/>
<path d="M101.676 100.958H62.3545L63.8206 96.5244H99.8548L101.676 100.958Z" fill="#B9D4DB"/>
<path d="M53.8254 92.2388H48.5156L47.3492 90.8459C46.8726 90.2767 46.5868 89.5055 46.5492 88.6866C46.5115 87.8678 46.7247 87.0614 47.1461 86.4288L47.3132 86.1779C47.509 85.8839 47.6179 85.516 47.622 85.1349C47.626 84.7539 47.5249 84.3826 47.3354 84.0824L47.3337 84.0797C47.1896 83.8515 47.0958 83.5809 47.0616 83.2943C47.0273 83.0077 47.0536 82.715 47.1381 82.4449L48.5156 78.0386H53.8254L55.2026 82.444C55.2871 82.7144 55.3135 83.0073 55.2791 83.2941C55.2447 83.5809 55.1507 83.8517 55.0063 84.08C54.8165 84.3801 54.7151 84.7515 54.719 85.1327C54.7229 85.514 54.8317 85.8821 55.0275 86.1763L55.1957 86.4289C55.6169 87.0616 55.8299 87.8678 55.7922 88.6865C55.7545 89.5053 55.4688 90.2762 54.9922 90.8454L53.8254 92.2388Z" fill="#F9AE2B"/>
<path d="M48.9524 89.3312C48.4757 88.7619 48.19 87.9908 48.1523 87.1719C48.1147 86.353 48.3279 85.5467 48.7493 84.9141L48.9171 84.6622C49.1128 84.3683 49.2216 84.0005 49.2255 83.6196C49.2294 83.2387 49.1282 82.8675 48.9385 82.5676L48.9369 82.565C48.7927 82.3371 48.6989 82.0666 48.6646 81.7802C48.6302 81.4938 48.6565 81.2013 48.7409 80.9313L49.6453 78.0386H48.5156L47.1378 82.446C47.0534 82.716 47.027 83.0086 47.0614 83.295C47.0957 83.5814 47.1896 83.8518 47.3337 84.0797L47.3354 84.0824C47.525 84.3823 47.6263 84.7534 47.6223 85.1343C47.6184 85.5152 47.5096 85.8831 47.3139 86.1769L47.1461 86.4288C46.7247 87.0614 46.5115 87.8678 46.5492 88.6867C46.5868 89.5055 46.8726 90.2767 47.3492 90.8459L48.5156 92.2388H53.8254L54.9922 90.8454C55.0248 90.8064 55.0538 90.7646 55.0845 90.7241H51.7389C50.6995 90.7241 49.7007 90.2248 48.9524 89.3312Z" fill="#EA9918"/>
<path d="M60.0087 100.958H42.2981C42.2108 100.958 42.1256 100.926 42.0533 100.866C41.9809 100.805 41.9249 100.719 41.8922 100.619C41.8595 100.519 41.8518 100.409 41.8699 100.303C41.8881 100.198 41.9314 100.101 41.9942 100.026L42.8292 99.3645C45.1278 97.5436 47.0686 95.109 48.5095 92.2388H53.7973C55.2381 95.109 57.1789 97.5436 59.4776 99.3645L60.3126 100.026C60.3754 100.101 60.4186 100.198 60.4368 100.303C60.455 100.409 60.4472 100.519 60.4146 100.619C60.3819 100.719 60.3258 100.805 60.2535 100.866C60.1812 100.926 60.0959 100.958 60.0087 100.958Z" fill="#F9AE2B"/>
<path d="M59.4776 99.3645C59.176 99.1256 58.8808 98.876 58.592 98.6159H46.9416C46.8543 98.6159 46.7691 98.5836 46.6968 98.5231C46.6244 98.4627 46.5684 98.3768 46.5357 98.2766C46.503 98.1764 46.4953 98.0664 46.5134 97.9607C46.5316 97.855 46.5749 97.7584 46.6377 97.6833L47.4727 97.0219C49.1116 95.7228 50.5728 94.1081 51.801 92.2388H48.5095C47.0686 95.109 45.1278 97.5436 42.8292 99.3645L41.9942 100.026C41.9314 100.101 41.8881 100.198 41.8699 100.303C41.8518 100.409 41.8595 100.519 41.8922 100.619C41.9249 100.719 41.9809 100.805 42.0533 100.866C42.1256 100.926 42.2108 100.958 42.2981 100.958H60.0087C60.0959 100.958 60.1812 100.926 60.2535 100.866C60.3258 100.805 60.3819 100.719 60.4146 100.619C60.4472 100.519 60.455 100.409 60.4368 100.303C60.4186 100.198 60.3754 100.101 60.3126 100.026L59.4776 99.3645Z" fill="#EA9918"/>
<path d="M39.457 31.6831C39.7556 32.1647 40.0395 32.6558 40.3312 33.1417L41.1813 34.6158C41.7463 35.5996 42.2975 36.5923 42.8421 37.5893C43.7163 39.7212 44.6151 41.8374 45.5005 43.9622L50.8315 56.6989L56.1624 69.4355L58.8279 75.8039C59.1673 76.9327 59.5065 78.0615 59.8305 79.2001L60.316 80.9084C60.4707 81.4824 60.6321 82.0521 60.781 82.6299C60.4856 82.1462 60.2027 81.6545 59.9133 81.1671L59.066 79.6912C58.5015 78.7071 57.9522 77.7131 57.4031 76.7191L54.7376 70.3508L49.4066 57.6141L44.0756 44.8774C43.1839 42.7567 42.3057 40.6273 41.403 38.5136C41.0591 37.3878 40.7218 36.2577 40.3983 35.1187L39.9156 33.4087C39.7631 32.8332 39.6027 32.2629 39.457 31.6831Z" fill="#EE781D"/>
<path d="M51.1704 83.6239C46.2647 83.6212 41.502 81.5775 37.646 77.8207C33.79 74.0638 31.0643 68.8115 29.9061 62.9061C28.7478 57.0007 29.2242 50.7846 31.2587 45.2547C33.2932 39.7248 36.768 35.2016 41.1257 32.4107C41.3148 32.29 41.5349 32.2673 41.7375 32.3474C41.9401 32.4276 42.1087 32.6041 42.2064 32.8382C42.304 33.0724 42.3226 33.3449 42.258 33.596C42.1935 33.8471 42.0512 34.0562 41.8623 34.1773C37.0875 37.2319 33.4862 42.5089 31.8489 48.8497C30.2117 55.1905 30.6724 62.077 33.1298 67.9974C35.5872 73.9179 39.8406 78.3884 44.9561 80.4277C50.0717 82.467 55.6314 81.9083 60.4148 78.8744C60.6043 78.7542 60.8245 78.7322 61.027 78.8132C61.2296 78.8942 61.3979 79.0716 61.4948 79.3062C61.5918 79.5409 61.6096 79.8137 61.5442 80.0647C61.4789 80.3156 61.3357 80.524 61.1462 80.6442C58.0572 82.5982 54.6388 83.6192 51.1704 83.6239Z" fill="#409CB5"/>
<path d="M51.1707 78.4001C60.9316 78.4001 68.8443 68.5976 68.8443 56.5057C68.8443 44.4138 60.9316 34.6113 51.1707 34.6113C41.4098 34.6113 33.4971 44.4138 33.4971 56.5057C33.4971 68.5976 41.4098 78.4001 51.1707 78.4001Z" fill="#409CB5"/>
<path d="M51.6874 82.9837L51.6732 82.2611C52.2475 82.2436 52.827 82.1965 53.3956 82.1206L53.4581 82.8394C52.8736 82.9174 52.2778 82.9659 51.6874 82.9837ZM49.9135 82.9453C49.3241 82.902 48.7303 82.8275 48.1484 82.7236L48.2316 82.0079C48.7974 82.1089 49.3749 82.1815 49.9479 82.2237L49.9135 82.9453ZM55.2131 82.5138L55.1027 81.8039C55.6663 81.6694 56.2316 81.504 56.7827 81.3126L56.9403 82.0088C56.3736 82.2056 55.7926 82.3755 55.2131 82.5138ZM46.4043 82.3188C45.8307 82.1544 45.2553 81.9576 44.6939 81.734L44.8728 81.0457C45.4186 81.2632 45.9781 81.4545 46.5359 81.6145L46.4043 82.3188ZM58.6278 81.3282L58.4242 80.6507C58.9616 80.4028 59.4969 80.1241 60.0156 79.8223L60.2638 80.4764C59.7307 80.7869 59.1802 81.0736 58.6278 81.3282ZM43.0282 80.9726C42.4853 80.6922 41.9442 80.379 41.4199 80.0422L41.6885 79.4004C42.1986 79.728 42.7249 80.0325 43.2529 80.3054L43.0282 80.9726ZM39.8795 78.9504C39.3812 78.5626 38.8891 78.1437 38.417 77.7054L38.767 77.1268C39.2263 77.5533 39.7051 77.9609 40.1899 78.3383L39.8795 78.9504ZM37.0418 76.3164C36.6011 75.8327 36.1708 75.3205 35.7628 74.7935L36.184 74.2929C36.5811 74.8059 36.9999 75.3046 37.4288 75.7752L37.0418 76.3164ZM34.5883 73.1466C34.2163 72.5802 33.859 71.9879 33.5263 71.3865L34.0076 70.9777C34.3314 71.5629 34.6791 72.139 35.0411 72.6905L34.5883 73.1466ZM32.5844 69.5248C32.2922 68.8907 32.0182 68.2341 31.7696 67.5732L32.2987 67.2678C32.5405 67.9109 32.8071 68.5495 33.0913 69.1665L32.5844 69.5248ZM31.0886 65.5448C30.8851 64.8595 30.7028 64.1557 30.5469 63.4534L31.1096 63.2617C31.2612 63.9446 31.4385 64.6288 31.6363 65.2952L31.0886 65.5448ZM30.1486 61.3113C30.0407 60.5936 29.9561 59.8615 29.8972 59.1355L30.478 59.0635C30.5352 59.7694 30.6174 60.4811 30.7224 61.1789L30.1486 61.3113ZM29.7939 56.9417C29.7919 56.7968 29.791 56.6514 29.791 56.5057C29.791 55.9209 29.807 55.3279 29.8384 54.7435L30.4208 54.7915C30.3902 55.3601 30.3747 55.9368 30.3747 56.5057C30.3747 56.6474 30.3756 56.7888 30.3774 56.9297L29.7939 56.9417ZM30.6075 52.6653L30.0304 52.5573C30.1186 51.8344 30.2324 51.1081 30.3687 50.3984L30.9365 50.5658C30.8039 51.256 30.6933 51.9622 30.6075 52.6653ZM31.4052 48.5076L30.8504 48.2827C31.034 47.5884 31.2431 46.8956 31.4723 46.2234L32.0099 46.5048C31.7871 47.1586 31.5836 47.8324 31.4052 48.5076ZM32.7465 44.5704L32.2294 44.2351C32.5024 43.589 32.8009 42.9486 33.1164 42.3315L33.6094 42.7184C33.3024 43.3187 33.0121 43.9419 32.7465 44.5704ZM34.5928 40.9611L34.1272 40.5251C34.4822 39.9435 34.8616 39.3726 35.2549 38.8282L35.6898 39.3105C35.3072 39.84 34.9381 40.3954 34.5928 40.9611ZM36.8931 37.7787L36.492 37.2533C36.9204 36.7513 37.3707 36.266 37.8302 35.8108L38.1947 36.3757C37.7477 36.8184 37.3098 37.2904 36.8931 37.7787ZM39.5857 35.1113L39.2603 34.5111C39.7487 34.1049 40.2576 33.7187 40.7727 33.3635L41.0566 33.9951C40.5556 34.3407 40.0606 34.7162 39.5857 35.1113Z" fill="#25788E"/>
<path d="M51.8388 39.7687C51.5197 40.4478 50.9502 41.6561 49.875 42.1041C48.9193 42.5014 48.2975 41.9906 46.8116 42.2014C45.9132 42.3291 45.3486 42.4082 44.7693 42.8826C43.9282 43.5718 43.9789 44.328 43.3554 45.1206C42.0103 46.8317 39.4885 46.2275 39.3494 46.191C38.2763 45.8909 37.3025 45.1929 36.5576 44.1901C38.1771 41.2368 40.3557 38.8198 42.903 37.15C45.4504 35.4803 48.2891 34.6087 51.1711 34.6113C51.6129 34.6113 52.0532 34.6316 52.4868 34.6701C52.6603 36.0061 52.6881 37.9665 51.8388 39.7687Z" fill="#25788E"/>
<path d="M46.4183 48.2344C47.6521 46.3448 48.9221 44.3998 50.5029 44.634C51.7493 44.8186 52.9089 46.3165 53.1736 47.8452C53.5041 49.7543 52.2515 50.6311 52.7023 52.4186C53.0088 53.6342 53.6463 53.4598 54.5875 55.2406C55.0321 56.0819 55.783 57.5024 55.6872 59.3275C55.6652 59.745 55.4868 62.3227 53.7234 63.4145C52.5646 64.132 51.1135 63.9648 50.1887 63.1226C49.1205 62.1496 49.4636 60.9217 48.4606 60.3006C47.5462 59.7344 47.0138 60.6021 45.4757 60.2033C44.9088 60.0563 43.8623 59.785 43.3549 58.841C42.6579 57.5442 43.3345 55.6408 44.376 52.7106C44.9628 51.06 45.428 49.7511 46.4183 48.2344Z" fill="#25788E"/>
<path d="M68.8443 56.5055C68.845 58.3545 68.6575 60.1963 68.2863 61.9872C66.6613 62.4616 64.7466 62.3805 63.2281 61.1763C62.7796 60.8216 61.6341 59.9134 61.3429 58.3544C61.1236 57.1786 61.6014 56.7691 61.6571 54.6567C61.6816 53.6978 61.7143 52.4612 61.2643 51.1536C60.739 49.627 60.1008 49.5926 59.6933 48.4289C59.0846 46.6916 59.7032 44.49 60.4002 43.2716C61.1432 41.9742 62.2969 41.2362 63.5586 40.8916C65.2351 42.9265 66.5663 45.356 67.4741 48.0374C68.3818 50.7188 68.8477 53.5979 68.8443 56.5055Z" fill="#25788E"/>
<path d="M56.7082 68.4745C56.3285 67.6981 56.4347 66.3974 56.9439 65.9445C57.4112 65.5287 57.9507 66.0652 58.5934 65.5552C59.0646 65.1814 58.9645 64.7424 59.3789 64.4848C59.9507 64.1294 60.8934 64.4976 61.3427 65.2633C61.9211 66.2492 61.5657 67.6969 61.0284 68.4745C59.9388 70.0516 57.3994 69.8874 56.7082 68.4745Z" fill="#25788E"/>
<path d="M51.4747 78.394C51.3732 78.3981 51.2717 78.4001 51.1703 78.4001C48.3321 78.4026 45.5353 77.5572 43.017 75.9355C40.4987 74.3139 38.3332 71.964 36.7041 69.0849C36.9453 68.2832 37.3099 67.5472 37.7776 66.9177C37.9216 66.7251 39.7217 64.3998 41.8622 64.9716C42.6045 65.1962 43.2834 65.6672 43.8259 66.3339C44.5165 67.2056 44.3528 67.6941 44.9256 68.28C45.6767 69.0484 46.3231 68.5801 47.9105 68.9612C48.8073 69.1761 50.0689 69.4802 50.8954 70.6154C51.743 71.7791 51.7512 73.2914 51.7594 74.7997C51.7643 75.5275 51.7725 77.0337 51.4747 78.394Z" fill="#25788E"/>
<path d="M29.4219 63.3224C29.1943 63.7016 28.9762 64.0888 28.7621 64.4782C28.5473 64.867 28.3417 65.2624 28.1451 65.6645C28.1277 65.7001 28.0997 65.7257 28.0671 65.7357C28.0345 65.7457 28.0001 65.7392 27.9713 65.7177C27.9426 65.6963 27.9219 65.6615 27.9139 65.6212C27.9058 65.5808 27.911 65.5381 27.9283 65.5025C27.9298 65.4996 27.9315 65.4964 27.9331 65.4936C28.1535 65.1034 28.3828 64.722 28.6209 64.3496C28.859 63.9772 29.1091 63.6175 29.3627 63.2628C29.3692 63.2536 29.3783 63.248 29.3881 63.247C29.3979 63.246 29.4077 63.2497 29.4153 63.2574C29.423 63.2651 29.4279 63.2762 29.4292 63.2883C29.4304 63.3004 29.4278 63.3126 29.4219 63.3224Z" fill="#DBE8EC"/>
<path d="M27.116 68.161C26.8249 69.0085 26.6253 69.8999 26.5224 70.8121C26.5183 70.8527 26.5079 70.8918 26.4916 70.9273C26.4753 70.9628 26.4535 70.9939 26.4275 71.019C26.4015 71.0441 26.3718 71.0626 26.34 71.0734C26.3082 71.0842 26.2751 71.0872 26.2424 71.0822C26.2097 71.0771 26.1781 71.0641 26.1494 71.044C26.1208 71.0238 26.0956 70.9968 26.0754 70.9646C26.0551 70.9324 26.0402 70.8956 26.0315 70.8562C26.0227 70.8169 26.0203 70.7757 26.0244 70.7352L26.0256 70.7244C26.1623 69.7657 26.4073 68.8357 26.7535 67.9618C26.7756 67.9037 26.8151 67.8587 26.8637 67.8363C26.9123 67.8138 26.966 67.8159 27.0133 67.8419C27.0607 67.8679 27.098 67.9159 27.1172 67.9755C27.1364 68.0352 27.136 68.1018 27.116 68.161Z" fill="#DBE8EC"/>
<path d="M26.7489 73.4343C26.8286 73.6281 26.8919 73.8315 26.9814 74.0179C27.0716 74.2037 27.1731 74.3807 27.2851 74.5473C27.5133 74.8813 27.7778 75.1745 28.071 75.4185C28.141 75.4775 28.1892 75.5686 28.2051 75.6717C28.2209 75.7748 28.203 75.8814 28.1553 75.9682C28.1077 76.0549 28.0342 76.1147 27.9509 76.1343C27.8677 76.1539 27.7816 76.1317 27.7116 76.0727L27.7051 76.0671C27.3698 75.7723 27.069 75.4214 26.8115 75.0243C26.6831 74.8234 26.5674 74.6107 26.4654 74.3879C26.364 74.1646 26.2917 73.9236 26.2054 73.6921C26.1736 73.6069 26.1701 73.5096 26.1956 73.4212C26.221 73.3328 26.2734 73.2603 26.3416 73.2193C26.4097 73.1782 26.4881 73.1718 26.56 73.2016C26.6319 73.2313 26.6914 73.2948 26.726 73.3783L26.7489 73.4343Z" fill="#DBE8EC"/>
<path d="M30.059 76.4707C30.7804 76.6837 31.5159 76.8162 32.2564 76.8666C32.3465 76.8738 32.4307 76.9249 32.4904 77.0088C32.5502 77.0927 32.5807 77.2024 32.5753 77.3141C32.5699 77.4257 32.529 77.5302 32.4616 77.6046C32.3942 77.679 32.3057 77.7173 32.2155 77.7111C31.431 77.6623 30.6524 77.5157 29.8915 77.2734C29.8056 77.2459 29.732 77.1772 29.687 77.0825C29.6419 76.9878 29.6291 76.8748 29.6513 76.7683C29.6735 76.6619 29.7289 76.5707 29.8054 76.5149C29.8818 76.4591 29.973 76.4432 30.059 76.4707Z" fill="#DBE8EC"/>
<path d="M34.5043 76.8723C35.2554 76.8237 36.0066 76.7423 36.758 76.6279C36.8321 76.6166 36.9068 76.6418 36.9661 76.6979C37.0255 76.7539 37.0648 76.8366 37.0757 76.9281C37.0865 77.0196 37.0681 77.1127 37.0243 77.1876C36.9804 77.2625 36.9147 77.3132 36.8411 77.3288C36.0806 77.494 35.3139 77.6114 34.5438 77.6807C34.4574 77.6881 34.372 77.6527 34.3066 77.5822C34.2412 77.5117 34.2011 77.4119 34.1951 77.3047C34.1891 77.1976 34.2177 77.0919 34.2746 77.0109C34.3315 76.9299 34.4121 76.8802 34.4986 76.8727L34.5043 76.8723Z" fill="#DBE8EC"/>
<path d="M39.0014 76.1862L41.2263 75.5795L41.2357 75.577C41.2818 75.5644 41.3301 75.5748 41.3702 75.6057C41.4103 75.6367 41.439 75.6858 41.4502 75.7427C41.4614 75.7995 41.4543 75.8595 41.4303 75.9099C41.4062 75.9603 41.3673 75.997 41.3217 76.0123L39.1001 76.754C39.04 76.774 38.976 76.7636 38.9222 76.7251C38.8683 76.6867 38.8289 76.6233 38.8128 76.549C38.7966 76.4746 38.8049 76.3953 38.8359 76.3285C38.8669 76.2618 38.918 76.213 38.978 76.1928C38.9813 76.1917 38.9845 76.1908 38.9878 76.1898L39.0014 76.1862Z" fill="#DBE8EC"/>
<path d="M43.4254 74.8218C44.1484 74.528 44.8681 74.2205 45.5883 73.9147L45.5929 73.9127C45.6224 73.9002 45.6548 73.9026 45.6829 73.9195C45.711 73.9364 45.7325 73.9664 45.7428 74.003C45.7531 74.0395 45.7512 74.0796 45.7377 74.1145C45.7241 74.1493 45.7 74.1761 45.6705 74.189C44.9496 74.5044 44.2282 74.8181 43.5101 75.1456C43.4932 75.1533 43.4752 75.1568 43.4571 75.1559C43.4391 75.1551 43.4214 75.1498 43.405 75.1404C43.3886 75.131 43.3739 75.1177 43.3616 75.1013C43.3494 75.0849 43.3399 75.0656 43.3336 75.0446C43.3274 75.0236 43.3246 75.0013 43.3253 74.979C43.326 74.9566 43.3303 74.9347 43.3379 74.9144C43.3454 74.8941 43.3562 74.8759 43.3694 74.8607C43.3827 74.8455 43.3982 74.8337 43.4152 74.826L43.4192 74.8242L43.4254 74.8218Z" fill="#DBE8EC"/>
<path d="M47.7129 72.8756C48.4106 72.4971 49.103 72.1037 49.7977 71.7181L49.8023 71.7156C49.819 71.7063 49.8371 71.7012 49.8555 71.7005C49.8738 71.6999 49.8921 71.7037 49.9093 71.7118C49.9264 71.7199 49.9421 71.7321 49.9555 71.7477C49.9688 71.7633 49.9795 71.7821 49.9871 71.8028C49.9946 71.8236 49.9987 71.846 49.9992 71.8687C49.9997 71.8914 49.9966 71.9141 49.9901 71.9353C49.9836 71.9566 49.9737 71.976 49.9611 71.9926C49.9485 72.0091 49.9334 72.0224 49.9166 72.0317L49.9144 72.0329C49.2111 72.4055 48.5054 72.7703 47.805 73.1499C47.7906 73.1578 47.7751 73.1621 47.7593 73.1626C47.7435 73.163 47.7278 73.1596 47.7131 73.1525C47.6984 73.1454 47.685 73.1347 47.6736 73.1212C47.6622 73.1077 47.6531 73.0915 47.6468 73.0736C47.6404 73.0557 47.637 73.0364 47.6367 73.0168C47.6364 72.9973 47.6393 72.9779 47.645 72.9597C47.6508 72.9415 47.6594 72.9249 47.6704 72.9108C47.6814 72.8968 47.6945 72.8856 47.709 72.8778L47.7129 72.8756Z" fill="#DBE8EC"/>
<path d="M51.838 70.4467L52.841 69.7707C53.1755 69.5461 53.5096 69.3208 53.8389 69.0846C53.8645 69.0662 53.8929 69.0542 53.9223 69.0493C53.9517 69.0445 53.9816 69.0468 54.0103 69.0563C54.0389 69.0657 54.0658 69.0821 54.0894 69.1044C54.1129 69.1268 54.1327 69.1546 54.1476 69.1865C54.1625 69.2183 54.1721 69.2534 54.176 69.2898C54.1799 69.3263 54.178 69.3633 54.1703 69.3988C54.1626 69.4343 54.1494 69.4676 54.1314 69.4968C54.1133 69.5259 54.0908 69.5504 54.0651 69.5688L54.0575 69.574L54.0552 69.5755C53.7159 69.7955 53.3713 70.0027 53.0285 70.214L52.0001 70.8464C51.9578 70.8725 51.9089 70.8769 51.8639 70.8588C51.819 70.8407 51.7816 70.8015 51.7597 70.7495C51.7379 70.6976 51.7333 70.6371 51.7471 70.5811C51.7608 70.5251 51.7918 70.4779 51.8332 70.4499L51.838 70.4467Z" fill="#DBE8EC"/>
<path d="M55.7976 67.6354L57.7198 66.1181L57.7291 66.1107C57.7636 66.0835 57.802 66.0649 57.8423 66.0562C57.8825 66.0474 57.9238 66.0485 57.9637 66.0594C58.0035 66.0704 58.0413 66.091 58.0748 66.12C58.1083 66.149 58.1368 66.1859 58.1587 66.2286C58.1807 66.2713 58.1957 66.319 58.2028 66.3688C58.2099 66.4187 58.209 66.4698 58.2001 66.5192C58.1913 66.5686 58.1747 66.6154 58.1512 66.6568C58.1278 66.6983 58.098 66.7337 58.0635 66.7609L58.0552 66.7672L56.0776 68.2222C56.0156 68.2679 55.9416 68.2815 55.8715 68.2602C55.8014 68.2388 55.7409 68.1842 55.703 68.1081C55.6652 68.032 55.6529 67.9405 55.669 67.8534C55.6851 67.7662 55.7282 67.6904 55.789 67.6422L55.7976 67.6354Z" fill="#DBE8EC"/>
<path d="M59.5969 64.5201L61.4297 62.8492L61.4415 62.8385C61.4798 62.8036 61.5232 62.7784 61.5694 62.7643C61.6156 62.7502 61.6636 62.7475 61.7106 62.7563C61.7576 62.7652 61.8027 62.7854 61.8434 62.8159C61.8841 62.8464 61.9196 62.8865 61.9478 62.9339C61.976 62.9814 61.9963 63.0353 62.0077 63.0925C62.0191 63.1497 62.0213 63.2091 62.0141 63.2673C62.007 63.3256 61.9906 63.3815 61.966 63.4319C61.9414 63.4823 61.909 63.5263 61.8707 63.5612L61.866 63.5654L59.9886 65.2194C59.9148 65.2843 59.8232 65.3105 59.7339 65.2923C59.6446 65.2741 59.5647 65.2129 59.5116 65.1221C59.4585 65.0312 59.4365 64.9181 59.4504 64.8072C59.4643 64.6964 59.5129 64.5969 59.5857 64.5303L59.5969 64.5201Z" fill="#DBE8EC"/>
<path d="M63.2031 61.087L64.9064 59.2268L64.9216 59.2103C65.001 59.1238 65.105 59.0798 65.2106 59.0882C65.3162 59.0965 65.4148 59.1564 65.4848 59.2547C65.5548 59.3531 65.5904 59.4818 65.5838 59.6126C65.5772 59.7434 65.529 59.8657 65.4497 59.9525L65.4448 59.9578L63.6879 61.8145C63.6115 61.895 63.5125 61.935 63.4125 61.9256C63.3125 61.9163 63.2195 61.8584 63.1537 61.7645C63.088 61.6707 63.0548 61.5485 63.0614 61.4245C63.068 61.3005 63.1138 61.1847 63.189 61.1024L63.2031 61.087Z" fill="#DBE8EC"/>
<path d="M66.5317 57.2704C67.0587 56.6015 67.5646 55.909 68.0525 55.2001C68.1222 55.0987 68.2216 55.0356 68.3287 55.0247C68.4359 55.0137 68.5422 55.0558 68.6244 55.1417C68.7067 55.2276 68.7581 55.3503 68.7674 55.483C68.7768 55.6157 68.7434 55.7476 68.6745 55.8499C68.1782 56.5862 67.6529 57.2895 67.1143 57.9743C67.039 58.0701 66.9361 58.1248 66.8282 58.1266C66.7203 58.1283 66.6163 58.0769 66.539 57.9836C66.4617 57.8903 66.4175 57.7628 66.4161 57.6291C66.4146 57.4955 66.4562 57.3666 66.5315 57.2708L66.5317 57.2704Z" fill="#DBE8EC"/>
<path d="M69.4351 53.0012C69.8646 52.2463 70.2532 51.457 70.5983 50.6384C70.6431 50.5308 70.7204 50.4493 70.8133 50.4117C70.9062 50.3741 71.0073 50.3833 71.0947 50.4373C71.1822 50.4913 71.249 50.5859 71.2806 50.7004C71.3123 50.815 71.3063 50.9403 71.2639 51.0494C70.9195 51.9189 70.5236 52.7555 70.0794 53.5525C70.021 53.6587 69.931 53.7319 69.829 53.756C69.7271 53.78 69.6216 53.7529 69.5358 53.6807C69.4499 53.6084 69.3907 53.4969 69.3712 53.3707C69.3517 53.2444 69.3735 53.1137 69.4317 53.0073L69.4351 53.0012Z" fill="#DBE8EC"/>
<path d="M71.3884 48.0959C71.5725 47.2372 71.5989 46.3383 71.4657 45.4653L71.4654 45.4637C71.4483 45.3664 71.4628 45.2646 71.5057 45.1803C71.5486 45.096 71.6165 45.036 71.6948 45.0132C71.7732 44.9905 71.8556 45.0067 71.9243 45.0585C71.993 45.1103 72.0425 45.1934 72.0622 45.2901C72.2453 46.2751 72.2441 47.2989 72.0587 48.2833C72.0493 48.338 72.0314 48.39 72.0058 48.4361C71.9803 48.4822 71.9476 48.5217 71.9097 48.5522C71.8719 48.5826 71.8295 48.6036 71.7851 48.6138C71.7407 48.624 71.6951 48.6232 71.6509 48.6116C71.6067 48.5999 71.5649 48.5776 71.5277 48.5458C71.4905 48.5141 71.4587 48.4736 71.4341 48.4266C71.4096 48.3797 71.3927 48.3272 71.3846 48.2722C71.3764 48.2171 71.3771 48.1606 71.3866 48.1059L71.3884 48.0959Z" fill="#DBE8EC"/>
<path d="M70.4252 43.2312C69.8758 42.6287 69.2334 42.1704 68.537 41.884C68.4862 41.8618 68.4444 41.8159 68.4206 41.7561C68.3968 41.6963 68.3929 41.6273 68.4097 41.5639C68.4264 41.5005 68.4626 41.4477 68.5103 41.417C68.5581 41.3862 68.6137 41.3798 68.6652 41.3992C69.4334 41.6676 70.1495 42.1266 70.7702 42.7483C70.7963 42.7756 70.8179 42.809 70.8336 42.8466C70.8493 42.8842 70.8589 42.9253 70.8618 42.9675C70.8648 43.0097 70.8609 43.0522 70.8506 43.0925C70.8403 43.1329 70.8236 43.1703 70.8016 43.2027C70.7796 43.2351 70.7526 43.2618 70.7223 43.2813C70.6919 43.3008 70.6587 43.3127 70.6247 43.3163C70.5906 43.3199 70.5563 43.3152 70.5237 43.3024C70.4912 43.2896 70.4609 43.2689 70.4348 43.2417C70.4318 43.2385 70.4281 43.2344 70.4252 43.2312Z" fill="#DBE8EC"/>
<path d="M66.3462 41.2662C65.5929 41.1507 64.8344 41.0956 64.0754 41.1012C64.0579 41.1012 64.0411 41.0928 64.0285 41.0778C64.0159 41.0627 64.0085 41.0422 64.0079 41.0206C64.0072 40.9989 64.0134 40.9778 64.025 40.9616C64.0367 40.9455 64.0529 40.9355 64.0704 40.9339C64.8369 40.8611 65.6067 40.8536 66.3741 40.9114C66.3929 40.9129 66.4114 40.919 66.4284 40.9293C66.4453 40.9396 66.4605 40.9539 66.473 40.9715C66.4855 40.9891 66.4951 41.0095 66.5012 41.0317C66.5073 41.0538 66.5099 41.0773 66.5087 41.1006C66.5075 41.124 66.5026 41.1469 66.4943 41.1679C66.486 41.1889 66.4744 41.2077 66.4602 41.2232C66.446 41.2387 66.4295 41.2506 66.4116 41.2581C66.3937 41.2657 66.3748 41.2689 66.356 41.2674C66.3528 41.2671 66.3492 41.2667 66.3462 41.2662Z" fill="#DBE8EC"/>
<path d="M63.491 33.3026C62.7304 35.7802 57.1356 41.8953 55.9905 43.1294C55.9707 43.1509 55.9465 43.1654 55.9206 43.1711C55.8946 43.1769 55.8679 43.1738 55.8433 43.1622C55.8187 43.1506 55.797 43.1309 55.7808 43.1053C55.7645 43.0796 55.7542 43.049 55.7509 43.0166C55.5571 41.1517 54.6559 31.9763 55.4164 29.4987C55.8236 28.1723 56.6395 27.1005 57.6845 26.5192C58.7296 25.938 59.9182 25.8948 60.989 26.3992C62.0597 26.9037 62.9249 27.9144 63.3941 29.209C63.8633 30.5036 63.8982 31.9761 63.491 33.3026Z" fill="#D62828"/>
<path d="M59.4542 33.8977C60.5674 33.8977 61.4699 32.7797 61.4699 31.4006C61.4699 30.0215 60.5674 28.9036 59.4542 28.9036C58.3409 28.9036 57.4385 30.0215 57.4385 31.4006C57.4385 32.7797 58.3409 33.8977 59.4542 33.8977Z" fill="#DBE8EC"/>
<path d="M45.5382 63.8567C45.7045 65.3681 44.2362 70.3663 43.9318 71.3805C43.9266 71.3981 43.9176 71.4137 43.9058 71.4254C43.894 71.4372 43.8798 71.4447 43.8648 71.4473C43.8497 71.4498 43.8344 71.4472 43.8205 71.4398C43.8066 71.4324 43.7945 71.4204 43.7857 71.4052C43.2733 70.5289 40.7789 66.1997 40.6126 64.6883C40.5236 63.8792 40.6977 63.0593 41.0966 62.4092C41.4955 61.7591 42.0866 61.3319 42.7398 61.2216C43.393 61.1113 44.0547 61.327 44.5796 61.8212C45.1044 62.3153 45.4492 63.0476 45.5382 63.8567Z" fill="#D62828"/>
<path d="M43.075 65.7096C43.7156 65.7096 44.2349 65.0662 44.2349 64.2726C44.2349 63.479 43.7156 62.8357 43.075 62.8357C42.4344 62.8357 41.915 63.479 41.915 64.2726C41.915 65.0662 42.4344 65.7096 43.075 65.7096Z" fill="#DBE8EC"/>
<path d="M58.248 96.5244L65.3036 100.958L72.3594 96.5244L79.415 100.958L86.4708 96.5244L93.5278 100.958L100.585 96.5244L95.4931 79.0811L90.1336 82.4485L84.7741 79.0811L79.4152 82.4485L74.0567 79.0811L68.6982 82.4485L63.3397 79.0811L58.248 96.5244Z" fill="#409CB5"/>
<path d="M58.248 96.5244L65.3036 100.958L72.3594 96.5244L79.415 100.958L86.4708 96.5244L93.5278 100.958L100.585 96.5244L95.4931 79.0811L90.1336 82.4485L84.7741 79.0811L79.4152 82.4485L74.0567 79.0811L68.6982 82.4485L63.3397 79.0811L58.248 96.5244Z" fill="#409CB5"/>
<path d="M61.7021 84.6922C62.6518 85.2339 63.5954 85.7904 64.5389 86.3473L65.9547 87.1811L67.3667 88.0243H67.2175C68.202 87.3741 69.1887 86.7294 70.1776 86.0902C71.1648 85.4467 72.1541 84.8083 73.1455 84.1752L73.2589 84.1028L73.376 84.1752L76.3692 86.026L79.3565 87.891H79.0982L82.086 86.0246C83.0811 85.4004 84.0788 84.7826 85.0792 84.1712L85.1984 84.0979L85.3128 84.1712C86.3035 84.8061 87.2948 85.4395 88.2816 86.0839C89.2695 86.7256 90.2583 87.3652 91.2425 88.016L91.0866 88.016C92.0798 87.4168 93.0761 86.8253 94.0756 86.2418L95.5727 85.3609C96.0709 85.0653 96.5743 84.7824 97.0749 84.4926C96.5904 84.8217 96.1088 85.1578 95.6219 85.4812L94.1639 86.4573C93.1927 87.1102 92.2189 87.7568 91.2425 88.3969L91.1682 88.4455L91.0866 88.3969C90.0813 87.7977 89.0805 87.1873 88.0789 86.5791C87.0762 85.9734 86.078 85.357 85.0792 84.7419H85.3128C84.3225 85.3779 83.3307 86.0101 82.3373 86.6383L79.3565 88.5218L79.2273 88.6035L79.0982 88.5218L76.1189 86.6369L73.1455 84.7379H73.3759C72.3779 85.3551 71.3777 85.9668 70.3752 86.5728C69.3745 87.1833 68.3717 87.7886 67.3667 88.3886L67.2883 88.4354L67.2175 88.3886L65.8345 87.4746L64.4553 86.5514C63.5355 85.9368 62.6158 85.3219 61.7021 84.6922Z" fill="#3086A3"/>
<path d="M98.8395 90.6454L97.2451 91.722L95.6456 92.786C94.5801 93.4973 93.5121 94.2026 92.4416 94.902L92.3669 94.9506L92.2867 94.902L89.0259 92.9249L85.7727 90.9291H86.0049C84.9296 91.6167 83.8554 92.3069 82.7764 92.9852L79.5428 95.0288L79.4134 95.1105L79.284 95.0288L76.0513 92.9855C74.9726 92.307 73.8983 91.618 72.8236 90.9298H73.0564L69.8033 92.9258L66.5425 94.9029L66.4619 94.9517L66.3868 94.9029C65.3159 94.2053 64.2483 93.4998 63.1839 92.7866L61.585 91.7222L59.9912 90.6454L61.6341 91.6022L63.2719 92.5716C64.3647 93.2157 65.4549 93.8661 66.5424 94.5227H66.3869L69.6014 92.4324L72.8236 90.3609L72.9376 90.2876L73.0565 90.3609C74.1396 91.0286 75.223 91.6954 76.3022 92.3726L79.5428 94.3968H79.2841L82.5258 92.3729C83.6052 91.6955 84.6894 91.0299 85.7726 90.3617L85.8912 90.2885L86.0049 90.3617L89.2271 92.4333L92.4416 94.5236H92.2867C93.3739 93.8651 94.4644 93.2146 95.5581 92.5721L97.1962 91.6025L98.8395 90.6454Z" fill="#3086A3"/>
<path d="M68.6982 82.4485C68.5308 84.0235 68.3084 85.583 68.0665 87.137C67.9508 87.9155 67.815 88.6884 67.6887 89.4639L67.2799 91.782L66.8409 94.0916C66.6839 94.8585 66.5375 95.6284 66.3701 96.3923C66.0463 97.9233 65.7028 99.4487 65.3037 100.958C65.4704 99.3833 65.6926 97.8237 65.9346 96.2697C66.0501 95.4911 66.1866 94.7185 66.3125 93.9429L66.7221 91.625L67.1618 89.3156C67.3184 88.5486 67.4656 87.779 67.6327 87.015C67.9566 85.484 68.2999 83.9585 68.6982 82.4485Z" fill="#3086A3"/>
<path d="M74.0568 79.0811C74.0329 80.5522 73.953 82.015 73.8533 83.4749C73.8087 84.2056 73.7438 84.9333 73.6885 85.6624L73.492 87.8452L73.2649 90.0234C73.1783 90.7478 73.1026 91.4739 73.0054 92.1967C72.8224 93.6442 72.6191 95.0886 72.3594 96.5245C72.3826 95.0532 72.4622 93.5903 72.562 92.1305C72.6064 91.3998 72.672 90.6722 72.7269 89.943L72.9241 87.7604L73.152 85.5822C73.2381 84.8577 73.3147 84.1318 73.4116 83.4089C73.5948 81.9615 73.7978 80.5171 74.0568 79.0811Z" fill="#3086A3"/>
<path d="M79.4151 82.4485C79.5335 83.991 79.5953 85.5335 79.6374 87.076C79.6638 87.8472 79.6696 88.6185 79.6851 89.3898L79.7009 91.7035L79.6858 94.0173C79.6698 94.7885 79.6647 95.5597 79.6381 96.331C79.5961 97.8735 79.5339 99.416 79.4147 100.958C79.2956 99.416 79.2334 97.8735 79.1915 96.331C79.1649 95.5597 79.1598 94.7885 79.1439 94.0172L79.1289 91.7035L79.1447 89.3897C79.1603 88.6185 79.1662 87.8472 79.1925 87.076C79.2346 85.5335 79.2966 83.991 79.4151 82.4485Z" fill="#3086A3"/>
<path d="M84.7744 79.0811C85.0334 80.5171 85.2362 81.9615 85.4194 83.4089C85.5163 84.1319 85.5928 84.8578 85.6789 85.5823L85.9067 87.7604L86.1039 89.9431C86.1587 90.6722 86.2244 91.3998 86.2687 92.1306C86.3685 93.5904 86.4481 95.0532 86.4712 96.5245C86.2115 95.0885 86.0083 93.6441 85.8253 92.1967C85.7282 91.4739 85.6524 90.7479 85.5659 90.0234L85.3388 87.8452L85.1424 85.6624C85.0872 84.9333 85.0223 84.2056 84.9778 83.4749C84.8781 82.015 84.7982 80.5522 84.7744 79.0811Z" fill="#3086A3"/>
<path d="M90.1338 82.4485C90.5321 83.9585 90.8753 85.484 91.1993 87.0149C91.3664 87.779 91.5135 88.5486 91.6701 89.3156L92.1098 91.625L92.5194 93.9429C92.6452 94.7185 92.7817 95.4911 92.8972 96.2697C93.1391 97.8237 93.3613 99.3833 93.5279 100.958C93.1289 99.4487 92.7854 97.9233 92.4617 96.3923C92.2943 95.6283 92.1479 94.8585 91.9909 94.0916L91.552 91.782L91.1432 89.4639C91.0168 88.6884 90.8811 87.9155 90.7654 87.137C90.5236 85.583 90.3012 84.0235 90.1338 82.4485Z" fill="#3086A3"/>
<path d="M66.3689 89.7964L65.0418 89.396C64.9394 89.3651 64.8362 89.4429 64.8113 89.5697L64.3869 91.7287C64.362 91.8555 64.4248 91.9833 64.5272 92.0142L65.8543 92.4146C65.9567 92.4454 66.0599 92.3677 66.0848 92.2408L66.5092 90.0819C66.5341 89.9551 66.4713 89.8272 66.3689 89.7964Z" fill="#F9AE2B"/>
<path d="M89.1569 84.9104L87.8025 85.1291C87.698 85.146 87.6243 85.2646 87.6379 85.394L87.8698 87.5974C87.8834 87.7269 87.9791 87.8181 88.0836 87.8012L89.4381 87.5825C89.5425 87.5657 89.6162 87.4471 89.6026 87.3177L89.3708 85.1142C89.3571 84.9848 89.2614 84.8936 89.1569 84.9104Z" fill="#F9AE2B"/>
<path d="M97.8358 89.6699L96.5403 90.2061C96.4404 90.2475 96.3864 90.3814 96.4198 90.5052L96.9883 92.6127C97.0217 92.7365 97.1297 92.8033 97.2297 92.7619L98.5252 92.2257C98.6251 92.1843 98.6791 92.0504 98.6457 91.9266L98.0772 89.8191C98.0438 89.6953 97.9358 89.6285 97.8358 89.6699Z" fill="#F9AE2B"/>
<path d="M74.8396 93.4993L73.4935 93.2665C73.4425 93.2577 73.3907 93.2743 73.3496 93.3127C73.3085 93.3512 73.2814 93.4082 73.2743 93.4714L72.8926 96.8594L74.5403 97.8949L75.005 93.7707C75.0121 93.7075 74.9987 93.6435 74.9677 93.5925C74.9367 93.5416 74.8906 93.5081 74.8396 93.4993Z" fill="#F9AE2B"/>
<path d="M60.752 87.9471C61.0293 87.7506 61.32 87.5844 61.6208 87.4505C61.7717 87.3842 61.9247 87.3239 62.0801 87.2738L62.5543 87.1491C62.5639 87.1465 62.5738 87.1463 62.5835 87.1485C62.5931 87.1506 62.6023 87.1552 62.6106 87.1617C62.6188 87.1683 62.6259 87.1769 62.6314 87.1869C62.637 87.1969 62.6409 87.2082 62.643 87.22C62.645 87.2319 62.6451 87.2442 62.6433 87.2561C62.6415 87.2681 62.6378 87.2794 62.6325 87.2896C62.6271 87.2998 62.6202 87.3085 62.6121 87.3154C62.604 87.3222 62.5949 87.327 62.5853 87.3295L62.5803 87.3306L62.5708 87.3322L62.106 87.413C61.9512 87.4489 61.7978 87.4949 61.6457 87.5473C61.3405 87.6541 61.0418 87.7877 60.752 87.9471Z" fill="#F9AE2B"/>
<path d="M64.4717 87.073L66.3788 87.0732C66.4219 87.0729 66.4634 87.0939 66.494 87.1315C66.5247 87.169 66.5421 87.2202 66.5423 87.2736C66.5426 87.327 66.5257 87.3784 66.4953 87.4164C66.465 87.4544 66.4237 87.4759 66.3806 87.4762C66.3789 87.4763 66.3755 87.4761 66.3738 87.4761L64.4659 87.3911C64.4322 87.3897 64.4004 87.372 64.3771 87.3417C64.3539 87.3115 64.3412 87.2711 64.3418 87.2294C64.3424 87.1876 64.3562 87.1479 64.3802 87.1186C64.4042 87.0894 64.4366 87.073 64.4703 87.073L64.4717 87.073Z" fill="#F9AE2B"/>
<path d="M68.2842 87.0734L69.231 87.0442L69.7043 87.0297C69.8618 87.0286 70.0203 87.0088 70.1783 86.9987L70.1839 86.9983C70.2341 86.9953 70.2833 87.017 70.3206 87.0587C70.3579 87.1005 70.3803 87.1589 70.3829 87.2211C70.3855 87.2833 70.3681 87.3443 70.3344 87.3906C70.3008 87.4369 70.2537 87.4648 70.2035 87.4681L70.2021 87.4682C70.0426 87.4769 69.8843 87.4953 69.7238 87.4952L69.2437 87.5057L68.2835 87.5266C68.2352 87.5276 68.1885 87.5049 68.1537 87.4633C68.1189 87.4218 68.0987 87.3648 68.0977 87.305C68.0967 87.2451 68.1148 87.1871 68.1482 87.1438C68.1815 87.1005 68.2274 87.0753 68.2757 87.0737L68.2842 87.0734Z" fill="#F9AE2B"/>
<path d="M72.0563 86.7576C72.6766 86.6389 73.2896 86.4682 73.8913 86.2467C73.9336 86.2306 73.9793 86.2359 74.0185 86.2614C74.0577 86.2868 74.0871 86.3305 74.1005 86.3827C74.1138 86.435 74.1099 86.4917 74.0897 86.5404C74.0695 86.5892 74.0345 86.6261 73.9924 86.643C73.3794 86.8913 72.7519 87.0806 72.1153 87.2093C72.067 87.2189 72.0176 87.2044 71.9779 87.1689C71.9383 87.1334 71.9116 87.0799 71.9038 87.02C71.8959 86.9602 71.9076 86.899 71.9361 86.8498C71.9647 86.8006 72.008 86.7674 72.0563 86.7576Z" fill="#F9AE2B"/>
<path d="M75.6352 85.3852C76.1954 85.0304 76.7267 84.6098 77.222 84.1292C77.2405 84.1113 77.2638 84.103 77.2871 84.1061C77.3104 84.1092 77.3318 84.1234 77.3468 84.1457C77.3618 84.168 77.3691 84.1966 77.3673 84.2256C77.3655 84.2545 77.3547 84.2814 77.3372 84.3006C76.8541 84.8297 76.3271 85.2938 75.765 85.6851C75.7332 85.7072 75.6957 85.7127 75.6606 85.7004C75.6255 85.6881 75.5958 85.6591 75.578 85.6198C75.5603 85.5804 75.5558 85.5338 75.5657 85.4904C75.5756 85.447 75.599 85.4102 75.6308 85.3882L75.6352 85.3852Z" fill="#F9AE2B"/>
<path d="M78.6068 82.5248L78.8919 82.1213L78.6382 82.557C78.635 82.5622 78.6302 82.5656 78.625 82.5666C78.6197 82.5676 78.6144 82.566 78.6101 82.5621C78.6057 82.5583 78.6028 82.5525 78.6019 82.546C78.6009 82.5395 78.6021 82.5329 78.6051 82.5274L78.6068 82.5248Z" fill="#F9AE2B"/>
<path d="M62.9199 99.459L63.6606 98.7147C63.6629 98.7124 63.6655 98.7107 63.6683 98.7096C63.6711 98.7086 63.6741 98.7083 63.677 98.7086C63.6799 98.709 63.6827 98.7101 63.6853 98.7118C63.6879 98.7136 63.6901 98.7159 63.692 98.7187C63.6938 98.7215 63.6952 98.7248 63.696 98.7282C63.6968 98.7317 63.6971 98.7354 63.6968 98.739C63.6965 98.7426 63.6956 98.7461 63.6942 98.7492C63.6928 98.7524 63.691 98.7552 63.6887 98.7575L63.6876 98.7586L62.9199 99.459Z" fill="#F9AE2B"/>
<path d="M65.2206 97.2319L66.8198 95.8124C66.8297 95.8035 66.8409 95.7972 66.8527 95.7938C66.8646 95.7904 66.8769 95.7898 66.8889 95.7923C66.9009 95.7947 66.9124 95.8001 66.9227 95.8081C66.9331 95.816 66.9421 95.8264 66.9491 95.8387C66.9562 95.8509 66.9613 95.8648 66.9641 95.8795C66.9668 95.8942 66.9672 95.9094 66.9652 95.9243C66.9632 95.9392 66.9589 95.9534 66.9524 95.9662C66.946 95.979 66.9376 95.9901 66.9276 95.9989L66.9253 96.0009L66.9224 96.0033L65.2886 97.3496L65.287 97.3509C65.2743 97.3614 65.2587 97.3653 65.2437 97.3617C65.2286 97.3581 65.2153 97.3474 65.2066 97.3318C65.1979 97.3162 65.1945 97.297 65.1972 97.2783C65.1998 97.2596 65.2082 97.2429 65.2206 97.2319Z" fill="#F9AE2B"/>
<path d="M68.4657 94.4743L70.154 93.2169C70.1692 93.2055 70.1861 93.198 70.2037 93.1947C70.2213 93.1915 70.2393 93.1925 70.2565 93.1978C70.2738 93.2032 70.2901 93.2127 70.3044 93.2258C70.3187 93.2389 70.3307 93.2553 70.3399 93.2742C70.3491 93.2931 70.3552 93.3141 70.3578 93.3358C70.3604 93.3576 70.3596 93.3799 70.3553 93.4013C70.351 93.4227 70.3433 93.4428 70.3327 93.4605C70.3222 93.4782 70.3089 93.4932 70.2936 93.5045L70.2917 93.5059L70.2862 93.5099L68.5857 94.7162L68.5817 94.719C68.5555 94.7376 68.5245 94.7427 68.4953 94.7331C68.4661 94.7235 68.4412 94.7 68.4259 94.6678C68.4106 94.6355 68.4063 94.5971 68.4137 94.5609C68.4212 94.5247 68.4398 94.4935 68.4657 94.4743Z" fill="#F9AE2B"/>
<path d="M71.8868 92.0524C72.474 91.6759 73.0788 91.3432 73.698 91.0559C73.7185 91.0464 73.7403 91.0419 73.7622 91.0428C73.7841 91.0438 73.8057 91.05 73.8256 91.0613C73.8455 91.0725 73.8635 91.0886 73.8784 91.1084C73.8933 91.1283 73.9049 91.1516 73.9126 91.1771C73.9202 91.2025 73.9237 91.2296 73.9229 91.2567C73.922 91.2838 73.9169 91.3105 73.9077 91.3351C73.8985 91.3598 73.8855 91.3819 73.8694 91.4003C73.8533 91.4187 73.8344 91.433 73.8138 91.4423L73.812 91.4432C73.2036 91.7231 72.6074 92.0423 72.0259 92.3994C71.9889 92.4215 71.9463 92.4246 71.9074 92.408C71.8685 92.3915 71.8364 92.3566 71.8181 92.311C71.7998 92.2653 71.7967 92.2126 71.8096 92.1642C71.8225 92.1158 71.8502 92.0756 71.8868 92.0524Z" fill="#F9AE2B"/>
<path d="M75.6205 90.4061L76.6116 90.2544C76.9458 90.2145 77.2821 90.2081 77.6172 90.2352C77.6648 90.2389 77.7093 90.2658 77.7409 90.3101C77.7726 90.3544 77.7887 90.4124 77.7858 90.4714C77.783 90.5304 77.7613 90.5856 77.7257 90.6249C77.69 90.6641 77.6432 90.6843 77.5956 90.6809L77.5944 90.6807C77.4347 90.6675 77.2757 90.6605 77.1169 90.6619C76.9582 90.6649 76.7985 90.669 76.6383 90.691L75.6792 90.8292L75.6617 90.8317C75.6164 90.8379 75.5709 90.8217 75.5352 90.7866C75.4995 90.7515 75.4764 90.7003 75.471 90.6442C75.4655 90.5881 75.4782 90.5316 75.5062 90.4871C75.5342 90.4425 75.5753 90.4134 75.6205 90.4061Z" fill="#F9AE2B"/>
<path d="M79.5838 90.5501C80.2299 90.692 80.8767 90.8321 81.5205 90.9869C81.5692 90.9986 81.6122 91.0338 81.64 91.0846C81.6678 91.1355 81.6782 91.198 81.6689 91.2584C81.6596 91.3187 81.6314 91.3721 81.5904 91.4067C81.5495 91.4414 81.4991 91.4545 81.4503 91.4432L79.5212 91.0072L79.5176 91.0064C79.4689 90.9953 79.4257 90.9608 79.3975 90.9104C79.3694 90.8599 79.3585 90.7977 79.3672 90.7374C79.376 90.677 79.4037 90.6234 79.4443 90.5883C79.4849 90.5532 79.5351 90.5395 79.5838 90.5501Z" fill="#F9AE2B"/>
<path d="M83.45 91.4682L85.3732 91.9872C85.4181 91.9993 85.4573 92.0329 85.4822 92.0807C85.507 92.1285 85.5156 92.1866 85.506 92.2422C85.4964 92.2979 85.4694 92.3465 85.4309 92.3775C85.3924 92.4086 85.3456 92.4194 85.3006 92.4077L85.2982 92.4071L83.3773 91.9063L83.3744 91.9056C83.3512 91.8996 83.3291 91.888 83.3094 91.8715C83.2898 91.8549 83.273 91.8337 83.26 91.8091C83.2469 91.7844 83.238 91.7569 83.2336 91.728C83.2292 91.699 83.2294 91.6693 83.2343 91.6405C83.2392 91.6117 83.2487 91.5844 83.2621 91.5601C83.2755 91.5358 83.2927 91.5151 83.3126 91.499C83.3325 91.483 83.3548 91.472 83.3782 91.4666C83.4015 91.4613 83.4255 91.4617 83.4488 91.4678L83.45 91.4682Z" fill="#F9AE2B"/>
<path d="M87.2824 92.4756C87.597 92.5292 87.9152 92.5447 88.2322 92.5219C88.3925 92.5161 88.5516 92.4801 88.7114 92.4609L89.1909 92.3949L89.2063 92.3928C89.2474 92.3871 89.2887 92.4018 89.3211 92.4336C89.3535 92.4654 89.3745 92.5118 89.3794 92.5627C89.3844 92.6136 89.3729 92.6648 89.3475 92.7052C89.3221 92.7457 89.2848 92.7721 89.2438 92.7786L88.7477 92.8584C88.5817 92.8799 88.4175 92.9178 88.2499 92.9256C87.9126 92.9525 87.574 92.9389 87.2388 92.885L87.2375 92.8847C87.1937 92.8775 87.154 92.8491 87.1271 92.8056C87.1002 92.7621 87.0884 92.7072 87.0942 92.6529C87.1 92.5986 87.123 92.5495 87.1581 92.5162C87.1932 92.4829 87.2375 92.4682 87.2813 92.4754L87.2824 92.4756Z" fill="#F9AE2B"/>
<path d="M91.0556 91.7686C91.66 91.4789 92.2419 91.1215 92.7939 90.7008C92.8197 90.6811 92.8508 90.6749 92.8803 90.6834C92.9099 90.6919 92.9355 90.7146 92.9516 90.7464C92.9678 90.7782 92.9731 90.8166 92.9665 90.8533C92.9599 90.89 92.9419 90.9219 92.9164 90.9422C92.3587 91.3876 91.7695 91.7691 91.156 92.0819C91.1394 92.0904 91.1217 92.0948 91.1038 92.0948C91.0858 92.0948 91.0681 92.0904 91.0516 92.0819C91.035 92.0733 91.02 92.0608 91.0074 92.0451C90.9947 92.0294 90.9847 92.0107 90.9779 91.9902C90.9711 91.9696 90.9677 91.9476 90.9678 91.9254C90.9679 91.9032 90.9715 91.8813 90.9784 91.8608C90.9854 91.8403 90.9955 91.8218 91.0083 91.8062C91.0211 91.7906 91.0362 91.7783 91.0528 91.77L91.0556 91.7686Z" fill="#F9AE2B"/>
<path d="M94.3501 89.2605C94.833 88.7205 95.2692 88.1195 95.6515 87.4675C95.6606 87.452 95.6742 87.4416 95.6894 87.4385C95.7046 87.4354 95.7201 87.4397 95.7327 87.4507C95.7453 87.4616 95.754 87.4783 95.7568 87.497C95.7596 87.5158 95.7563 87.5351 95.7477 87.5509C95.3781 88.23 94.9523 88.8595 94.4773 89.4291C94.4685 89.4396 94.4581 89.4479 94.4467 89.4535C94.4353 89.4591 94.4232 89.4618 94.411 89.4616C94.3987 89.4613 94.3867 89.4581 94.3754 89.4521C94.3642 89.446 94.3541 89.4373 94.3456 89.4265C94.337 89.4156 94.3304 89.4027 94.3259 89.3886C94.3214 89.3745 94.3191 89.3595 94.3193 89.3443C94.3195 89.3292 94.3222 89.3142 94.327 89.3003C94.3319 89.2864 94.3389 89.2738 94.3477 89.2633L94.3501 89.2605Z" fill="#F9AE2B"/>
<path d="M96.6432 85.3784L97.014 84.2934L96.6841 85.401C96.6831 85.4044 96.6816 85.4076 96.6796 85.4103C96.6776 85.413 96.6752 85.4152 96.6725 85.4168C96.6698 85.4183 96.6669 85.4192 96.664 85.4193C96.661 85.4195 96.6581 85.4189 96.6553 85.4176C96.6525 85.4164 96.65 85.4144 96.6478 85.4119C96.6456 85.4094 96.6439 85.4065 96.6426 85.4031C96.6414 85.3998 96.6407 85.3962 96.6406 85.3925C96.6405 85.3889 96.641 85.3852 96.6421 85.3818L96.6424 85.3806L96.6432 85.3784Z" fill="#F9AE2B"/>
<path d="M97.5318 86.0686L96.7516 86.1957L96.3623 86.2549C96.2333 86.2804 96.1049 86.3116 95.9768 86.3436C95.4657 86.4704 94.9626 86.6428 94.4715 86.8594C93.9857 87.0878 93.5143 87.3611 93.0615 87.6769C92.602 87.985 92.1435 88.2985 91.6861 88.6173C90.7725 89.2555 89.853 89.8826 88.9333 90.509L86.1646 92.367C85.7027 92.6752 85.2245 92.957 84.7553 93.2531L84.0483 93.6921C83.8144 93.8431 83.5745 93.978 83.3297 94.1017C82.352 94.6075 81.354 95.0209 80.3575 95.4288C78.3644 96.2459 76.3622 97.023 74.3525 97.7778C76.3136 96.8494 78.2829 95.9502 80.2603 95.0802C81.2443 94.6312 82.2362 94.211 83.1873 93.6904C83.6687 93.4424 84.125 93.1238 84.5926 92.8376C85.0568 92.5405 85.5251 92.2601 85.986 91.9496C87.8356 90.7241 89.6886 89.5056 91.5449 88.2942C92.0106 87.994 92.4747 87.6896 92.9478 87.4026C93.4195 87.1025 93.909 86.848 94.4122 86.6411C94.9191 86.455 95.4362 86.3146 95.9595 86.2209C96.0898 86.1974 96.2202 86.1747 96.3512 86.1577L96.7453 86.1251L97.5318 86.0686Z" fill="#F9AE2B"/>
<path d="M84.7743 75.8257C84.7743 77.8555 82.1133 84.1189 81.5649 85.3883C81.5554 85.4104 81.5413 85.4289 81.524 85.4417C81.5067 85.4546 81.4869 85.4614 81.4667 85.4614C81.4466 85.4614 81.4268 85.4546 81.4095 85.4417C81.3922 85.4289 81.3781 85.4104 81.3686 85.3883C80.8201 84.1189 78.1592 77.8555 78.1592 75.8257C78.1592 74.739 78.5077 73.6968 79.1279 72.9284C79.7482 72.16 80.5895 71.7283 81.4667 71.7283C82.344 71.7283 83.1852 72.16 83.8055 72.9284C84.4258 73.6968 84.7743 74.739 84.7743 75.8257Z" fill="#D62828"/>
<path d="M81.4664 77.7379C82.3188 77.7379 83.0099 76.8818 83.0099 75.8257C83.0099 74.7697 82.3188 73.9136 81.4664 73.9136C80.6139 73.9136 79.9229 74.7697 79.9229 75.8257C79.9229 76.8818 80.6139 77.7379 81.4664 77.7379Z" fill="#DBE8EC"/>
<path d="M100.547 85.0273C100.345 86.3882 97.9366 90.181 97.4424 90.9483C97.4339 90.9617 97.4225 90.9719 97.4097 90.9779C97.3968 90.9839 97.3828 90.9854 97.3693 90.9823C97.3558 90.9792 97.3432 90.9716 97.3329 90.9604C97.3226 90.9491 97.3149 90.9345 97.3108 90.9183C97.0695 89.9833 95.9092 85.377 96.1114 84.0161C96.2197 83.2875 96.5571 82.642 97.0496 82.2216C97.542 81.8012 98.1491 81.6403 98.7372 81.7744C99.3254 81.9085 99.8465 82.3266 100.186 82.9366C100.525 83.5466 100.655 84.2987 100.547 85.0273Z" fill="#D62828"/>
<path d="M98.3296 85.8252C98.9108 85.8252 99.3819 85.2416 99.3819 84.5216C99.3819 83.8017 98.9108 83.218 98.3296 83.218C97.7485 83.218 97.2773 83.8017 97.2773 84.5216C97.2773 85.2416 97.7485 85.8252 98.3296 85.8252Z" fill="#DBE8EC"/>
<path d="M68.9834 31.833H74.7676" stroke="#B9D4DB" stroke-width="3" stroke-miterlimit="10" stroke-linecap="round"/>
<path d="M68.9834 33.8984H74.7676" stroke="#B9D4DB" stroke-width="3" stroke-miterlimit="10" stroke-linecap="round"/>
<path d="M68.9834 35.9639H74.7676" stroke="#B9D4DB" stroke-width="3" stroke-miterlimit="10" stroke-linecap="round"/>
<path d="M97.251 65.4319H103.035" stroke="#B9D4DB" stroke-width="3" stroke-miterlimit="10" stroke-linecap="round"/>
<path d="M97.251 67.4971H103.035" stroke="#B9D4DB" stroke-width="3" stroke-miterlimit="10" stroke-linecap="round"/>
<path d="M97.251 69.5625H103.035" stroke="#B9D4DB" stroke-width="3" stroke-miterlimit="10" stroke-linecap="round"/>
<path d="M16.1133 96.6763H21.8975" stroke="#B9D4DB" stroke-width="3" stroke-miterlimit="10" stroke-linecap="round"/>
<path d="M16.1133 98.7415H21.8975" stroke="#B9D4DB" stroke-width="3" stroke-miterlimit="10" stroke-linecap="round"/>
<path d="M16.1133 100.807H21.8975" stroke="#B9D4DB" stroke-width="3" stroke-miterlimit="10" stroke-linecap="round"/>
<path d="M82.2419 59.5927C83.6074 59.5927 84.7143 58.2214 84.7143 56.5299C84.7143 54.8383 83.6074 53.467 82.2419 53.467C80.8764 53.467 79.7695 54.8383 79.7695 56.5299C79.7695 58.2214 80.8764 59.5927 82.2419 59.5927Z" fill="#B9D4DB"/>
<path d="M78.1804 64.8188C78.8884 64.8188 79.4624 64.1078 79.4624 63.2307C79.4624 62.3536 78.8884 61.6426 78.1804 61.6426C77.4724 61.6426 76.8984 62.3536 76.8984 63.2307C76.8984 64.1078 77.4724 64.8188 78.1804 64.8188Z" fill="#B9D4DB"/>
<path d="M75.9505 55.36C76.962 55.36 77.7819 54.3443 77.7819 53.0913C77.7819 51.8383 76.962 50.8225 75.9505 50.8225C74.9391 50.8225 74.1191 51.8383 74.1191 53.0913C74.1191 54.3443 74.9391 55.36 75.9505 55.36Z" fill="#B9D4DB"/>
<path d="M36.0588 96.9448C37.6835 96.9448 39.0005 95.3133 39.0005 93.3006C39.0005 91.288 37.6835 89.6565 36.0588 89.6565C34.4342 89.6565 33.1172 91.288 33.1172 93.3006C33.1172 95.3133 34.4342 96.9448 36.0588 96.9448Z" fill="#B9D4DB"/>
<path d="M30.4375 92.6032C31.2838 92.6032 31.9698 91.7534 31.9698 90.7051C31.9698 89.6567 31.2838 88.8069 30.4375 88.8069C29.5913 88.8069 28.9053 89.6567 28.9053 90.7051C28.9053 91.7534 29.5913 92.6032 30.4375 92.6032Z" fill="#B9D4DB"/>
<path d="M31.8448 85.3476C32.3329 85.3476 32.7286 84.8573 32.7286 84.2526C32.7286 83.6479 32.3329 83.1577 31.8448 83.1577C31.3566 83.1577 30.9609 83.6479 30.9609 84.2526C30.9609 84.8573 31.3566 85.3476 31.8448 85.3476Z" fill="#B9D4DB"/>
<path d="M36.7379 87.6521C37.9081 87.6521 38.8567 86.477 38.8567 85.0274C38.8567 83.5777 37.9081 82.4026 36.7379 82.4026C35.5677 82.4026 34.6191 83.5777 34.6191 85.0274C34.6191 86.477 35.5677 87.6521 36.7379 87.6521Z" fill="#B9D4DB"/>
<path d="M45.3118 30.4099C46.9364 30.4099 48.2534 28.7783 48.2534 26.7657C48.2534 24.7531 46.9364 23.1216 45.3118 23.1216C43.6871 23.1216 42.3701 24.7531 42.3701 26.7657C42.3701 28.7783 43.6871 30.4099 45.3118 30.4099Z" fill="#B9D4DB"/>
<path d="M46.2119 21.3169C47.0582 21.3169 47.7442 20.467 47.7442 19.4187C47.7442 18.3704 47.0582 17.5205 46.2119 17.5205C45.3657 17.5205 44.6797 18.3704 44.6797 19.4187C44.6797 20.467 45.3657 21.3169 46.2119 21.3169Z" fill="#B9D4DB"/>
<path d="M56.2139 23.8102C56.9463 23.8102 57.54 23.0746 57.54 22.1673C57.54 21.26 56.9463 20.5244 56.2139 20.5244C55.4814 20.5244 54.8877 21.26 54.8877 22.1673C54.8877 23.0746 55.4814 23.8102 56.2139 23.8102Z" fill="#B9D4DB"/>
<path d="M51.5987 20.8998C52.0868 20.8998 52.4825 20.4096 52.4825 19.8049C52.4825 19.2002 52.0868 18.71 51.5987 18.71C51.1106 18.71 50.7148 19.2002 50.7148 19.8049C50.7148 20.4096 51.1106 20.8998 51.5987 20.8998Z" fill="#B9D4DB"/>
<path d="M51.9869 28.521C53.1571 28.521 54.1057 27.3459 54.1057 25.8963C54.1057 24.4466 53.1571 23.2715 51.9869 23.2715C50.8168 23.2715 49.8682 24.4466 49.8682 25.8963C49.8682 27.3459 50.8168 28.521 51.9869 28.521Z" fill="#B9D4DB"/>
<path d="M80.939 45.7727C80.4205 47.4618 76.6062 51.6308 75.8255 52.4721C75.812 52.4868 75.7955 52.4966 75.7778 52.5005C75.7602 52.5045 75.742 52.5024 75.7252 52.4945C75.7084 52.4866 75.6936 52.4731 75.6826 52.4556C75.6715 52.4381 75.6644 52.4172 75.6622 52.3952C75.53 51.1238 74.9157 44.8685 75.4342 43.1794C75.7118 42.2751 76.268 41.5444 76.9804 41.1482C77.6929 40.7519 78.5033 40.7225 79.2332 41.0663C79.9632 41.4102 80.553 42.0993 80.8729 42.9819C81.1928 43.8645 81.2166 44.8684 80.939 45.7727Z" fill="#409CB5"/>
<path d="M78.1867 46.1784C78.9456 46.1784 79.5609 45.4162 79.5609 44.4761C79.5609 43.5359 78.9456 42.7737 78.1867 42.7737C77.4277 42.7737 76.8125 43.5359 76.8125 44.4761C76.8125 45.4162 77.4277 46.1784 78.1867 46.1784Z" fill="#DBE8EC"/>
<path d="M32.5063 82.1262C32.6948 83.9181 30.9274 89.827 30.5611 91.0258C30.5548 91.0466 30.5441 91.0649 30.53 91.0788C30.5159 91.0926 30.4991 91.1014 30.4813 91.1043C30.4635 91.1072 30.4454 91.104 30.4289 91.0951C30.4124 91.0862 30.3982 91.0719 30.3878 91.0538C29.7857 90.0113 26.8548 84.861 26.6663 83.0691C26.6163 82.5941 26.6424 82.1115 26.7429 81.6489C26.8435 81.1864 27.0166 80.7529 27.2524 80.3732C27.7287 79.6064 28.4313 79.1054 29.2057 78.9803C29.9802 78.8553 30.763 79.1165 31.3819 79.7064C32.0009 80.2964 32.4054 81.1668 32.5063 82.1262Z" fill="#409CB5"/>
<path d="M29.5861 84.3C30.3451 84.3 30.9603 83.5378 30.9603 82.5976C30.9603 81.6574 30.3451 80.8953 29.5861 80.8953C28.8272 80.8953 28.2119 81.6574 28.2119 82.5976C28.2119 83.5378 28.8272 84.3 29.5861 84.3Z" fill="#DBE8EC"/>
</svg>
