<svg width="80" height="80" viewBox="0 0 80 80" fill="none" xmlns="http://www.w3.org/2000/svg">
<g clip-path="url(#clip0_2128_3188)">
<path d="M51.4364 55.43C51.2122 52.6294 51.1491 49.82 51.2473 47.0133L51.2436 47.1367C53.9793 44.536 55.6858 41.1703 56.0909 37.5767L56.0982 37.5067C57.3309 37.4133 59.2764 36.3133 59.8436 31.9533C60.0135 31.2024 59.9483 30.4228 59.6556 29.7045C59.3628 28.9861 58.8544 28.3582 58.1891 27.8933L58.1782 27.8867C60.1855 22.3533 64.3527 5.23333 50.4655 3.46667C49.0364 1.16667 45.3782 0 40.6218 0C21.5927 0.32 19.2982 13.17 23.4582 27.8867C22.7858 28.3545 22.273 28.9884 21.9799 29.7141C21.6868 30.4397 21.6257 31.2269 21.8036 31.9833L21.8 31.9567C22.3818 36.31 24.3127 37.4167 25.5455 37.51C25.9784 41.1437 27.7393 44.5364 30.5418 47.1367C30.6317 49.9925 30.5613 52.8508 30.3309 55.7L30.3491 55.43C26.5745 64.71 1.16364 62.1033 0 80H81.6655C80.4945 62.1033 55.2 64.71 51.4327 55.43H51.4364Z" fill="#595959"/>
</g>
<defs>
<clipPath id="clip0_2128_3188">
<rect width="80" height="80" fill="white"/>
</clipPath>
</defs>
</svg>
