<svg width="151" height="151" viewBox="0 0 151 151" fill="none" xmlns="http://www.w3.org/2000/svg">
<path d="M8.075 0.5L0.5 8.075L13.8442 31.1519L22.4981 29.8827L75.3212 82.7115L70.8154 87.0385C68.5077 89.3462 68.5077 92.8423 70.8154 95.15L73.1577 97.4981C75.4654 99.8058 78.9962 99.8058 80.7269 97.4981L87.5808 104.346C87.0038 107.808 87.5808 111.921 90.4654 114.806L121.654 145.815C128 152.162 138.385 152.162 144.731 145.815C152.231 138.892 152.162 128.542 145.815 122.196L114.806 91.0019C111.921 88.1173 107.808 86.9635 104.346 88.1173L96.7712 81.2692C98.5019 78.9615 98.5019 75.4308 96.7712 73.6942L94.6077 71.5365C94.0832 70.9896 93.4536 70.5544 92.7566 70.2571C92.0596 69.9598 91.3097 69.8066 90.5519 69.8066C89.7942 69.8066 89.0443 69.9598 88.3473 70.2571C87.6503 70.5544 87.0206 70.9896 86.4962 71.5365L82.7115 75.3212L29.8885 22.4981L31.1462 13.8442L8.075 0.5ZM120.575 0.678846C109.192 -0.267308 94.1 7.27885 87.0385 13.8385C78.35 22.5269 79.7692 33.8865 86.675 44.8539L74.4212 57.1135L83.075 66.8462C87.6904 62.8077 94.4981 62.8077 99.1135 66.8462L101.462 69.1885L102.004 69.7308L107.052 64.6827C117.483 70.8154 128.34 71.6981 136.619 63.4192C144.696 55.9192 153.454 37.4231 149.415 26.4615L133.192 43.2269C130.885 45.5346 127.388 45.5346 125.081 43.2269L108.31 26.4615C107.763 25.9371 107.328 25.3074 107.03 24.6104C106.733 23.9134 106.58 23.1635 106.58 22.4058C106.58 21.648 106.733 20.8981 107.03 20.2011C107.328 19.5041 107.763 18.8745 108.31 18.35L125.087 1.58462C123.644 1.07692 122.202 0.817308 120.575 0.678846ZM57.1135 72.6154L36.1942 93.5289C33.946 93.0314 31.6487 92.7895 29.3462 92.8077C13.1923 92.8077 0.5 105.5 0.5 121.654C0.5 137.808 13.1923 150.5 29.3462 150.5C45.5 150.5 58.1923 137.808 58.1923 121.654C58.1923 118.694 57.725 115.85 56.9288 113.179L69.1885 100.919L67.3885 98.5769C62.7731 93.9615 62.8077 86.9692 66.8462 82.3481L57.1135 72.6154ZM101.825 98.9404C102.546 98.9404 103.227 99.0789 103.804 99.6615L137.883 133.735C139.037 134.888 139.037 136.723 137.883 137.877C136.729 139.031 134.883 139.031 133.729 137.877L99.6615 103.804C98.5077 102.65 98.5077 100.815 99.6615 99.6615C100.238 99.0846 101.104 98.9404 101.825 98.9404ZM33.3154 106.683L44.3115 117.685L40.3423 132.644L25.3827 136.613L14.3808 125.612L18.35 110.652L33.3154 106.683Z" fill="#EEA1B3"/>
</svg>
