<svg width="302" height="262" viewBox="0 0 302 262" fill="none" xmlns="http://www.w3.org/2000/svg">
<path d="M252.404 12.0179L257.545 18.6581L259.322 29.5843L263.208 26.8527L267.095 32.6378L301.539 0.0146484L252.404 12.0179Z" fill="#EEA1B3"/>
<path opacity="0.3" d="M263.153 26.919L261.399 28.1182L260.155 22L263.153 26.919Z" fill="#EEA1B3"/>
<path opacity="0.3" d="M257.547 18.6581L301.54 0.0146484L260.423 21.3785L259.324 29.5843L257.547 18.6581Z" fill="#BCBABA"/>
<path d="M301.539 0.00341797C301.382 0.133956 301.211 0.24575 301.028 0.336533L299.518 1.19153L293.888 4.23399L275.167 14.0831L260.188 21.8558L260.288 21.5338C262.175 24.9649 263.885 27.7187 265.107 29.6174C265.695 30.528 266.162 31.2608 266.539 31.8382C266.726 32.0854 266.882 32.3537 267.006 32.6377C266.785 32.418 266.588 32.1762 266.417 31.9159C266.051 31.4385 265.529 30.7167 264.885 29.784C263.586 27.9186 261.809 25.1981 259.866 21.7781L259.744 21.5671L259.966 21.445L274.9 13.5946L293.644 3.90088L299.362 1.02497L300.928 0.258807C301.116 0.141045 301.323 0.0547842 301.539 0.00341797Z" fill="#1A2A4D"/>
<path d="M301.538 0.00320156C301.605 0.147552 291.745 4.44475 279.519 9.69688C267.294 14.949 257.312 19.0019 257.312 18.8576C257.312 18.7132 267.105 14.416 279.33 9.1639C291.556 3.91176 301.483 -0.130045 301.538 0.00320156Z" fill="#1A2A4D"/>
<path d="M259.324 29.5842C259.17 28.2495 259.208 26.8998 259.435 25.5757C259.478 24.2359 259.71 22.909 260.123 21.6338C260.276 22.9648 260.239 24.3108 260.012 25.6312C259.975 26.9752 259.743 28.3068 259.324 29.5842Z" fill="#1A2A4D"/>
<path d="M217.094 56.6333C217.094 56.7887 216.527 56.9997 215.75 57.1107C214.973 57.2218 214.351 57.1107 214.34 57.0108C214.329 56.9109 214.929 56.6333 215.672 56.5333C216.416 56.4334 217.06 56.4556 217.094 56.6333Z" fill="#1A2A4D"/>
<path d="M226.987 52.1914C227.076 52.3135 226.166 53.1685 224.855 53.9458C224.098 54.4981 223.211 54.8461 222.279 54.9563C222.213 54.8008 223.279 54.2012 224.556 53.4461C225.294 52.9012 226.115 52.4776 226.987 52.1914Z" fill="#1A2A4D"/>
<path d="M234.149 44.0413C233.961 44.9578 233.54 45.8106 232.927 46.5175C232.05 47.7722 231.117 48.5939 230.995 48.494C231.365 47.6551 231.859 46.8765 232.461 46.1844C233.316 44.974 234.004 43.9636 234.149 44.0413Z" fill="#1A2A4D"/>
<path d="M236.759 33.5815C237.112 34.4547 237.197 35.4135 237.003 36.3353C236.993 37.2778 236.716 38.1981 236.203 38.9891C236.156 38.0801 236.23 37.1689 236.425 36.2798C236.431 35.3705 236.543 34.4649 236.759 33.5815Z" fill="#1A2A4D"/>
<path d="M230.152 26.0752C231.097 25.8823 232.079 26.0613 232.895 26.5749C234.338 27.2967 234.982 28.4848 234.871 28.5403C234.76 28.5958 233.927 27.7297 232.651 27.0857C231.374 26.4417 230.13 26.2529 230.152 26.0752Z" fill="#1A2A4D"/>
<path d="M221.492 31.3717C221.537 30.4132 221.932 29.5045 222.603 28.8178C223.132 28.014 223.952 27.4453 224.89 27.23C224.979 27.3743 223.968 28.0517 223.058 29.1843C222.147 30.3169 221.648 31.4272 221.492 31.3717Z" fill="#1A2A4D"/>
<path d="M223.278 41.6536C222.477 41.124 221.875 40.3426 221.568 39.4329C221.092 38.6107 220.905 37.6533 221.035 36.7124C221.473 37.5094 221.844 38.3414 222.145 39.1997C222.701 40.5655 223.422 41.5315 223.278 41.6536Z" fill="#1A2A4D"/>
<path d="M232.785 46.4507C231.866 46.6525 230.908 46.5791 230.031 46.2397C229.1 46.0817 228.237 45.6485 227.555 44.9961C228.455 45.1255 229.338 45.3564 230.186 45.6845C231.08 45.8335 231.953 46.0908 232.785 46.4507Z" fill="#1A2A4D"/>
<path d="M243.343 44.23C242.666 44.8646 241.836 45.3123 240.933 45.5291C240.087 45.9351 239.147 46.104 238.213 46.0177C239.001 45.5571 239.849 45.2095 240.733 44.985C241.562 44.6069 242.441 44.3525 243.343 44.23Z" fill="#1A2A4D"/>
<path d="M252.205 37.9116C252.316 38.0227 251.45 38.8999 250.273 39.8548C249.624 40.5113 248.845 41.0255 247.986 41.3649C247.886 41.2317 248.752 40.3545 249.918 39.4106C250.57 38.7601 251.349 38.25 252.205 37.9116Z" fill="#1A2A4D"/>
<path d="M257.623 31.7383C257.767 31.8049 257.623 32.4378 257.123 33.0818C256.623 33.7259 256.168 34.1145 256.012 34.0146C255.857 33.9146 256.19 33.3594 256.623 32.7487C257.056 32.138 257.478 31.6717 257.623 31.7383Z" fill="#1A2A4D"/>
<path d="M139.709 261.968C208.37 261.968 264.031 229.832 264.031 190.19C264.031 150.547 208.37 118.411 139.709 118.411C71.0483 118.411 15.3877 150.547 15.3877 190.19C15.3877 229.832 71.0483 261.968 139.709 261.968Z" fill="#F5F5F5"/>
<path d="M162.034 249.702L223.026 214.494C224.362 213.723 224.362 212.471 223.026 211.7L107.551 145.024C106.802 144.643 105.972 144.445 105.132 144.445C104.291 144.445 103.462 144.643 102.712 145.024L41.719 180.231C40.3834 181.002 40.3834 182.254 41.719 183.025L157.194 249.702C157.944 250.082 158.773 250.28 159.614 250.28C160.455 250.28 161.284 250.082 162.034 249.702Z" fill="#E0E0E0"/>
<path d="M68.555 180.678L67.9961 180.354C67.9705 180.344 67.9483 180.327 67.9327 180.304C67.9171 180.282 67.9087 180.255 67.9087 180.228C67.9087 180.2 67.9171 180.174 67.9327 180.151C67.9483 180.129 67.9705 180.112 67.9961 180.102L68.0576 180.069C68.1247 180.033 68.1996 180.014 68.2756 180.014C68.3516 180.014 68.4264 180.033 68.4935 180.069L69.0524 180.387C69.1697 180.46 69.1697 180.572 69.0524 180.639L68.9909 180.678C68.923 180.711 68.8485 180.728 68.7729 180.728C68.6974 180.728 68.6229 180.711 68.555 180.678Z" fill="#455A64"/>
<path d="M69.549 180.102L68.5822 179.543C68.4648 179.476 68.4648 179.364 68.5822 179.292L68.6436 179.258C68.7115 179.225 68.7861 179.208 68.8616 179.208C68.9371 179.208 69.0116 179.225 69.0795 179.258L70.0463 179.817C70.1637 179.884 70.1637 179.996 70.0463 180.069L69.9849 180.102C69.917 180.135 69.8424 180.152 69.7669 180.152C69.6914 180.152 69.6169 180.135 69.549 180.102Z" fill="#455A64"/>
<path d="M70.5434 179.527L69.1742 178.739C69.0513 178.666 69.0513 178.554 69.1742 178.487L69.2357 178.448C69.3036 178.415 69.3781 178.398 69.4537 178.398C69.5292 178.398 69.6037 178.415 69.6716 178.448L71.0408 179.242C71.0665 179.251 71.0886 179.269 71.1042 179.291C71.1199 179.313 71.1282 179.34 71.1282 179.368C71.1282 179.395 71.1199 179.422 71.1042 179.444C71.0886 179.467 71.0665 179.484 71.0408 179.493L70.9793 179.527C70.9122 179.563 70.8374 179.581 70.7614 179.581C70.6854 179.581 70.6105 179.563 70.5434 179.527Z" fill="#455A64"/>
<path d="M71.5357 178.957L69.1718 177.588C69.0489 177.521 69.0489 177.409 69.1718 177.336L69.2333 177.303C69.3008 177.268 69.3755 177.25 69.4512 177.25C69.527 177.25 69.6017 177.268 69.6692 177.303L72.0275 178.666C72.1505 178.739 72.1505 178.851 72.0275 178.918L71.9716 178.957C71.9037 178.99 71.8292 179.007 71.7537 179.007C71.6782 179.007 71.6036 178.99 71.5357 178.957Z" fill="#455A64"/>
<path d="M74.3895 177.493C74.3519 177.497 74.314 177.487 74.2834 177.465L73.9369 177.263L72.8192 177.906C72.7952 177.922 72.767 177.931 72.7381 177.931C72.7093 177.931 72.6811 177.922 72.6571 177.906L72.5286 177.833L72.4727 177.794V177.738L72.4168 176.336C72.4131 176.315 72.4131 176.295 72.4168 176.274C72.4353 176.253 72.4581 176.236 72.4839 176.224L72.6348 176.135C72.6743 176.111 72.7179 176.096 72.7633 176.09C72.8047 176.09 72.8452 176.102 72.8807 176.123L74.0934 176.822L74.3393 176.682C74.376 176.658 74.4182 176.642 74.4622 176.638C74.502 176.637 74.5408 176.649 74.574 176.671L74.6578 176.721C74.6969 176.721 74.7137 176.76 74.7081 176.783C74.7025 176.805 74.7081 176.822 74.6354 176.85L74.3895 176.995L74.736 177.196C74.7751 177.196 74.7919 177.235 74.7863 177.258C74.7807 177.28 74.7584 177.303 74.7081 177.33L74.5181 177.437C74.4819 177.468 74.4371 177.487 74.3895 177.493ZM73.7133 177.051L72.8471 176.554L72.903 177.52L73.7133 177.051Z" fill="#455A64"/>
<path d="M75.5017 176.609C75.1104 176.628 74.7222 176.533 74.384 176.336C74.0375 176.134 73.881 175.916 73.9089 175.682C73.9369 175.447 74.1548 175.218 74.5516 174.989C74.7082 174.896 74.8728 174.817 75.0434 174.754C75.1934 174.696 75.3488 174.653 75.5072 174.625C75.5306 174.616 75.5565 174.616 75.5799 174.625C75.5823 174.635 75.5823 174.644 75.5799 174.653L75.6302 174.799C75.6357 174.805 75.6387 174.813 75.6387 174.821C75.6387 174.829 75.6357 174.837 75.6302 174.843H75.5687C75.328 174.891 75.0974 174.98 74.8869 175.106C74.6187 175.257 74.4734 175.419 74.451 175.581C74.4287 175.743 74.5516 175.905 74.8199 176.056C75.065 176.206 75.3485 176.282 75.6358 176.274C75.9201 176.264 76.197 176.181 76.4405 176.034C76.5277 175.983 76.6117 175.927 76.692 175.866C76.7557 175.821 76.8122 175.766 76.8597 175.704L76.3008 175.38L75.837 175.648C75.7974 175.671 75.7538 175.686 75.7084 175.693C75.6689 175.691 75.6304 175.68 75.5967 175.659L75.5184 175.615C75.4812 175.592 75.4644 175.57 75.4681 175.548C75.4681 175.548 75.4961 175.508 75.5408 175.48L76.284 175.05C76.3281 175.024 76.378 175.008 76.4293 175.005C76.475 175.006 76.5196 175.02 76.5579 175.045L77.3626 175.508C77.3853 175.517 77.4047 175.533 77.4185 175.553C77.4185 175.553 77.4185 175.581 77.4185 175.603C77.2429 175.866 76.9996 176.077 76.7144 176.213C76.349 176.443 75.9324 176.579 75.5017 176.609Z" fill="#455A64"/>
<path d="M90.971 165.751L92.2843 166.511C92.3398 166.538 92.401 166.553 92.4631 166.553C92.5251 166.553 92.5863 166.538 92.6419 166.511L93.9664 165.751C94.0614 165.689 94.0614 165.6 93.9664 165.544L92.6475 164.784C92.5928 164.754 92.5312 164.738 92.4687 164.738C92.4061 164.738 92.3446 164.754 92.2898 164.784L90.971 165.544C90.8704 165.6 90.8704 165.689 90.971 165.751Z" fill="#455A64"/>
<path d="M91.8803 164.717C91.7064 164.633 91.5149 164.59 91.3215 164.594C91.128 164.589 90.9361 164.631 90.7626 164.717C90.5056 164.868 90.5056 165.097 90.7626 165.242L91.2153 165.505L91.545 165.438L91.0923 165.181C91.0522 165.166 91.0176 165.138 90.9932 165.103C90.9688 165.068 90.9557 165.026 90.9557 164.983C90.9557 164.94 90.9688 164.898 90.9932 164.862C91.0176 164.827 91.0522 164.8 91.0923 164.784C91.1645 164.745 91.245 164.724 91.3271 164.723C91.4078 164.72 91.4875 164.742 91.5562 164.784L92.0089 165.047L92.3442 164.98L91.8803 164.717Z" fill="#455A64"/>
<path d="M115.861 150.852C115.64 150.845 115.421 150.895 115.224 150.998L111.871 152.926C111.581 153.088 111.581 153.35 111.871 153.518L113.09 154.217C113.286 154.319 113.505 154.369 113.727 154.362C113.83 154.361 113.933 154.352 114.034 154.334C114.148 154.315 114.258 154.276 114.358 154.217L117.711 152.294C117.996 152.126 117.996 151.864 117.711 151.702L116.493 150.998C116.299 150.895 116.081 150.845 115.861 150.852ZM113.738 154.205C113.642 154.204 113.548 154.179 113.464 154.133L112.251 153.429C112.205 153.412 112.164 153.381 112.136 153.341C112.107 153.3 112.092 153.252 112.092 153.202C112.092 153.153 112.107 153.104 112.136 153.064C112.164 153.023 112.205 152.993 112.251 152.976L115.604 151.053C115.658 151.021 115.716 150.998 115.778 150.986H115.878C115.973 150.989 116.065 151.016 116.146 151.065L117.359 151.763C117.406 151.78 117.446 151.811 117.475 151.851C117.503 151.892 117.519 151.94 117.519 151.99C117.519 152.039 117.503 152.087 117.475 152.128C117.446 152.169 117.406 152.199 117.359 152.216L114.006 154.144C113.925 154.192 113.832 154.219 113.738 154.222V154.205Z" fill="#455A64"/>
<path d="M113.832 153.987L113.788 153.959L112.67 153.328C112.636 153.315 112.606 153.292 112.585 153.262C112.564 153.232 112.553 153.196 112.553 153.16C112.553 153.123 112.564 153.088 112.585 153.058C112.606 153.028 112.636 153.005 112.67 152.992L115.676 151.26C115.695 151.247 115.716 151.238 115.738 151.232L115.783 151.26L116.9 151.891C116.933 151.905 116.96 151.928 116.98 151.957C116.999 151.987 117.01 152.021 117.01 152.056C117.01 152.091 116.999 152.126 116.98 152.155C116.96 152.185 116.933 152.207 116.9 152.221L113.894 153.959L113.832 153.987Z" fill="#455A64"/>
<path d="M116.666 150.908C116.782 150.881 116.902 150.878 117.018 150.9C117.135 150.922 117.245 150.969 117.343 151.036L117.566 151.171C117.818 151.31 117.924 151.489 117.806 151.567L117.588 151.701L116.471 151.036L116.666 150.908Z" fill="#455A64"/>
<path d="M97.5682 183.746C98.3898 183.712 99.1927 183.49 99.9153 183.098C101.279 182.31 101.631 181.237 99.4683 179.89C99.3956 180.297 99.2295 180.681 98.9832 181.013C98.7369 181.344 98.4171 181.614 98.0488 181.801C96.1934 182.874 94.081 183.148 92.3765 182.17C90.672 181.192 91.2588 179.739 93.1253 178.666C94.3264 177.981 95.6862 177.623 97.0689 177.628C98.4517 177.633 99.8089 178.001 101.005 178.694C104.163 180.516 103.453 182.444 101.217 183.724C100.048 184.379 98.7446 184.761 97.4061 184.842L97.5682 183.746ZM98.3562 179.309C96.7187 178.599 95.3272 178.7 94.271 179.309C93.3824 179.817 93.2036 180.561 94.1871 181.125C94.6798 181.392 95.2358 181.518 95.7953 181.492C96.3547 181.465 96.8963 181.286 97.3614 180.974C97.6749 180.828 97.9374 180.591 98.1147 180.295C98.2921 179.998 98.3762 179.654 98.3562 179.309Z" fill="#455A64"/>
<path d="M102.27 175.794C102.604 175.592 102.98 175.472 103.369 175.445C103.758 175.418 104.148 175.484 104.506 175.638C105.065 175.973 104.958 176.532 104.243 176.94C103.904 177.147 103.521 177.269 103.125 177.297C102.73 177.326 102.333 177.259 101.968 177.102C101.393 176.772 101.538 176.208 102.27 175.794ZM106.635 178.314C106.968 178.113 107.345 177.994 107.734 177.968C108.123 177.941 108.513 178.008 108.87 178.164C109.429 178.493 109.323 179.052 108.608 179.466C108.269 179.671 107.885 179.793 107.49 179.821C107.094 179.85 106.698 179.783 106.333 179.628C105.763 179.298 105.903 178.728 106.618 178.337L106.635 178.314Z" fill="#455A64"/>
<path d="M107.372 175.268C104.628 173.681 104.628 172.033 106.875 170.731C109.122 169.428 111.994 169.44 114.732 171.021C117.471 172.603 117.527 174.302 115.291 175.604C113.056 176.906 110.122 176.856 107.372 175.268ZM112.855 172.1C110.558 170.775 109.082 170.786 108.026 171.396C106.97 172.005 106.948 172.86 109.244 174.19C111.541 175.52 113.117 175.542 114.157 174.944C115.196 174.346 115.157 173.43 112.855 172.1Z" fill="#455A64"/>
<path d="M116.114 170.222C113.364 168.635 113.364 166.986 115.611 165.69C117.857 164.393 120.735 164.399 123.468 165.975C126.201 167.551 126.296 169.261 124.027 170.557C121.758 171.854 118.858 171.809 116.114 170.222ZM121.596 167.059C119.294 165.729 117.818 165.74 116.762 166.349C115.706 166.958 115.683 167.813 117.986 169.144C120.288 170.474 121.859 170.49 122.892 169.892C123.926 169.294 123.893 168.384 121.596 167.059Z" fill="#455A64"/>
<path d="M102.026 196.013L145.996 170.63C146.516 170.367 147.09 170.23 147.673 170.23C148.255 170.23 148.829 170.367 149.349 170.63L160.588 177.118C161.515 177.677 161.515 178.521 160.588 179.058L116.634 204.44C116.114 204.703 115.54 204.84 114.958 204.84C114.375 204.84 113.801 204.703 113.281 204.44L102.026 197.952C101.098 197.416 101.098 196.55 102.026 196.013Z" fill="#EEA1B3"/>
<path d="M106.741 196.873L114.61 201.411C114.834 201.527 115.082 201.587 115.334 201.587C115.585 201.587 115.834 201.527 116.057 201.411L127.653 194.705C128.056 194.47 128.056 194.096 127.653 193.867L119.785 189.323C119.56 189.21 119.312 189.151 119.061 189.151C118.81 189.151 118.562 189.21 118.337 189.323L106.741 196.029C106.651 196.057 106.572 196.113 106.516 196.189C106.46 196.265 106.43 196.357 106.43 196.451C106.43 196.546 106.46 196.638 106.516 196.714C106.572 196.79 106.651 196.846 106.741 196.873Z" fill="#FAFAFA"/>
<path d="M118.611 194.688L127.939 194.32L118.645 194.18L119.019 189.167L117.494 195.353L106.434 196.449L115.465 196.024L115.242 201.585L115.935 196.002L118.522 195.879L118.611 194.688Z" fill="#EEA1B3"/>
<path d="M123.507 186.954L134.868 180.421C135.151 180.277 135.465 180.203 135.782 180.203C136.099 180.203 136.412 180.277 136.696 180.421C137.193 180.706 137.176 181.175 136.657 181.477L125.295 188.01C125.012 188.153 124.699 188.228 124.381 188.228C124.064 188.228 123.751 188.153 123.468 188.01C122.976 187.725 122.998 187.278 123.507 186.954Z" fill="#FAFAFA"/>
<path d="M127.008 188.954L150.033 175.648C150.316 175.505 150.629 175.43 150.947 175.43C151.264 175.43 151.577 175.505 151.86 175.648C152.358 175.933 152.341 176.408 151.821 176.704L128.797 190.011C128.512 190.154 128.199 190.228 127.88 190.228C127.562 190.228 127.248 190.154 126.964 190.011C126.472 189.742 126.489 189.273 127.008 188.954Z" fill="#FAFAFA"/>
<path d="M130.503 190.989L153.533 177.682C153.816 177.539 154.129 177.464 154.447 177.464C154.764 177.464 155.077 177.539 155.36 177.682C155.852 177.967 155.835 178.442 155.321 178.739L132.291 192.045C132.008 192.188 131.695 192.263 131.377 192.263C131.06 192.263 130.747 192.188 130.464 192.045C129.966 191.749 129.989 191.29 130.503 190.989Z" fill="#FAFAFA"/>
<path d="M96.9883 104.311L171.528 61.2798L174.512 63.001C174.919 63.2687 175.257 63.6281 175.5 64.0503C175.742 64.4725 175.882 64.9458 175.909 65.432V120.417C175.883 120.904 175.743 121.377 175.5 121.799C175.257 122.221 174.919 122.581 174.512 122.848L102.772 164.259C102.338 164.475 101.86 164.587 101.375 164.587C100.89 164.587 100.412 164.475 99.9781 164.259L98.4022 163.348C97.9949 163.08 97.656 162.721 97.4124 162.299C97.1689 161.877 97.0274 161.403 96.9995 160.917L96.9883 104.311Z" fill="#EEA1B3"/>
<path opacity="0.05" d="M96.9883 104.311L171.528 61.2798L174.512 63.001C174.919 63.2687 175.257 63.6281 175.5 64.0503C175.742 64.4725 175.882 64.9458 175.909 65.432V120.417C175.883 120.904 175.743 121.377 175.5 121.799C175.257 122.221 174.919 122.581 174.512 122.848L102.772 164.259C102.338 164.475 101.86 164.587 101.375 164.587C100.89 164.587 100.412 164.475 99.9781 164.259L98.4022 163.348C97.9949 163.08 97.656 162.721 97.4124 162.299C97.1689 161.877 97.0274 161.403 96.9995 160.917L96.9883 104.311Z" fill="black"/>
<path d="M171.114 56.4401L171.421 56.2725L170.265 55.6019C170.164 55.5454 170.059 55.4969 169.952 55.4566L137.147 43.3016C136.697 43.1507 136.211 43.1469 135.759 43.2905C135.307 43.4342 134.912 43.718 134.632 44.1008L97.9327 97.6888C97.363 98.6128 97.038 99.6668 96.9883 100.751V104.311L98.106 104.971L171.511 61.2742V57.7143C171.5 57.2608 171.363 56.8194 171.114 56.4401Z" fill="#EEA1B3"/>
<path opacity="0.1" d="M136.145 44.3635C135.999 44.4779 135.871 44.6135 135.765 44.7659L99.0656 98.3539C98.7641 98.8279 98.5344 99.3439 98.3838 99.8852L97.2661 99.2257C97.3488 98.95 97.4477 98.6794 97.5623 98.4154C97.6126 98.3036 97.6629 98.1974 97.7188 98.0913V98.041C97.7769 97.9288 97.8422 97.8205 97.9144 97.7168L134.625 44.1065C134.68 44.0271 134.742 43.9523 134.81 43.8829L135.005 43.7041L136.145 44.3635Z" fill="black"/>
<path opacity="0.35" d="M171.405 56.2726C171.306 56.2123 171.201 56.1617 171.092 56.1217L138.282 43.9612C137.922 43.8412 137.536 43.8152 137.163 43.8856C136.789 43.956 136.44 44.1205 136.147 44.3635L135.03 43.7041C135.324 43.4633 135.675 43.3004 136.049 43.2301C136.423 43.1598 136.808 43.1844 137.17 43.3017L169.975 55.4567C170.082 55.4967 170.185 55.5473 170.282 55.6076L171.405 56.2726Z" fill="white"/>
<path d="M134.817 43.8829C134.877 43.8176 134.943 43.7578 135.013 43.7041C134.941 43.7563 134.876 43.8163 134.817 43.8829Z" fill="#EEA1B3"/>
<path opacity="0.2" d="M97.7095 98.0681C97.7095 98.0681 97.7095 98.0294 97.7095 98.0128C97.7095 97.9963 97.7205 98.0515 97.7095 98.0681Z" fill="black"/>
<path opacity="0.2" d="M134.632 44.1013C134.686 44.0223 134.747 43.9493 134.816 43.8833C134.746 43.9478 134.684 44.021 134.632 44.1013Z" fill="black"/>
<path d="M135.767 44.7714L99.0731 98.365C98.4984 99.2852 98.1712 100.338 98.123 101.422V104.982L172.662 61.9504V58.3738C172.634 57.892 172.473 57.4275 172.195 57.0325C171.918 56.6376 171.536 56.328 171.092 56.1384L138.288 43.9834C137.838 43.8345 137.353 43.8304 136.9 43.9718C136.448 44.1131 136.052 44.3928 135.767 44.7714Z" fill="#EEA1B3"/>
<path d="M106.236 156.77L103.844 155.39C103.647 155.239 103.492 155.04 103.394 154.812C103.296 154.584 103.258 154.335 103.285 154.088V79.5599C103.317 78.8033 103.548 78.0686 103.956 77.4307L106.387 78.8278C105.976 79.4683 105.744 80.2075 105.716 80.9682V155.468C105.687 155.712 105.719 155.958 105.809 156.186C105.9 156.413 106.047 156.614 106.236 156.77Z" fill="#E0E0E0"/>
<path d="M107.729 77.4085L167.604 42.8493C168.721 42.1898 169.655 42.7207 169.655 44.034V118.54C169.617 119.253 169.412 119.947 169.056 120.565C168.699 121.184 168.202 121.71 167.604 122.1L107.729 156.653C106.611 157.307 105.678 156.776 105.678 155.463V80.9683C105.716 80.2557 105.922 79.5621 106.278 78.9437C106.635 78.3253 107.132 77.7994 107.729 77.4085Z" fill="#F0F0F0"/>
<path d="M166.626 41.3009L168.973 42.6645C168.746 42.5797 168.501 42.5532 168.261 42.5874C168.021 42.6216 167.793 42.7153 167.599 42.86L107.729 77.4137C107.155 77.7599 106.678 78.2464 106.343 78.8275L103.912 77.4304C104.249 76.8502 104.723 76.361 105.292 76.0054L165.168 41.4182C165.375 41.2651 165.622 41.1721 165.879 41.1495C166.136 41.1268 166.395 41.1753 166.626 41.2897V41.3009Z" fill="#FAFAFA"/>
<path d="M112.401 81.3091L162.189 52.5619C162.86 52.1763 163.402 52.4501 163.402 53.1766C163.371 53.5828 163.246 53.9761 163.035 54.3246C162.824 54.6732 162.535 54.9672 162.189 55.1829L112.401 83.9301C111.731 84.3157 111.188 84.0418 111.188 83.3209C111.218 82.9138 111.343 82.5194 111.554 82.1698C111.765 81.8202 112.055 81.5253 112.401 81.3091Z" fill="#E0E0E0"/>
<path d="M112.401 86.5342L162.189 57.787C162.86 57.4014 163.402 57.6752 163.402 58.4017C163.371 58.8079 163.246 59.2012 163.035 59.5497C162.824 59.8983 162.535 60.1923 162.189 60.408L112.401 89.1552C111.731 89.5408 111.188 89.2669 111.188 88.546C111.218 88.1389 111.343 87.7445 111.554 87.3949C111.765 87.0453 112.055 86.7504 112.401 86.5342Z" fill="#E0E0E0"/>
<path d="M112.401 91.7594L162.189 63.0122C162.86 62.6266 163.402 62.9005 163.402 63.6214C163.372 64.0285 163.247 64.4229 163.036 64.7725C162.826 65.1221 162.535 65.417 162.189 65.6332L112.401 94.3804C111.731 94.766 111.188 94.4922 111.188 93.7713C111.218 93.3641 111.343 92.9697 111.554 92.6201C111.765 92.2705 112.055 91.9756 112.401 91.7594Z" fill="#E0E0E0"/>
<path d="M112.401 96.9848L162.189 68.2432C162.86 67.8576 163.402 68.1314 163.402 68.8523C163.372 69.2595 163.247 69.6539 163.036 70.0035C162.826 70.3531 162.535 70.648 162.189 70.8642L112.401 99.6114C111.731 99.997 111.188 99.7231 111.188 98.9966C111.218 98.5895 111.343 98.1951 111.554 97.8455C111.765 97.4959 112.055 97.201 112.401 96.9848Z" fill="#E0E0E0"/>
<path d="M112.401 102.21L162.189 73.4629C162.86 73.0773 163.402 73.3512 163.402 74.0721C163.372 74.4792 163.247 74.8736 163.036 75.2232C162.826 75.5728 162.535 75.8677 162.189 76.0839L112.401 104.831C111.731 105.217 111.188 104.943 111.188 104.216C111.219 103.81 111.344 103.417 111.555 103.068C111.766 102.72 112.056 102.426 112.401 102.21Z" fill="#E0E0E0"/>
<path d="M112.401 107.435L162.189 78.688C162.86 78.3024 163.402 78.5762 163.402 79.2972C163.372 79.7043 163.247 80.0987 163.036 80.4483C162.826 80.7979 162.535 81.0928 162.189 81.309L112.401 110.056C111.731 110.442 111.188 110.168 111.188 109.441C111.219 109.035 111.344 108.642 111.555 108.293C111.766 107.945 112.056 107.651 112.401 107.435Z" fill="#E0E0E0"/>
<path d="M112.401 112.661L162.189 83.8911C162.86 83.5055 163.402 83.7794 163.402 84.5003C163.372 84.9074 163.247 85.3018 163.036 85.6514C162.826 86.001 162.535 86.2959 162.189 86.5121L112.401 115.259C111.731 115.645 111.188 115.371 111.188 114.645C111.222 114.242 111.349 113.854 111.56 113.509C111.771 113.165 112.059 112.874 112.401 112.661Z" fill="#E0E0E0"/>
<path d="M112.401 117.886L162.189 89.1387C162.86 88.7475 163.402 89.027 163.402 89.7479C163.372 90.155 163.247 90.5494 163.036 90.899C162.826 91.2486 162.535 91.5435 162.189 91.7597L112.401 120.507C111.731 120.893 111.188 120.619 111.188 119.892C111.219 119.486 111.344 119.093 111.555 118.744C111.766 118.396 112.056 118.102 112.401 117.886Z" fill="#E0E0E0"/>
<path d="M174.02 121.144C173.997 121.184 173.971 121.221 173.941 121.256L142.881 107.48C141.701 106.958 140.373 106.88 139.141 107.26C137.909 107.64 136.855 108.453 136.174 109.548L102.968 162.829L101.738 163.538C101.601 163.634 101.443 163.694 101.277 163.712C101.111 163.731 100.943 163.708 100.788 163.645L134.939 108.844C135.622 107.75 136.675 106.939 137.906 106.558C139.138 106.178 140.465 106.253 141.646 106.771L174.02 121.144Z" fill="#EEA1B3"/>
<path opacity="0.4" d="M133.106 114.393L133.184 114.326L102.956 162.834L101.727 163.544C101.589 163.638 101.431 163.697 101.265 163.715C101.099 163.734 100.932 163.711 100.777 163.65L131.888 113.678L133.106 114.393Z" fill="white"/>
<path opacity="0.4" d="M174.02 121.149C173.998 121.189 173.971 121.226 173.942 121.261L142.875 107.48C141.696 106.958 140.368 106.88 139.135 107.26C137.903 107.64 136.85 108.452 136.169 109.547L134.939 108.832C135.624 107.742 136.679 106.934 137.91 106.556C139.141 106.179 140.467 106.256 141.646 106.776L174.02 121.149Z" fill="white"/>
<path d="M175.886 65.0743C175.819 64.672 175.607 64.5602 175.328 64.7502C175.189 64.8533 175.069 64.9778 174.97 65.119L174.813 65.337L144.183 108.011L139.606 114.387C139.311 114.759 138.921 115.043 138.477 115.209C138.033 115.376 137.552 115.418 137.086 115.332L133.134 114.393L102.957 107.217C102.754 107.176 102.545 107.176 102.342 107.217C102.263 107.233 102.186 107.257 102.113 107.29L102.945 106.809L132.006 113.722L135.968 114.627C136.434 114.715 136.916 114.673 137.36 114.507C137.804 114.34 138.194 114.056 138.488 113.683L143.065 107.312L173.869 64.4205C173.963 64.293 174.081 64.1848 174.215 64.1019L171.567 62.5763L172.684 61.9336L174.528 62.9954C174.882 63.2338 175.184 63.5406 175.418 63.8976C175.651 64.2546 175.81 64.6547 175.886 65.0743Z" fill="#EEA1B3"/>
<path opacity="0.4" d="M144.184 108.011L139.607 114.387C139.313 114.759 138.922 115.043 138.478 115.21C138.034 115.376 137.553 115.418 137.087 115.332L133.136 114.393L133.214 114.326L133.404 114.024L135.991 114.639C136.458 114.727 136.939 114.685 137.383 114.518C137.828 114.352 138.218 114.067 138.512 113.694L143.044 107.391L144.184 108.011Z" fill="white"/>
<path opacity="0.1" d="M174.506 62.9954L172.662 61.9336L171.544 62.5763L174.21 64.1131C174.075 64.1964 173.958 64.3045 173.863 64.4316L143.065 107.323L143.021 107.385L144.138 108.005L174.808 65.337L174.964 65.119C175.063 64.9778 175.184 64.8533 175.322 64.7502C175.596 64.5602 175.808 64.672 175.881 65.0743C175.803 64.6534 175.641 64.2525 175.404 63.8954C175.168 63.5382 174.863 63.2322 174.506 62.9954Z" fill="black"/>
<path d="M103.56 108.112L96.9883 104.312V160.917C97.0163 161.404 97.1577 161.877 97.4013 162.299C97.6448 162.721 97.9838 163.081 98.391 163.348L99.9669 164.259C100.401 164.475 100.879 164.588 101.364 164.588C101.849 164.588 102.327 164.475 102.761 164.259L103.549 163.801L103.56 108.112Z" fill="#EEA1B3"/>
<path opacity="0.15" d="M103.56 108.112L96.9883 104.312V160.917C97.0163 161.404 97.1577 161.877 97.4013 162.299C97.6448 162.721 97.9838 163.081 98.391 163.348L99.9669 164.259C100.401 164.475 100.879 164.588 101.364 164.588C101.849 164.588 102.327 164.475 102.761 164.259L103.549 163.801L103.56 108.112Z" fill="black"/>
<path d="M174.813 65.3374V119.725C174.799 120.228 174.648 120.719 174.377 121.144C174.172 121.505 173.892 121.817 173.556 122.061L173.506 122.094L173.411 122.156L101.677 163.566C101.591 163.619 101.499 163.662 101.403 163.695C101.397 163.611 101.397 163.527 101.403 163.443V108.481C101.39 108.284 101.426 108.087 101.507 107.907C101.587 107.726 101.71 107.569 101.865 107.446C102.02 107.324 102.203 107.242 102.397 107.206C102.591 107.17 102.79 107.182 102.979 107.24L133.157 114.415L137.108 115.354C137.574 115.441 138.055 115.399 138.499 115.232C138.943 115.066 139.333 114.781 139.628 114.41L144.183 108.011L174.813 65.3374Z" fill="#455A64"/>
<path d="M175.914 65.4489V120.434C175.897 120.937 175.746 121.427 175.478 121.853C175.27 122.213 174.99 122.527 174.657 122.776L174.601 122.804C174.572 122.826 174.543 122.846 174.511 122.865L102.778 164.253C102.641 164.351 102.481 164.412 102.314 164.432C102.147 164.451 101.978 164.428 101.822 164.365C101.703 164.296 101.603 164.198 101.53 164.082C101.457 163.965 101.413 163.832 101.403 163.694C101.397 163.611 101.397 163.527 101.403 163.443V108.48C101.39 108.283 101.426 108.086 101.507 107.906C101.587 107.726 101.71 107.568 101.865 107.446C102.02 107.324 102.203 107.242 102.397 107.206C102.591 107.17 102.79 107.181 102.979 107.24L133.157 114.415L137.108 115.354C137.574 115.441 138.055 115.398 138.499 115.232C138.943 115.065 139.333 114.781 139.628 114.41L144.183 108.011L174.836 65.3371L174.992 65.1192C175.478 64.3983 175.914 64.5324 175.914 65.4489Z" fill="#EEA1B3"/>
<path d="M174.511 122.843L174.601 122.781L174.657 122.753C174.99 122.505 175.27 122.191 175.478 121.831C175.739 121.412 175.887 120.933 175.908 120.44L144.183 108.011L165.419 128.09L174.511 122.843Z" fill="#EEA1B3"/>
<path opacity="0.2" d="M174.511 122.843L174.601 122.781L174.657 122.753C174.99 122.505 175.27 122.191 175.478 121.831C175.739 121.412 175.887 120.933 175.908 120.44L144.183 108.011L165.419 128.09L174.511 122.843Z" fill="black"/>
<path d="M101.373 163.449C101.352 163.628 101.382 163.809 101.459 163.972C101.536 164.135 101.657 164.273 101.809 164.371C101.965 164.434 102.134 164.457 102.301 164.437C102.468 164.418 102.627 164.356 102.765 164.259L127.46 150.003L133.099 114.398L101.373 162.532V163.449Z" fill="#EEA1B3"/>
<path opacity="0.15" d="M136.154 109.542L101.807 164.365C101.656 164.267 101.535 164.129 101.457 163.966C101.38 163.803 101.351 163.622 101.371 163.443V162.532L131.677 114.069L131.912 113.694L134.924 108.866L136.154 109.542Z" fill="black"/>
<path d="M175.478 121.831C175.269 122.191 174.99 122.505 174.656 122.753L174.6 122.781L102.777 164.253C102.64 164.351 102.48 164.412 102.313 164.432C102.146 164.451 101.977 164.428 101.821 164.365L136.168 109.525C136.857 108.425 137.919 107.61 139.16 107.229C140.401 106.848 141.737 106.927 142.925 107.452L175.478 121.831Z" fill="#EEA1B3"/>
<path d="M175.478 121.837C175.273 122.197 174.993 122.51 174.657 122.753L174.606 122.787L102.772 164.259C102.634 164.354 102.474 164.414 102.308 164.433C102.141 164.451 101.972 164.428 101.816 164.365L102.772 162.845L173.36 122.082L173.416 122.049C173.713 121.831 173.966 121.558 174.159 121.244L175.478 121.837Z" fill="#EEA1B3"/>
<path opacity="0.15" d="M97.2397 99.2256L98.3574 99.885C98.199 100.381 98.1106 100.896 98.0947 101.416V104.971L96.9771 104.311V100.751C96.9934 100.233 97.0818 99.7195 97.2397 99.2256Z" fill="black"/>
<path d="M103.991 107.038L102.94 106.787L102.108 107.268L100.956 106.603L98.123 104.971L99.224 104.317L103.991 107.038Z" fill="#EEA1B3"/>
<path opacity="0.1" d="M103.991 107.038L99.2295 104.322L98.1118 104.976L100.945 106.608L102.096 107.273C102.163 107.24 102.235 107.217 102.309 107.206C102.512 107.165 102.721 107.165 102.924 107.206L105.243 107.765L131.676 114.069L131.911 113.694L103.991 107.038Z" fill="black"/>
<path d="M189.168 109.229L183.864 106.155L183.82 106.127C181.506 104.82 178.326 105.01 174.811 107.05C167.736 111.135 161.997 121.071 161.997 129.241C161.997 133.321 163.433 136.188 165.741 137.529L170.575 140.323L171.693 138.429C172.984 138.143 174.224 137.66 175.37 136.998C182.445 132.913 188.184 122.977 188.184 114.806C188.183 113.702 188.048 112.603 187.782 111.532L189.168 109.229Z" fill="#EEA1B3"/>
<path opacity="0.15" d="M162.467 124.944C162.154 126.357 161.991 127.8 161.981 129.247C161.981 133.327 163.417 136.193 165.725 137.535L170.559 140.329L171.677 138.434C172.969 138.148 174.209 137.666 175.354 137.004C176.606 136.271 177.777 135.407 178.847 134.428L162.467 124.944Z" fill="black"/>
<path d="M179.843 109.961C172.768 114.046 167.029 123.983 167.029 132.153C167.029 140.323 172.768 143.637 179.843 139.552C186.918 135.467 192.658 125.531 192.658 117.36C192.658 109.19 186.924 105.876 179.843 109.961Z" fill="#EEA1B3"/>
<path d="M184.907 121.333V118.193C184.907 114.611 182.727 112.962 180.045 114.516C177.357 116.069 175.177 120.227 175.177 123.809V126.603C175.118 128.542 174.554 130.432 173.54 132.086C173.29 132.524 173.154 133.018 173.143 133.522C173.143 134.422 173.702 134.841 174.367 134.45L185.728 127.889C186.101 127.621 186.406 127.27 186.618 126.863C186.831 126.457 186.945 126.006 186.952 125.547C186.97 125.372 186.946 125.195 186.884 125.03C186.822 124.866 186.723 124.717 186.595 124.597C185.566 124.161 184.907 123.01 184.907 121.333Z" fill="white"/>
<path d="M182.373 130.834C182.373 132.555 181.328 134.55 180.043 135.305C178.758 136.059 177.707 135.26 177.707 133.544L182.373 130.834Z" fill="white"/>
</svg>
