<svg width="90" height="90" viewBox="0 0 90 90" fill="none" xmlns="http://www.w3.org/2000/svg">
<g clip-path="url(#clip0_2128_3221)">
<path d="M-2 83V69.875C-2 67.2188 -1.33417 64.7781 -0.00250053 62.5531C1.32917 60.3281 3.17 58.6281 5.52 57.4531C10.22 55.1094 15.097 53.3125 20.1511 52.0625C25.2052 50.8125 30.3548 50.1875 35.6 50.1875C37.5583 50.1875 39.5167 50.325 41.475 50.6C43.4333 50.875 45.3917 51.2062 47.35 51.5938V58.9766C43.825 60.6953 40.9862 62.9609 38.8336 65.7734C36.681 68.5859 35.6031 72.2578 35.6 76.7891V83H-2ZM45 83V76.4375C45 74.5625 45.4904 72.825 46.4711 71.225C47.4518 69.625 48.8415 68.4719 50.64 67.7656C53.46 66.5938 56.3787 65.7156 59.3961 65.1312C62.4135 64.5469 65.4481 64.2531 68.5 64.25C71.5519 64.2469 74.5881 64.5406 77.6086 65.1312C80.6291 65.7219 83.5462 66.6 86.36 67.7656C88.1617 68.4688 89.5528 69.6219 90.5336 71.225C91.5143 72.8281 92.0031 74.5656 92 76.4375V83H45ZM68.5 59.5625C65.21 59.5625 62.4292 58.4297 60.1575 56.1641C57.8858 53.8984 56.75 51.125 56.75 47.8438C56.75 44.5625 57.8858 41.7891 60.1575 39.5234C62.4292 37.2578 65.21 36.125 68.5 36.125C71.79 36.125 74.5708 37.2578 76.8425 39.5234C79.1142 41.7891 80.25 44.5625 80.25 47.8438C80.25 51.125 79.1142 53.8984 76.8425 56.1641C74.5708 58.4297 71.79 59.5625 68.5 59.5625ZM35.6 45.5C30.43 45.5 26.0042 43.6641 22.3225 39.9922C18.6408 36.3203 16.8 31.9062 16.8 26.75C16.8 21.5938 18.6408 17.1797 22.3225 13.5078C26.0042 9.83594 30.43 8 35.6 8C40.77 8 45.1958 9.83594 48.8775 13.5078C52.5592 17.1797 54.4 21.5938 54.4 26.75C54.4 31.9062 52.5592 36.3203 48.8775 39.9922C45.1958 43.6641 40.77 45.5 35.6 45.5Z" fill="#595959"/>
</g>
<defs>
<clipPath id="clip0_2128_3221">
<rect width="90" height="90" fill="white"/>
</clipPath>
</defs>
</svg>
