<svg width="302" height="262" viewBox="0 0 302 262" fill="none" xmlns="http://www.w3.org/2000/svg">
<path d="M252.404 12.0177L257.545 18.6578L259.322 29.584L263.208 26.8525L267.095 32.6376L301.539 0.0144043L252.404 12.0177Z" fill="#EEA1B3"/>
<path opacity="0.3" d="M263.154 26.9188L261.4 28.118L260.156 21.9998L263.154 26.9188Z" fill="#EEA1B3"/>
<path opacity="0.3" d="M257.547 18.6578L301.54 0.0144043L260.423 21.3783L259.324 29.584L257.547 18.6578Z" fill="#BCBABA"/>
<path d="M301.539 0.00341797C301.382 0.133956 301.211 0.24575 301.028 0.336533L299.518 1.19153L293.889 4.23399L275.167 14.0831L260.188 21.8558L260.288 21.5338C262.176 24.9649 263.886 27.7187 265.107 29.6174C265.696 30.528 266.162 31.2608 266.54 31.8382C266.726 32.0854 266.883 32.3537 267.006 32.6377C266.786 32.418 266.588 32.1762 266.418 31.9159C266.051 31.4385 265.529 30.7167 264.885 29.784C263.586 27.9186 261.809 25.1981 259.866 21.7781L259.744 21.5671L259.966 21.445L274.901 13.5946L293.644 3.90088L299.363 1.02497L300.928 0.258807C301.117 0.141045 301.323 0.0547842 301.539 0.00341797Z" fill="#1A2A4D"/>
<path d="M301.539 0.00320156C301.606 0.147552 291.746 4.44475 279.52 9.69688C267.295 14.949 257.312 19.0019 257.312 18.8576C257.312 18.7132 267.106 14.416 279.331 9.1639C291.557 3.91176 301.484 -0.130045 301.539 0.00320156Z" fill="#1A2A4D"/>
<path d="M259.323 29.5839C259.17 28.2492 259.207 26.8995 259.434 25.5754C259.478 24.2357 259.71 22.9088 260.123 21.6335C260.276 22.9645 260.238 24.3105 260.011 25.6309C259.975 26.975 259.743 28.3066 259.323 29.5839Z" fill="#1A2A4D"/>
<path d="M217.094 56.633C217.094 56.7885 216.527 56.9995 215.75 57.1105C214.973 57.2215 214.351 57.1105 214.34 57.0106C214.329 56.9106 214.929 56.633 215.672 56.5331C216.416 56.4332 217.06 56.4554 217.094 56.633Z" fill="#1A2A4D"/>
<path d="M226.988 52.1914C227.077 52.3135 226.167 53.1685 224.856 53.9458C224.099 54.4981 223.211 54.8461 222.28 54.9563C222.214 54.8008 223.28 54.2012 224.557 53.4461C225.295 52.9012 226.116 52.4776 226.988 52.1914Z" fill="#1A2A4D"/>
<path d="M234.148 44.0413C233.96 44.9578 233.539 45.8106 232.926 46.5175C232.049 47.7722 231.116 48.5939 230.994 48.494C231.364 47.6551 231.858 46.8765 232.46 46.1844C233.315 44.974 234.003 43.9636 234.148 44.0413Z" fill="#1A2A4D"/>
<path d="M236.759 33.5815C237.112 34.4547 237.197 35.4135 237.003 36.3353C236.993 37.2778 236.716 38.1981 236.203 38.9891C236.156 38.0801 236.23 37.1689 236.425 36.2798C236.431 35.3705 236.543 34.4649 236.759 33.5815Z" fill="#1A2A4D"/>
<path d="M230.153 26.0752C231.097 25.8823 232.08 26.0613 232.895 26.5749C234.339 27.2967 234.983 28.4848 234.872 28.5403C234.761 28.5958 233.928 27.7297 232.651 27.0857C231.374 26.4417 230.13 26.2529 230.153 26.0752Z" fill="#1A2A4D"/>
<path d="M221.492 31.3715C221.537 30.413 221.932 29.5043 222.603 28.8176C223.132 28.0138 223.952 27.4451 224.89 27.2297C224.979 27.3741 223.968 28.0514 223.058 29.184C222.147 30.3166 221.648 31.427 221.492 31.3715Z" fill="#1A2A4D"/>
<path d="M223.277 41.6536C222.476 41.124 221.875 40.3426 221.567 39.4329C221.092 38.6107 220.904 37.6533 221.034 36.7124C221.473 37.5094 221.844 38.3414 222.145 39.1997C222.7 40.5655 223.422 41.5315 223.277 41.6536Z" fill="#1A2A4D"/>
<path d="M232.785 46.4507C231.866 46.6525 230.908 46.5791 230.031 46.2397C229.1 46.0817 228.237 45.6485 227.555 44.9961C228.455 45.1255 229.338 45.3564 230.186 45.6845C231.08 45.8335 231.953 46.0908 232.785 46.4507Z" fill="#1A2A4D"/>
<path d="M243.343 44.23C242.666 44.8646 241.836 45.3123 240.933 45.5291C240.087 45.9351 239.147 46.104 238.213 46.0177C239.001 45.5571 239.849 45.2095 240.733 44.985C241.562 44.6069 242.441 44.3525 243.343 44.23Z" fill="#1A2A4D"/>
<path d="M252.206 37.9116C252.317 38.0227 251.451 38.8999 250.274 39.8548C249.624 40.5113 248.845 41.0255 247.986 41.3649C247.886 41.2317 248.753 40.3545 249.918 39.4106C250.571 38.7601 251.349 38.25 252.206 37.9116Z" fill="#1A2A4D"/>
<path d="M257.622 31.738C257.766 31.8047 257.622 32.4376 257.122 33.0816C256.622 33.7256 256.167 34.1143 256.011 34.0143C255.856 33.9144 256.189 33.3592 256.622 32.7485C257.055 32.1378 257.477 31.6714 257.622 31.738Z" fill="#1A2A4D"/>
<path d="M139.708 261.968C208.369 261.968 264.03 229.832 264.03 190.19C264.03 150.548 208.369 118.411 139.708 118.411C71.0473 118.411 15.3867 150.548 15.3867 190.19C15.3867 229.832 71.0473 261.968 139.708 261.968Z" fill="#F5F5F5"/>
<path d="M162.033 249.702L223.026 214.494C224.361 213.723 224.361 212.471 223.026 211.7L107.551 145.024C106.801 144.643 105.972 144.445 105.131 144.445C104.29 144.445 103.461 144.643 102.711 145.024L41.7185 180.231C40.3829 181.002 40.3829 182.254 41.7185 183.025L157.193 249.702C157.943 250.082 158.772 250.28 159.613 250.28C160.454 250.28 161.283 250.082 162.033 249.702Z" fill="#E0E0E0"/>
<path d="M68.5545 180.678L67.9957 180.354C67.97 180.344 67.9478 180.327 67.9322 180.305C67.9166 180.282 67.9082 180.255 67.9082 180.228C67.9082 180.201 67.9166 180.174 67.9322 180.151C67.9478 180.129 67.97 180.112 67.9957 180.102L68.0571 180.069C68.1242 180.033 68.1991 180.014 68.2751 180.014C68.3511 180.014 68.4259 180.033 68.493 180.069L69.0519 180.387C69.1692 180.46 69.1692 180.572 69.0519 180.639L68.9904 180.678C68.9225 180.711 68.848 180.728 68.7725 180.728C68.6969 180.728 68.6224 180.711 68.5545 180.678Z" fill="#455A64"/>
<path d="M69.549 180.102L68.5822 179.544C68.4648 179.477 68.4648 179.365 68.5822 179.292L68.6436 179.259C68.7115 179.225 68.7861 179.208 68.8616 179.208C68.9371 179.208 69.0116 179.225 69.0795 179.259L70.0463 179.817C70.1637 179.884 70.1637 179.996 70.0463 180.069L69.9849 180.102C69.917 180.136 69.8424 180.153 69.7669 180.153C69.6914 180.153 69.6169 180.136 69.549 180.102Z" fill="#455A64"/>
<path d="M70.5434 179.527L69.1742 178.739C69.0513 178.666 69.0513 178.555 69.1742 178.488L69.2357 178.449C69.3036 178.415 69.3781 178.398 69.4537 178.398C69.5292 178.398 69.6037 178.415 69.6716 178.449L71.0408 179.242C71.0665 179.252 71.0886 179.269 71.1042 179.291C71.1199 179.314 71.1282 179.34 71.1282 179.368C71.1282 179.395 71.1199 179.422 71.1042 179.444C71.0886 179.467 71.0665 179.484 71.0408 179.494L70.9793 179.527C70.9122 179.563 70.8374 179.581 70.7614 179.581C70.6854 179.581 70.6105 179.563 70.5434 179.527Z" fill="#455A64"/>
<path d="M71.5362 178.957L69.1723 177.588C69.0493 177.52 69.0493 177.409 69.1723 177.336L69.2338 177.302C69.3013 177.268 69.376 177.25 69.4517 177.25C69.5275 177.25 69.6022 177.268 69.6697 177.302L72.028 178.666C72.151 178.739 72.151 178.851 72.028 178.918L71.9721 178.957C71.9042 178.99 71.8297 179.007 71.7542 179.007C71.6786 179.007 71.6041 178.99 71.5362 178.957Z" fill="#455A64"/>
<path d="M74.3895 177.493C74.3519 177.497 74.314 177.487 74.2834 177.465L73.9369 177.263L72.8192 177.906C72.7952 177.922 72.767 177.931 72.7381 177.931C72.7093 177.931 72.6811 177.922 72.6571 177.906L72.5286 177.833L72.4727 177.794V177.738L72.4168 176.336C72.4131 176.315 72.4131 176.295 72.4168 176.274C72.4353 176.253 72.4581 176.236 72.4839 176.224L72.6348 176.135C72.6743 176.111 72.7179 176.096 72.7633 176.09C72.8047 176.09 72.8452 176.102 72.8807 176.123L74.0934 176.822L74.3393 176.682C74.376 176.658 74.4182 176.642 74.4622 176.638C74.502 176.637 74.5408 176.649 74.574 176.671L74.6578 176.721C74.6969 176.721 74.7137 176.76 74.7081 176.783C74.7025 176.805 74.7081 176.822 74.6354 176.85L74.3895 176.995L74.736 177.196C74.7751 177.196 74.7919 177.235 74.7863 177.258C74.7807 177.28 74.7584 177.303 74.7081 177.33L74.5181 177.437C74.4819 177.468 74.4371 177.487 74.3895 177.493ZM73.7133 177.051L72.8471 176.554L72.903 177.52L73.7133 177.051Z" fill="#455A64"/>
<path d="M75.5002 176.61C75.109 176.628 74.7207 176.533 74.3825 176.336C74.036 176.135 73.8795 175.917 73.9075 175.682C73.9354 175.447 74.1534 175.218 74.5501 174.989C74.7067 174.896 74.8713 174.818 75.0419 174.754C75.1919 174.696 75.3473 174.653 75.5058 174.626C75.5291 174.617 75.5551 174.617 75.5784 174.626C75.5808 174.635 75.5808 174.644 75.5784 174.654L75.6287 174.799C75.6342 174.805 75.6373 174.813 75.6373 174.821C75.6373 174.83 75.6342 174.837 75.6287 174.844H75.5673C75.3265 174.891 75.0959 174.98 74.8855 175.106C74.6172 175.257 74.4719 175.419 74.4496 175.581C74.4272 175.743 74.5501 175.905 74.8184 176.056C75.0636 176.206 75.347 176.282 75.6343 176.274C75.9186 176.264 76.1955 176.181 76.4391 176.034C76.5262 175.983 76.6102 175.927 76.6905 175.866C76.7543 175.821 76.8108 175.766 76.8582 175.704L76.2993 175.38L75.8355 175.648C75.796 175.672 75.7523 175.687 75.707 175.693C75.6674 175.692 75.6289 175.68 75.5952 175.66L75.517 175.615C75.4797 175.593 75.4629 175.57 75.4667 175.548C75.4667 175.548 75.4946 175.509 75.5393 175.481L76.2826 175.05C76.3266 175.024 76.3765 175.008 76.4279 175.006C76.4736 175.006 76.5182 175.02 76.5564 175.045L77.3612 175.509C77.3838 175.518 77.4033 175.533 77.417 175.553C77.417 175.553 77.417 175.581 77.417 175.604C77.2415 175.866 76.9982 176.077 76.7129 176.213C76.3475 176.443 75.9309 176.579 75.5002 176.61Z" fill="#455A64"/>
<path d="M90.97 165.751L92.2833 166.511C92.3389 166.539 92.4001 166.553 92.4621 166.553C92.5241 166.553 92.5854 166.539 92.6409 166.511L93.9654 165.751C94.0604 165.69 94.0604 165.6 93.9654 165.544L92.6465 164.784C92.5918 164.754 92.5303 164.738 92.4677 164.738C92.4051 164.738 92.3436 164.754 92.2889 164.784L90.97 165.544C90.8694 165.6 90.8694 165.69 90.97 165.751Z" fill="#455A64"/>
<path d="M91.8808 164.717C91.7069 164.633 91.5153 164.591 91.322 164.594C91.1285 164.589 90.9366 164.632 90.7631 164.717C90.506 164.868 90.506 165.097 90.7631 165.243L91.2158 165.505L91.5455 165.438L91.0928 165.181C91.0527 165.166 91.0181 165.139 90.9937 165.103C90.9693 165.068 90.9562 165.026 90.9562 164.983C90.9562 164.94 90.9693 164.898 90.9937 164.862C91.0181 164.827 91.0527 164.8 91.0928 164.784C91.165 164.745 91.2455 164.724 91.3275 164.723C91.4083 164.721 91.4879 164.742 91.5567 164.784L92.0093 165.047L92.3447 164.98L91.8808 164.717Z" fill="#455A64"/>
<path d="M115.86 150.852C115.639 150.845 115.42 150.895 115.223 150.998L111.87 152.926C111.58 153.088 111.58 153.35 111.87 153.518L113.089 154.217C113.285 154.319 113.504 154.369 113.726 154.362C113.829 154.361 113.932 154.352 114.033 154.334C114.147 154.315 114.257 154.276 114.357 154.217L117.71 152.294C117.995 152.126 117.995 151.864 117.71 151.702L116.492 150.998C116.298 150.895 116.08 150.845 115.86 150.852ZM113.737 154.205C113.641 154.204 113.547 154.179 113.463 154.133L112.25 153.429C112.204 153.412 112.163 153.381 112.135 153.341C112.106 153.3 112.091 153.252 112.091 153.202C112.091 153.153 112.106 153.104 112.135 153.064C112.163 153.023 112.204 152.993 112.25 152.976L115.603 151.053C115.657 151.021 115.715 150.998 115.777 150.986H115.877C115.972 150.989 116.064 151.016 116.145 151.065L117.358 151.763C117.405 151.78 117.445 151.811 117.474 151.851C117.502 151.892 117.518 151.94 117.518 151.99C117.518 152.039 117.502 152.087 117.474 152.128C117.445 152.169 117.405 152.199 117.358 152.216L114.005 154.144C113.924 154.192 113.831 154.219 113.737 154.222V154.205Z" fill="#455A64"/>
<path d="M113.832 153.987L113.787 153.959L112.669 153.328C112.635 153.315 112.606 153.292 112.585 153.262C112.564 153.232 112.553 153.197 112.553 153.16C112.553 153.124 112.564 153.088 112.585 153.058C112.606 153.028 112.635 153.005 112.669 152.993L115.676 151.26C115.695 151.247 115.715 151.238 115.737 151.232L115.782 151.26L116.9 151.892C116.932 151.905 116.96 151.928 116.979 151.958C116.999 151.987 117.009 152.021 117.009 152.056C117.009 152.092 116.999 152.126 116.979 152.155C116.96 152.185 116.932 152.208 116.9 152.221L113.893 153.959L113.832 153.987Z" fill="#455A64"/>
<path d="M116.666 150.908C116.782 150.881 116.902 150.878 117.018 150.9C117.135 150.922 117.245 150.969 117.343 151.037L117.566 151.171C117.818 151.311 117.924 151.489 117.806 151.568L117.588 151.702L116.471 151.037L116.666 150.908Z" fill="#455A64"/>
<path d="M97.5677 183.746C98.3893 183.712 99.1922 183.49 99.9149 183.098C101.278 182.31 101.631 181.237 99.4678 179.89C99.3951 180.297 99.229 180.681 98.9827 181.013C98.7364 181.344 98.4166 181.614 98.0483 181.801C96.1929 182.874 94.0805 183.148 92.376 182.17C90.6715 181.192 91.2583 179.739 93.1248 178.666C94.3259 177.981 95.6857 177.623 97.0685 177.628C98.4512 177.633 99.8084 178.001 101.005 178.694C104.162 180.516 103.452 182.444 101.217 183.724C100.047 184.379 98.7441 184.761 97.4056 184.842L97.5677 183.746ZM98.3557 179.309C96.7182 178.599 95.3267 178.7 94.2705 179.309C93.3819 179.817 93.2031 180.561 94.1867 181.125C94.6793 181.392 95.2354 181.518 95.7948 181.492C96.3542 181.465 96.8958 181.286 97.3609 180.974C97.6744 180.828 97.9369 180.591 98.1142 180.295C98.2916 179.998 98.3757 179.654 98.3557 179.309Z" fill="#455A64"/>
<path d="M102.269 175.794C102.602 175.592 102.979 175.472 103.368 175.445C103.756 175.417 104.146 175.484 104.504 175.637C105.063 175.973 104.957 176.531 104.242 176.939C103.903 177.146 103.52 177.269 103.124 177.297C102.728 177.325 102.331 177.258 101.967 177.101C101.391 176.772 101.537 176.207 102.269 175.794ZM106.633 178.314C106.967 178.112 107.344 177.994 107.733 177.967C108.122 177.941 108.511 178.008 108.869 178.163C109.428 178.493 109.321 179.052 108.606 179.465C108.267 179.671 107.884 179.793 107.488 179.821C107.093 179.849 106.696 179.783 106.332 179.627C105.762 179.298 105.901 178.728 106.617 178.337L106.633 178.314Z" fill="#455A64"/>
<path d="M107.371 175.268C104.627 173.681 104.627 172.033 106.874 170.731C109.12 169.428 111.993 169.44 114.731 171.021C117.469 172.603 117.525 174.302 115.29 175.604C113.054 176.906 110.12 176.856 107.371 175.268ZM112.853 172.1C110.556 170.775 109.081 170.786 108.025 171.396C106.969 172.005 106.946 172.86 109.243 174.19C111.54 175.52 113.116 175.542 114.155 174.944C115.195 174.346 115.156 173.43 112.853 172.1Z" fill="#455A64"/>
<path d="M116.114 170.222C113.365 168.635 113.365 166.986 115.611 165.69C117.858 164.393 120.736 164.399 123.469 165.975C126.201 167.551 126.296 169.261 124.027 170.557C121.759 171.854 118.858 171.809 116.114 170.222ZM121.596 167.059C119.294 165.729 117.819 165.74 116.762 166.349C115.706 166.958 115.684 167.813 117.986 169.144C120.289 170.474 121.859 170.49 122.893 169.892C123.927 169.294 123.893 168.384 121.596 167.059Z" fill="#455A64"/>
<path d="M102.026 196.013L145.996 170.63C146.516 170.367 147.09 170.23 147.673 170.23C148.255 170.23 148.829 170.367 149.349 170.63L160.588 177.118C161.515 177.677 161.515 178.521 160.588 179.058L116.634 204.44C116.114 204.703 115.54 204.84 114.958 204.84C114.375 204.84 113.801 204.703 113.281 204.44L102.026 197.952C101.098 197.416 101.098 196.55 102.026 196.013Z" fill="#EEA1B3"/>
<path d="M106.741 196.873L114.61 201.411C114.834 201.527 115.082 201.587 115.334 201.587C115.585 201.587 115.834 201.527 116.057 201.411L127.653 194.705C128.056 194.47 128.056 194.096 127.653 193.867L119.785 189.323C119.56 189.21 119.312 189.151 119.061 189.151C118.81 189.151 118.562 189.21 118.337 189.323L106.741 196.029C106.651 196.057 106.572 196.113 106.516 196.189C106.46 196.265 106.43 196.357 106.43 196.451C106.43 196.546 106.46 196.638 106.516 196.714C106.572 196.79 106.651 196.846 106.741 196.873Z" fill="#FAFAFA"/>
<path d="M118.611 194.688L127.938 194.32L118.644 194.18L119.019 189.167L117.493 195.353L106.434 196.449L115.465 196.024L115.241 201.585L115.934 196.002L118.521 195.879L118.611 194.688Z" fill="#EEA1B3"/>
<path d="M123.506 186.954L134.868 180.421C135.151 180.278 135.464 180.203 135.781 180.203C136.099 180.203 136.412 180.278 136.695 180.421C137.193 180.706 137.176 181.175 136.656 181.477L125.295 188.01C125.011 188.154 124.698 188.228 124.381 188.228C124.064 188.228 123.75 188.154 123.467 188.01C122.975 187.725 122.998 187.278 123.506 186.954Z" fill="#FAFAFA"/>
<path d="M127.007 188.955L150.032 175.649C150.315 175.505 150.628 175.43 150.946 175.43C151.263 175.43 151.576 175.505 151.859 175.649C152.357 175.934 152.34 176.409 151.82 176.705L128.796 190.011C128.511 190.154 128.198 190.228 127.879 190.228C127.561 190.228 127.247 190.154 126.963 190.011C126.471 189.743 126.488 189.273 127.007 188.955Z" fill="#FAFAFA"/>
<path d="M130.503 190.989L153.533 177.683C153.816 177.539 154.129 177.465 154.447 177.465C154.764 177.465 155.077 177.539 155.36 177.683C155.852 177.968 155.835 178.443 155.321 178.739L132.291 192.045C132.008 192.188 131.695 192.263 131.377 192.263C131.06 192.263 130.747 192.188 130.464 192.045C129.966 191.749 129.989 191.291 130.503 190.989Z" fill="#FAFAFA"/>
<path d="M96.9883 104.311L171.528 61.2798L174.512 63.001C174.919 63.2687 175.257 63.6281 175.5 64.0503C175.742 64.4725 175.882 64.9458 175.909 65.432V120.417C175.883 120.904 175.743 121.377 175.5 121.799C175.257 122.221 174.919 122.581 174.512 122.848L102.772 164.259C102.338 164.475 101.86 164.587 101.375 164.587C100.89 164.587 100.412 164.475 99.9781 164.259L98.4022 163.348C97.9949 163.08 97.656 162.721 97.4124 162.299C97.1689 161.877 97.0274 161.403 96.9995 160.917L96.9883 104.311Z" fill="#EEA1B3"/>
<path opacity="0.05" d="M96.9883 104.311L171.528 61.2798L174.512 63.001C174.919 63.2687 175.257 63.6281 175.5 64.0503C175.742 64.4725 175.882 64.9458 175.909 65.432V120.417C175.883 120.904 175.743 121.377 175.5 121.799C175.257 122.221 174.919 122.581 174.512 122.848L102.772 164.259C102.338 164.475 101.86 164.587 101.375 164.587C100.89 164.587 100.412 164.475 99.9781 164.259L98.4022 163.348C97.9949 163.08 97.656 162.721 97.4124 162.299C97.1689 161.877 97.0274 161.403 96.9995 160.917L96.9883 104.311Z" fill="black"/>
<path d="M171.114 56.4401L171.421 56.2725L170.265 55.6019C170.164 55.5454 170.059 55.4969 169.952 55.4566L137.147 43.3016C136.697 43.1507 136.211 43.1469 135.759 43.2905C135.307 43.4342 134.912 43.718 134.632 44.1008L97.9327 97.6888C97.363 98.6128 97.038 99.6668 96.9883 100.751V104.311L98.106 104.971L171.511 61.2742V57.7143C171.5 57.2608 171.363 56.8194 171.114 56.4401Z" fill="#EEA1B3"/>
<path opacity="0.1" d="M136.145 44.3635C135.999 44.4779 135.871 44.6135 135.765 44.7659L99.0651 98.3539C98.7636 98.8279 98.5339 99.3439 98.3833 99.8852L97.2656 99.2257C97.3483 98.95 97.4472 98.6794 97.5618 98.4154C97.6121 98.3036 97.6624 98.1974 97.7183 98.0913V98.041C97.7764 97.9288 97.8418 97.8205 97.9139 97.7168L134.625 44.1065C134.68 44.0271 134.742 43.9523 134.809 43.8829L135.005 43.7041L136.145 44.3635Z" fill="black"/>
<path opacity="0.35" d="M171.405 56.2724C171.306 56.212 171.201 56.1615 171.092 56.1215L138.282 43.9609C137.921 43.8409 137.536 43.8149 137.162 43.8853C136.789 43.9557 136.439 44.1202 136.147 44.3633L135.029 43.7038C135.324 43.4631 135.674 43.3001 136.048 43.2298C136.422 43.1595 136.808 43.1842 137.17 43.3015L169.974 55.4564C170.081 55.4965 170.184 55.547 170.281 55.6073L171.405 56.2724Z" fill="white"/>
<path d="M134.816 43.8829C134.876 43.8176 134.942 43.7578 135.012 43.7041C134.94 43.7563 134.875 43.8163 134.816 43.8829Z" fill="#EEA1B3"/>
<path opacity="0.2" d="M97.709 98.0683C97.709 98.0683 97.709 98.0297 97.709 98.0131C97.709 97.9965 97.72 98.0517 97.709 98.0683Z" fill="black"/>
<path opacity="0.2" d="M134.633 44.1013C134.686 44.0223 134.748 43.9493 134.817 43.8833C134.747 43.9478 134.685 44.021 134.633 44.1013Z" fill="black"/>
<path d="M135.767 44.7714L99.0731 98.365C98.4984 99.2852 98.1712 100.338 98.123 101.422V104.982L172.662 61.9504V58.3738C172.634 57.892 172.473 57.4275 172.195 57.0325C171.918 56.6376 171.536 56.328 171.092 56.1384L138.288 43.9834C137.838 43.8345 137.353 43.8304 136.9 43.9718C136.448 44.1131 136.052 44.3928 135.767 44.7714Z" fill="#EEA1B3"/>
<path d="M106.237 156.77L103.845 155.39C103.647 155.239 103.492 155.04 103.394 154.812C103.296 154.584 103.259 154.334 103.286 154.088V79.5596C103.317 78.8031 103.548 78.0684 103.956 77.4304L106.387 78.8275C105.976 79.468 105.744 80.2073 105.717 80.9679V155.468C105.687 155.711 105.719 155.958 105.81 156.186C105.901 156.413 106.047 156.614 106.237 156.77Z" fill="#E0E0E0"/>
<path d="M107.729 77.4082L167.604 42.849C168.721 42.1896 169.655 42.7205 169.655 44.0338V118.539C169.617 119.252 169.412 119.947 169.056 120.565C168.699 121.184 168.202 121.709 167.604 122.099L107.729 156.653C106.611 157.307 105.678 156.776 105.678 155.463V80.9681C105.716 80.2554 105.922 79.5619 106.278 78.9434C106.635 78.325 107.132 77.7991 107.729 77.4082Z" fill="#F0F0F0"/>
<path d="M166.626 41.3009L168.973 42.6645C168.746 42.5797 168.501 42.5532 168.261 42.5874C168.021 42.6216 167.793 42.7153 167.599 42.86L107.729 77.4137C107.155 77.7599 106.678 78.2464 106.343 78.8275L103.912 77.4304C104.249 76.8502 104.723 76.361 105.292 76.0054L165.168 41.4182C165.375 41.2651 165.622 41.1721 165.879 41.1495C166.136 41.1268 166.395 41.1753 166.626 41.2897V41.3009Z" fill="#FAFAFA"/>
<path d="M112.402 81.3091L162.19 52.5619C162.861 52.1763 163.403 52.4501 163.403 53.1766C163.372 53.5828 163.247 53.9761 163.036 54.3246C162.825 54.6732 162.535 54.9672 162.19 55.1829L112.402 83.9301C111.732 84.3157 111.189 84.0418 111.189 83.3209C111.219 82.9138 111.344 82.5194 111.555 82.1698C111.766 81.8202 112.056 81.5253 112.402 81.3091Z" fill="#E0E0E0"/>
<path d="M112.402 86.5342L162.19 57.787C162.861 57.4014 163.403 57.6752 163.403 58.4017C163.372 58.8079 163.247 59.2012 163.036 59.5497C162.825 59.8983 162.535 60.1923 162.19 60.408L112.402 89.1552C111.732 89.5408 111.189 89.2669 111.189 88.546C111.219 88.1389 111.344 87.7445 111.555 87.3949C111.766 87.0453 112.056 86.7504 112.402 86.5342Z" fill="#E0E0E0"/>
<path d="M112.402 91.7594L162.19 63.0122C162.861 62.6266 163.403 62.9005 163.403 63.6214C163.373 64.0285 163.248 64.4229 163.037 64.7725C162.826 65.1221 162.536 65.417 162.19 65.6332L112.402 94.3804C111.732 94.766 111.189 94.4922 111.189 93.7713C111.219 93.3641 111.344 92.9697 111.555 92.6201C111.766 92.2705 112.056 91.9756 112.402 91.7594Z" fill="#E0E0E0"/>
<path d="M112.402 96.9845L162.19 68.2429C162.861 67.8573 163.403 68.1312 163.403 68.8521C163.373 69.2592 163.248 69.6536 163.037 70.0032C162.826 70.3528 162.536 70.6477 162.19 70.864L112.402 99.6111C111.732 99.9967 111.189 99.7229 111.189 98.9964C111.219 98.5893 111.344 98.1949 111.555 97.8453C111.766 97.4957 112.056 97.2008 112.402 96.9845Z" fill="#E0E0E0"/>
<path d="M112.402 102.21L162.19 73.4627C162.861 73.0771 163.403 73.3509 163.403 74.0718C163.373 74.4789 163.248 74.8734 163.037 75.223C162.826 75.5725 162.536 75.8675 162.19 76.0837L112.402 104.831C111.732 105.216 111.189 104.943 111.189 104.216C111.22 103.81 111.345 103.417 111.556 103.068C111.767 102.72 112.057 102.426 112.402 102.21Z" fill="#E0E0E0"/>
<path d="M112.402 107.435L162.19 78.688C162.861 78.3024 163.403 78.5762 163.403 79.2972C163.373 79.7043 163.248 80.0987 163.037 80.4483C162.826 80.7979 162.536 81.0928 162.19 81.309L112.402 110.056C111.732 110.442 111.189 110.168 111.189 109.441C111.22 109.035 111.345 108.642 111.556 108.293C111.767 107.945 112.057 107.651 112.402 107.435Z" fill="#E0E0E0"/>
<path d="M112.402 112.66L162.19 83.8909C162.861 83.5053 163.403 83.7791 163.403 84.5C163.373 84.9072 163.248 85.3016 163.037 85.6512C162.826 86.0008 162.536 86.2957 162.19 86.5119L112.402 115.259C111.732 115.645 111.189 115.371 111.189 114.644C111.223 114.242 111.35 113.853 111.561 113.509C111.771 113.164 112.06 112.874 112.402 112.66Z" fill="#E0E0E0"/>
<path d="M112.402 117.886L162.19 89.1385C162.861 88.7473 163.403 89.0267 163.403 89.7476C163.373 90.1548 163.248 90.5492 163.037 90.8988C162.826 91.2484 162.536 91.5433 162.19 91.7595L112.402 120.507C111.732 120.892 111.189 120.618 111.189 119.892C111.22 119.486 111.345 119.092 111.556 118.744C111.767 118.395 112.057 118.101 112.402 117.886Z" fill="#E0E0E0"/>
<path d="M174.021 121.144C173.998 121.184 173.972 121.221 173.942 121.256L142.882 107.48C141.702 106.958 140.374 106.88 139.142 107.26C137.91 107.64 136.856 108.452 136.175 109.548L102.969 162.828L101.739 163.538C101.602 163.634 101.444 163.693 101.278 163.712C101.112 163.731 100.944 163.707 100.789 163.644L134.94 108.844C135.623 107.75 136.676 106.939 137.907 106.558C139.139 106.177 140.466 106.253 141.646 106.77L174.021 121.144Z" fill="#EEA1B3"/>
<path opacity="0.4" d="M133.107 114.393L133.185 114.326L102.957 162.834L101.727 163.544C101.59 163.638 101.431 163.697 101.266 163.715C101.1 163.734 100.932 163.711 100.777 163.65L131.888 113.678L133.107 114.393Z" fill="white"/>
<path opacity="0.4" d="M174.02 121.149C173.998 121.189 173.971 121.226 173.942 121.261L142.875 107.48C141.696 106.958 140.368 106.88 139.135 107.26C137.903 107.64 136.85 108.452 136.169 109.547L134.939 108.832C135.624 107.742 136.679 106.934 137.91 106.556C139.141 106.179 140.467 106.256 141.646 106.776L174.02 121.149Z" fill="white"/>
<path d="M175.887 65.0746C175.82 64.6722 175.607 64.5604 175.328 64.7504C175.19 64.8535 175.069 64.978 174.97 65.1193L174.814 65.3372L144.183 108.011L139.606 114.387C139.312 114.759 138.921 115.043 138.477 115.21C138.033 115.376 137.552 115.418 137.086 115.332L133.135 114.393L102.957 107.217C102.754 107.176 102.545 107.176 102.342 107.217C102.264 107.233 102.187 107.258 102.113 107.29L102.946 106.809L132.006 113.722L135.968 114.628C136.435 114.715 136.916 114.674 137.36 114.507C137.805 114.341 138.195 114.056 138.489 113.683L143.066 107.312L173.869 64.4207C173.963 64.2932 174.081 64.185 174.216 64.1022L171.567 62.5765L172.685 61.9338L174.529 62.9957C174.882 63.2341 175.185 63.5408 175.418 63.8979C175.651 64.2549 175.811 64.655 175.887 65.0746Z" fill="#EEA1B3"/>
<path opacity="0.4" d="M144.183 108.011L139.606 114.387C139.312 114.759 138.921 115.043 138.477 115.209C138.033 115.376 137.552 115.418 137.086 115.332L133.135 114.393L133.213 114.326L133.403 114.024L135.99 114.639C136.457 114.726 136.938 114.685 137.382 114.518C137.827 114.352 138.217 114.067 138.511 113.694L143.043 107.39L144.183 108.011Z" fill="white"/>
<path opacity="0.1" d="M174.507 62.9957L172.663 61.9338L171.545 62.5765L174.211 64.1133C174.076 64.1967 173.959 64.3048 173.864 64.4319L143.066 107.324L143.021 107.385L144.139 108.005L174.809 65.3372L174.965 65.1193C175.064 64.978 175.185 64.8535 175.323 64.7504C175.597 64.5604 175.809 64.6722 175.882 65.0746C175.804 64.6536 175.642 64.2527 175.405 63.8956C175.169 63.5385 174.864 63.2324 174.507 62.9957Z" fill="black"/>
<path d="M103.56 108.111L96.9883 104.311V160.917C97.0163 161.404 97.1577 161.877 97.4013 162.299C97.6448 162.721 97.9838 163.08 98.391 163.348L99.9669 164.259C100.401 164.475 100.879 164.587 101.364 164.587C101.849 164.587 102.327 164.475 102.761 164.259L103.549 163.801L103.56 108.111Z" fill="#EEA1B3"/>
<path opacity="0.15" d="M103.56 108.111L96.9883 104.311V160.917C97.0163 161.404 97.1577 161.877 97.4013 162.299C97.6448 162.721 97.9838 163.08 98.391 163.348L99.9669 164.259C100.401 164.475 100.879 164.587 101.364 164.587C101.849 164.587 102.327 164.475 102.761 164.259L103.549 163.801L103.56 108.111Z" fill="black"/>
<path d="M174.813 65.3372V119.724C174.799 120.228 174.648 120.719 174.377 121.144C174.172 121.504 173.892 121.817 173.556 122.06L173.506 122.094L173.411 122.155L101.677 163.566C101.591 163.619 101.499 163.662 101.403 163.695C101.397 163.611 101.397 163.527 101.403 163.443V108.48C101.39 108.283 101.426 108.086 101.507 107.906C101.587 107.726 101.71 107.568 101.865 107.446C102.02 107.324 102.203 107.242 102.397 107.206C102.591 107.17 102.79 107.181 102.979 107.24L133.157 114.415L137.108 115.354C137.574 115.441 138.055 115.398 138.499 115.232C138.943 115.065 139.333 114.781 139.628 114.41L144.183 108.011L174.813 65.3372Z" fill="#455A64"/>
<path d="M175.914 65.4489V120.434C175.897 120.937 175.746 121.427 175.478 121.853C175.27 122.213 174.99 122.527 174.657 122.776L174.601 122.804C174.572 122.826 174.543 122.846 174.511 122.865L102.778 164.253C102.641 164.351 102.481 164.412 102.314 164.432C102.147 164.451 101.978 164.428 101.822 164.365C101.703 164.296 101.603 164.198 101.53 164.082C101.457 163.965 101.413 163.832 101.403 163.694C101.397 163.611 101.397 163.527 101.403 163.443V108.48C101.39 108.283 101.426 108.086 101.507 107.906C101.587 107.726 101.71 107.568 101.865 107.446C102.02 107.324 102.203 107.242 102.397 107.206C102.591 107.17 102.79 107.181 102.979 107.24L133.157 114.415L137.108 115.354C137.574 115.441 138.055 115.398 138.499 115.232C138.943 115.065 139.333 114.781 139.628 114.41L144.183 108.011L174.836 65.3371L174.992 65.1192C175.478 64.3983 175.914 64.5324 175.914 65.4489Z" fill="#EEA1B3"/>
<path d="M174.51 122.842L174.6 122.781L174.656 122.753C174.989 122.505 175.269 122.191 175.477 121.831C175.738 121.412 175.886 120.932 175.907 120.439L144.182 108.01L165.418 128.09L174.51 122.842Z" fill="#EEA1B3"/>
<path opacity="0.2" d="M174.51 122.842L174.6 122.781L174.656 122.753C174.989 122.505 175.269 122.191 175.477 121.831C175.738 121.412 175.886 120.932 175.907 120.439L144.182 108.01L165.418 128.09L174.51 122.842Z" fill="black"/>
<path d="M101.373 163.449C101.353 163.628 101.383 163.809 101.46 163.972C101.537 164.135 101.658 164.273 101.809 164.371C101.965 164.434 102.134 164.457 102.302 164.437C102.469 164.418 102.628 164.356 102.765 164.259L127.461 150.003L133.099 114.398L101.373 162.532V163.449Z" fill="#EEA1B3"/>
<path opacity="0.15" d="M136.154 109.542L101.807 164.365C101.656 164.267 101.535 164.129 101.458 163.966C101.381 163.803 101.351 163.622 101.372 163.443V162.532L131.678 114.069L131.913 113.694L134.925 108.866L136.154 109.542Z" fill="black"/>
<path d="M175.477 121.831C175.268 122.191 174.989 122.505 174.655 122.753L174.599 122.781L102.776 164.253C102.639 164.351 102.479 164.412 102.312 164.432C102.145 164.451 101.976 164.428 101.82 164.365L136.167 109.525C136.856 108.425 137.918 107.61 139.159 107.229C140.4 106.848 141.736 106.927 142.924 107.452L175.477 121.831Z" fill="#EEA1B3"/>
<path d="M175.478 121.837C175.273 122.197 174.993 122.51 174.657 122.753L174.606 122.787L102.772 164.259C102.634 164.355 102.474 164.414 102.308 164.433C102.141 164.451 101.972 164.428 101.816 164.365L102.772 162.845L173.36 122.083L173.416 122.049C173.713 121.831 173.966 121.558 174.159 121.244L175.478 121.837Z" fill="#EEA1B3"/>
<path opacity="0.15" d="M97.2392 99.2256L98.3569 99.885C98.1985 100.381 98.1101 100.896 98.0943 101.416V104.971L96.9766 104.311V100.751C96.9929 100.233 97.0813 99.7195 97.2392 99.2256Z" fill="black"/>
<path d="M103.991 107.038L102.94 106.787L102.108 107.268L100.956 106.603L98.123 104.971L99.224 104.317L103.991 107.038Z" fill="#EEA1B3"/>
<path opacity="0.1" d="M103.99 107.038L99.229 104.322L98.1113 104.976L100.945 106.608L102.096 107.273C102.163 107.24 102.234 107.217 102.308 107.206C102.511 107.165 102.72 107.165 102.923 107.206L105.242 107.765L131.676 114.069L131.91 113.694L103.99 107.038Z" fill="black"/>
<path d="M189.167 109.229L183.864 106.155L183.819 106.127C181.505 104.82 178.326 105.01 174.81 107.05C167.735 111.135 161.996 121.071 161.996 129.241C161.996 133.321 163.432 136.188 165.74 137.529L170.574 140.323L171.692 138.429C172.984 138.143 174.224 137.66 175.369 136.998C182.444 132.913 188.184 122.977 188.184 114.806C188.183 113.702 188.047 112.603 187.781 111.532L189.167 109.229Z" fill="#EEA1B3"/>
<path opacity="0.15" d="M162.467 124.944C162.154 126.357 161.991 127.8 161.98 129.247C161.98 133.327 163.417 136.193 165.725 137.535L170.559 140.329L171.676 138.434C172.968 138.148 174.208 137.666 175.354 137.004C176.606 136.271 177.777 135.407 178.847 134.428L162.467 124.944Z" fill="black"/>
<path d="M179.842 109.961C172.767 114.046 167.027 123.983 167.027 132.153C167.027 140.323 172.767 143.637 179.842 139.552C186.917 135.467 192.656 125.531 192.656 117.36C192.656 109.19 186.922 105.876 179.842 109.961Z" fill="#EEA1B3"/>
<path d="M184.906 121.334V118.193C184.906 114.611 182.727 112.962 180.044 114.516C177.356 116.069 175.177 120.227 175.177 123.809V126.604C175.118 128.543 174.553 130.432 173.539 132.086C173.29 132.524 173.153 133.018 173.143 133.522C173.143 134.422 173.701 134.841 174.366 134.45L185.728 127.889C186.1 127.621 186.405 127.27 186.618 126.863C186.83 126.457 186.945 126.006 186.952 125.547C186.969 125.372 186.946 125.195 186.884 125.031C186.822 124.866 186.723 124.718 186.594 124.597C185.566 124.162 184.906 123.01 184.906 121.334Z" fill="white"/>
<path d="M182.373 130.834C182.373 132.555 181.328 134.551 180.043 135.305C178.758 136.059 177.707 135.26 177.707 133.545L182.373 130.834Z" fill="white"/>
</svg>
