<svg width="24" height="20" viewBox="0 0 24 20" fill="none" xmlns="http://www.w3.org/2000/svg">
<path d="M11.073 15.0285C10.0729 14.506 9.02464 14.1319 7.73213 13.9282L7.71977 13.9263L7.70733 13.925C5.98579 13.7413 3.95361 14.081 1.39258 15.197V4.89154C3.1937 4.11756 4.70302 3.70342 5.96981 3.5516C6.21386 3.79605 6.45793 4.04054 6.70202 4.28505C8.15743 5.74298 9.61376 7.20183 11.073 8.65774V15.0285ZM22.609 15.1965C21.7087 14.8038 20.8733 14.5072 20.0936 14.2958L19.38 12.8633C19.0593 12.2195 18.3282 10.8519 17.6619 9.61169C17.5049 9.31932 17.3519 9.03499 17.2088 8.76881C16.7367 7.89129 16.3708 7.21105 16.313 7.09036L16.2761 7.01353L16.2159 6.95324L13.5907 4.32398C14.4111 3.862 15.3426 3.55774 16.49 3.49372L16.4906 3.49368C16.6444 3.48489 16.8083 3.48043 16.973 3.48045L16.9772 3.48041C16.9906 3.4803 17.0063 3.48084 17.0366 3.48214L17.041 3.48233C17.0662 3.48341 17.1017 3.48494 17.1399 3.4851C18.5793 3.51995 20.3671 3.92592 22.609 4.89128V15.1965ZM12.9309 10.4393V10.4391L13.148 10.0206L12.9309 10.4393ZM12.9309 10.4712L12.933 10.4723L12.9776 10.4955L13.1474 10.5837C13.2939 10.6598 13.5037 10.7689 13.7569 10.9009C14.2634 11.1647 14.9434 11.5195 15.6374 11.8837C16.3317 12.2479 17.0391 12.621 17.601 12.9215C18.1778 13.2301 18.5681 13.4448 18.6571 13.5036L19.7082 14.1971C18.4339 13.8903 17.3112 13.8168 16.297 13.9249C14.9787 14.0628 13.892 14.4982 12.9309 15.018V10.4712ZM15.3043 9.7668L15.613 9.45805L15.9229 10.0767L15.3043 9.7668ZM13.639 18.3528C13.6903 18.4067 13.7417 18.4626 13.7932 18.5206H10.2295C10.2813 18.4463 10.3331 18.3756 10.3847 18.3086L10.7779 17.7982L10.186 17.544C9.44967 17.2277 8.63709 16.9828 7.70775 16.8828L7.70733 16.8828C5.98579 16.6992 3.95361 17.0388 1.39258 18.1548V17.2517C3.68572 16.1505 5.39442 15.7649 6.74259 15.7518C7.01088 15.7519 7.26824 15.7651 7.51035 15.791C8.68255 15.9245 10.061 16.5458 11.3172 17.2939L11.4753 17.3881L11.6568 17.3573C11.8126 17.3308 12.0692 17.3607 12.3614 17.4017L12.5427 17.4271L12.6976 17.3294C13.9054 16.5676 15.0232 15.9472 16.496 15.7913L16.4986 15.791C16.6924 15.7694 16.8914 15.7563 17.1002 15.7518H17.2396C18.5901 15.7562 20.3048 16.1448 22.609 17.2517V18.1543C20.0516 17.0386 18.0178 16.6992 16.2966 16.8828L16.2964 16.8828C15.3627 16.9827 14.5449 17.2275 13.8024 17.5493L13.1453 17.834L13.639 18.3528ZM8.19872 1.53541L7.38129 2.3531L7.09256 2.06613L7.91181 1.24864L8.19872 1.53541Z" fill="white" stroke="white"/>
</svg>
