<svg width="20" height="20" viewBox="0 0 20 20" fill="none" xmlns="http://www.w3.org/2000/svg">
<path d="M19.1608 14.6558C19.1213 15.048 18.98 15.4231 18.7508 15.7438C18.5421 16.0529 18.2605 16.3058 17.9309 16.4803C17.6012 16.6547 17.2337 16.7452 16.8608 16.7438H13.9208C13.8688 17.013 13.7918 17.2769 13.6908 17.5318C13.4895 18.0209 13.1931 18.4653 12.8189 18.8391C12.4447 19.213 12.0001 19.5089 11.5108 19.7098C11.0158 19.9098 10.4848 20.0078 9.95077 19.9998H9.87077C9.37674 19.9952 8.88807 19.8968 8.43077 19.7098C7.93395 19.5169 7.48395 19.2203 7.11077 18.8398C6.73396 18.4682 6.4378 18.0229 6.24077 17.5318C6.13966 17.2765 6.06266 17.0124 6.01077 16.7428H3.19077C2.82247 16.7722 2.4526 16.7101 2.11411 16.562C1.77563 16.4139 1.47904 16.1843 1.25077 15.8938C1.03482 15.5431 0.899477 15.1489 0.854512 14.7395C0.809547 14.3302 0.856089 13.916 0.990774 13.5268C1.20822 12.9495 1.50436 12.405 1.87077 11.9088C2.29199 11.4 2.57446 10.791 2.69077 10.1408C2.69077 7.25478 2.69077 6.27578 4.27077 4.39778C4.79167 3.77548 5.43945 3.27158 6.17077 2.91979L6.95077 2.53978C6.98895 2.51565 7.02276 2.48522 7.05077 2.44978C7.08097 2.41193 7.10156 2.36733 7.11077 2.31979C7.22434 1.83214 7.45814 1.38067 7.79088 1.00653C8.12363 0.632396 8.54472 0.34749 9.01577 0.177785C9.48698 0.00766131 9.99329 -0.04175 10.4885 0.0340595C10.9837 0.109869 11.452 0.308486 11.8508 0.611785C12.3977 1.04747 12.7558 1.67703 12.8508 2.36978V2.46978C12.8799 2.51061 12.9174 2.54471 12.9608 2.56979L13.6808 2.91979C14.4108 3.26978 15.0588 3.76978 15.5808 4.38778C17.1608 6.27578 17.1608 7.25478 17.1608 10.1408C17.2948 10.8308 17.6008 11.4768 18.0508 12.0188C18.4108 12.4998 18.7028 13.0278 18.9208 13.5868C19.0848 13.9188 19.1678 14.2848 19.1608 14.6558Z" fill="white"/>
</svg>
