<svg width="24" height="24" viewBox="0 0 24 24" fill="none" xmlns="http://www.w3.org/2000/svg">
<g clip-path="url(#clip0_635_3980)">
<path d="M14.2498 2.25C14.2498 2.84674 14.0127 3.41903 13.5908 3.84099C13.1688 4.26295 12.5965 4.5 11.9998 4.5C11.403 4.5 10.8307 4.26295 10.4088 3.84099C9.98683 3.41903 9.74978 2.84674 9.74978 2.25C9.74978 1.65326 9.98683 1.08097 10.4088 0.65901C10.8307 0.237053 11.403 0 11.9998 0C12.5965 0 13.1688 0.237053 13.5908 0.65901C14.0127 1.08097 14.2498 1.65326 14.2498 2.25ZM9.65978 5.628C9.7652 5.50929 9.89454 5.41424 10.0393 5.34909C10.1841 5.28394 10.341 5.25017 10.4998 5.25H12.6673C13.7803 5.25 14.6473 6.2145 14.5318 7.32L13.8868 13.4445C13.8652 13.6463 13.8209 13.8451 13.7548 14.037L13.2778 15.396L13.5973 15.759C13.6655 15.8387 13.723 15.9269 13.7683 16.0215L16.7683 22.3965C16.8357 22.5307 16.8755 22.6771 16.8855 22.8269C16.8954 22.9768 16.8752 23.1271 16.8261 23.2691C16.777 23.411 16.7 23.5417 16.5996 23.6534C16.4992 23.7651 16.3775 23.8555 16.2416 23.9194C16.1057 23.9833 15.9583 24.0194 15.8083 24.0254C15.6582 24.0315 15.5084 24.0074 15.3678 23.9547C15.2272 23.9019 15.0986 23.8216 14.9895 23.7183C14.8804 23.6151 14.7931 23.491 14.7328 23.3535L11.7988 17.1225L9.27878 14.241C9.08483 14.0206 8.98471 13.7332 8.99978 13.44L9.20678 9.5205L8.55428 10.254L7.85828 14.433C7.80935 14.7274 7.64547 14.9903 7.40271 15.1638C7.15994 15.3374 6.85817 15.4074 6.56378 15.3585C6.26939 15.3096 6.0065 15.1457 5.83293 14.9029C5.65937 14.6602 5.58935 14.3584 5.63828 14.064L6.38828 9.564C6.42344 9.35479 6.51705 9.15979 6.65828 9.0015L9.65828 5.6265L9.65978 5.628Z" fill="#1A2A4D"/>
<path d="M9.3744 17.6175V15.4905L11.1804 17.553L11.5719 18.339C11.5312 18.4635 11.4704 18.5806 11.3919 18.6855L7.6419 23.5605C7.4601 23.7972 7.19171 23.952 6.89577 23.9908C6.59984 24.0296 6.30061 23.9493 6.0639 23.7675C5.8272 23.5857 5.67241 23.3173 5.63359 23.0213C5.59477 22.7254 5.6751 22.4262 5.8569 22.1895L9.3744 17.6175ZM15.7044 11.295L14.9634 10.554L15.2709 7.78946L15.2799 7.68896L16.9659 9.37496H19.1259C19.4243 9.37496 19.7104 9.49349 19.9214 9.70447C20.1324 9.91545 20.2509 10.2016 20.2509 10.5C20.2509 10.7983 20.1324 11.0845 19.9214 11.2955C19.7104 11.5064 19.4243 11.625 19.1259 11.625H16.4994C16.3515 11.625 16.205 11.5959 16.0683 11.5393C15.9316 11.4827 15.8074 11.3996 15.7029 11.295H15.7044Z" fill="#1A2A4D"/>
</g>
<defs>
<clipPath id="clip0_635_3980">
<rect width="24" height="24" fill="white"/>
</clipPath>
</defs>
</svg>
