<svg width="24" height="24" viewBox="0 0 24 24" fill="none" xmlns="http://www.w3.org/2000/svg">
<g clip-path="url(#clip0_2128_5355)">
<path d="M23.9995 11.9998C23.9995 13.5757 23.6891 15.1363 23.086 16.5923C22.483 18.0483 21.599 19.3712 20.4846 20.4856C19.3702 21.6 18.0473 22.4839 16.5913 23.087C15.1353 23.6901 13.5748 24.0005 11.9988 24.0005C10.4228 24.0005 8.86231 23.6901 7.40631 23.087C5.95031 22.4839 4.62736 21.6 3.51298 20.4856C2.39861 19.3712 1.51464 18.0483 0.91155 16.5923C0.308455 15.1363 -0.00195315 13.5757 -0.00195312 11.9998C-0.00195308 8.81698 1.26241 5.76454 3.51299 3.51396C5.76356 1.26338 8.816 -0.000976563 11.9988 -0.000976562C15.1816 -0.000976563 18.234 1.26338 20.4846 3.51396C22.7352 5.76454 23.9995 8.81698 23.9995 11.9998Z" fill="url(#paint0_linear_2128_5355)"/>
<path d="M7.99902 19.1475C7.99902 19.353 8.14002 19.5 8.37402 19.5C8.90052 19.5 9.62802 18.5625 11.9995 18.5625C14.371 18.5625 15.1 19.5 15.625 19.5C15.859 19.5 16 19.353 16 19.1475C16 18.552 14.7415 16.5 11.9995 16.5C9.25752 16.5 7.99902 18.552 7.99902 19.1475Z" fill="url(#paint1_linear_2128_5355)"/>
<path d="M5.39809 13.2C5.39809 11.985 6.16159 11.001 7.09909 11.001C8.03959 11.001 8.80009 11.985 8.80009 13.2C8.80009 13.707 8.66509 14.175 8.44309 14.547C8.34318 14.7148 8.18082 14.8362 7.99159 14.8845C7.78159 14.94 7.46209 15 7.09909 15C6.73459 15 6.41959 14.94 6.20659 14.8845C6.01777 14.8361 5.85591 14.7147 5.75659 14.547C5.51673 14.1389 5.3938 13.6733 5.39809 13.2ZM15.1991 13.2C15.1991 11.985 15.9611 11.001 16.8986 11.001C17.8391 11.001 18.5996 11.985 18.5996 13.2C18.5996 13.707 18.4646 14.175 18.2426 14.547C18.1932 14.6302 18.128 14.7028 18.0505 14.7607C17.973 14.8186 17.8849 14.8607 17.7911 14.8845C17.2061 15.036 16.5911 15.036 16.0061 14.8845C15.8173 14.8361 15.6554 14.7147 15.5561 14.547C15.3172 14.1386 15.1938 13.673 15.1991 13.2Z" fill="url(#paint2_linear_2128_5355)"/>
<g filter="url(#filter0_i_2128_5355)">
<path d="M5.39809 13.2C5.39809 11.985 6.16159 11.001 7.09909 11.001C8.03959 11.001 8.80009 11.985 8.80009 13.2C8.80009 13.707 8.66509 14.175 8.44309 14.547C8.34318 14.7148 8.18082 14.8362 7.99159 14.8845C7.78159 14.94 7.46209 15 7.09909 15C6.73459 15 6.41959 14.94 6.20659 14.8845C6.01777 14.8361 5.85591 14.7147 5.75659 14.547C5.51673 14.1389 5.3938 13.6733 5.39809 13.2ZM15.1991 13.2C15.1991 11.985 15.9611 11.001 16.8986 11.001C17.8391 11.001 18.5996 11.985 18.5996 13.2C18.5996 13.707 18.4646 14.175 18.2426 14.547C18.1932 14.6302 18.128 14.7028 18.0505 14.7607C17.973 14.8186 17.8849 14.8607 17.7911 14.8845C17.2061 15.036 16.5911 15.036 16.0061 14.8845C15.8173 14.8361 15.6554 14.7147 15.5561 14.547C15.3172 14.1386 15.1938 13.673 15.1991 13.2Z" fill="black"/>
</g>
<path d="M6.92393 11.9792C7.11593 12.1667 7.12793 12.5372 6.94943 12.8042C6.76943 13.0727 6.46943 13.1387 6.27743 12.9497C6.08543 12.7622 6.07493 12.3917 6.25193 12.1247C6.43193 11.8547 6.73193 11.7917 6.92393 11.9792ZM16.6574 11.9792C16.8494 12.1667 16.8614 12.5372 16.6844 12.8042C16.5044 13.0727 16.2044 13.1387 16.0094 12.9497C15.8189 12.7622 15.8084 12.3917 15.9869 12.1247C16.1654 11.8547 16.4654 11.7917 16.6574 11.9792Z" fill="#4E506A"/>
<path d="M6.23567 7.72941C6.73367 7.49991 7.12967 7.39941 7.43717 7.39941C7.85267 7.39941 8.11367 7.57941 8.26217 7.85991C8.52467 8.35341 8.40617 8.45991 7.96517 8.54841C6.30617 8.88441 4.63967 9.96141 3.91667 10.6334C3.46667 11.0534 3.03317 10.5884 3.26267 10.2224C3.49367 9.85641 4.42367 8.56491 6.23567 7.72941ZM15.7382 7.85991C15.8882 7.57941 16.1477 7.40091 16.5632 7.40091C16.8722 7.40091 17.2682 7.49991 17.7647 7.72941C19.5767 8.56491 20.5067 9.85641 20.7362 10.2224C20.9657 10.5884 20.5352 11.0534 20.0837 10.6334C19.3592 9.96141 17.6942 8.88441 16.0337 8.54841C15.5927 8.46141 15.4787 8.35491 15.7382 7.85991Z" fill="url(#paint3_linear_2128_5355)"/>
<path d="M20.25 24C19.008 24 18 22.878 18 21.4935C18 20.1105 18.534 19.176 18.9645 18.273C19.8615 16.386 20.0385 16.125 20.25 16.125C20.4615 16.125 20.6385 16.386 21.5355 18.273C21.966 19.176 22.5 20.1105 22.5 21.4935C22.5 22.878 21.492 24 20.25 24Z" fill="url(#paint4_linear_2128_5355)"/>
<path d="M20.2504 20.409C19.7584 20.409 19.3594 19.965 19.3594 19.419C19.3594 18.87 19.5709 18.4995 19.7419 18.141C20.0959 17.394 20.1664 17.292 20.2519 17.292C20.3344 17.292 20.4049 17.394 20.7589 18.141C20.9299 18.501 21.1414 18.87 21.1414 19.4175C21.1414 19.965 20.7424 20.409 20.2504 20.409Z" fill="url(#paint5_linear_2128_5355)"/>
</g>
<defs>
<filter id="filter0_i_2128_5355" x="5.39844" y="11.001" width="13.2012" height="3.99902" filterUnits="userSpaceOnUse" color-interpolation-filters="sRGB">
<feFlood flood-opacity="0" result="BackgroundImageFix"/>
<feBlend mode="normal" in="SourceGraphic" in2="BackgroundImageFix" result="shape"/>
<feColorMatrix in="SourceAlpha" type="matrix" values="0 0 0 0 0 0 0 0 0 0 0 0 0 0 0 0 0 0 127 0" result="hardAlpha"/>
<feOffset/>
<feGaussianBlur stdDeviation="0.5"/>
<feComposite in2="hardAlpha" operator="arithmetic" k2="-1" k3="1"/>
<feColorMatrix type="matrix" values="0 0 0 0 0.0411227 0 0 0 0 0.0430885 0 0 0 0 0.0922353 0 0 0 0.819684 0"/>
<feBlend mode="normal" in2="shape" result="effect1_innerShadow_2128_5355"/>
</filter>
<linearGradient id="paint0_linear_2128_5355" x1="11.9995" y1="2.45977" x2="11.9995" y2="23.9998" gradientUnits="userSpaceOnUse">
<stop stop-color="#FEEA70"/>
<stop offset="1" stop-color="#F69B30"/>
</linearGradient>
<linearGradient id="paint1_linear_2128_5355" x1="11.9995" y1="16.5" x2="11.9995" y2="19.5" gradientUnits="userSpaceOnUse">
<stop stop-color="#472315"/>
<stop offset="1" stop-color="#8B3A0E"/>
</linearGradient>
<linearGradient id="paint2_linear_2128_5355" x1="11.9981" y1="11.001" x2="11.9981" y2="15" gradientUnits="userSpaceOnUse">
<stop stop-color="#191A33"/>
<stop offset="0.872" stop-color="#3B426A"/>
</linearGradient>
<linearGradient id="paint3_linear_2128_5355" x1="12.0002" y1="7.40091" x2="12.0002" y2="10.7984" gradientUnits="userSpaceOnUse">
<stop stop-color="#E78E0D"/>
<stop offset="1" stop-color="#CB6000"/>
</linearGradient>
<linearGradient id="paint4_linear_2128_5355" x1="20.25" y1="22.575" x2="20.25" y2="17.538" gradientUnits="userSpaceOnUse">
<stop stop-color="#35CAFC"/>
<stop offset="1" stop-color="#007EDB"/>
</linearGradient>
<linearGradient id="paint5_linear_2128_5355" x1="20.2504" y1="17.292" x2="20.2504" y2="20.409" gradientUnits="userSpaceOnUse">
<stop stop-color="#6AE1FF" stop-opacity="0.287"/>
<stop offset="1" stop-color="#A8E3FF" stop-opacity="0.799"/>
</linearGradient>
<clipPath id="clip0_2128_5355">
<rect width="24" height="24" fill="white"/>
</clipPath>
</defs>
</svg>
