<svg width="30" height="34" viewBox="0 0 30 34" fill="none" xmlns="http://www.w3.org/2000/svg">
<path d="M11.6667 13.6666V17H8.33333V13.6666H11.6667ZM21.6667 17V13.6666H18.3333V17H21.6667ZM30 20.3333V33.6666H0V20.3333H1.66667V13.6666C1.66667 6.29998 7.63333 0.333313 15 0.333313C22.3667 0.333313 28.3333 6.29998 28.3333 13.6666V20.3333H30ZM6.66667 23.6666H3.33333V30.3333H6.66667V23.6666ZM13.3333 23.6666H10V30.3333H13.3333V23.6666ZM13.3333 3.79998C8.6 4.59998 5 8.71665 5 13.6666V20.3333H13.3333V3.79998ZM16.6667 20.3333H25V13.6666C25 8.71665 21.4 4.59998 16.6667 3.79998V20.3333ZM20 23.6666H16.6667V30.3333H20V23.6666ZM26.6667 23.6666H23.3333V30.3333H26.6667V23.6666Z" fill="#FAFAFA"/>
</svg>
