<svg width="40" height="41" viewBox="0 0 40 41" fill="none" xmlns="http://www.w3.org/2000/svg">
<path d="M14.9997 30.5002C15.4719 30.5002 15.868 30.3402 16.188 30.0202C16.508 29.7002 16.6675 29.3046 16.6663 28.8335C16.6652 28.3624 16.5052 27.9668 16.1863 27.6468C15.8675 27.3268 15.4719 27.1668 14.9997 27.1668C14.5275 27.1668 14.1319 27.3268 13.813 27.6468C13.4941 27.9668 13.3341 28.3624 13.333 28.8335C13.3319 29.3046 13.4919 29.7007 13.813 30.0218C14.1341 30.3429 14.5297 30.5024 14.9997 30.5002ZM19.9997 30.5002C20.4719 30.5002 20.868 30.3402 21.188 30.0202C21.508 29.7002 21.6675 29.3046 21.6663 28.8335C21.6652 28.3624 21.5052 27.9668 21.1863 27.6468C20.8675 27.3268 20.4719 27.1668 19.9997 27.1668C19.5275 27.1668 19.1319 27.3268 18.813 27.6468C18.4941 27.9668 18.3341 28.3624 18.333 28.8335C18.3319 29.3046 18.4919 29.7007 18.813 30.0218C19.1341 30.3429 19.5297 30.5024 19.9997 30.5002ZM24.9997 30.5002C25.4719 30.5002 25.868 30.3402 26.188 30.0202C26.508 29.7002 26.6675 29.3046 26.6663 28.8335C26.6652 28.3624 26.5052 27.9668 26.1863 27.6468C25.8675 27.3268 25.4719 27.1668 24.9997 27.1668C24.5275 27.1668 24.1319 27.3268 23.813 27.6468C23.4941 27.9668 23.3341 28.3624 23.333 28.8335C23.3319 29.3046 23.4919 29.7007 23.813 30.0218C24.1341 30.3429 24.5297 30.5024 24.9997 30.5002ZM14.9997 25.5002C15.4719 25.5002 15.868 25.3402 16.188 25.0202C16.508 24.7002 16.6675 24.3046 16.6663 23.8335C16.6652 23.3624 16.5052 22.9668 16.1863 22.6468C15.8675 22.3268 15.4719 22.1668 14.9997 22.1668C14.5275 22.1668 14.1319 22.3268 13.813 22.6468C13.4941 22.9668 13.3341 23.3624 13.333 23.8335C13.3319 24.3046 13.4919 24.7007 13.813 25.0218C14.1341 25.3429 14.5297 25.5024 14.9997 25.5002ZM19.9997 25.5002C20.4719 25.5002 20.868 25.3402 21.188 25.0202C21.508 24.7002 21.6675 24.3046 21.6663 23.8335C21.6652 23.3624 21.5052 22.9668 21.1863 22.6468C20.8675 22.3268 20.4719 22.1668 19.9997 22.1668C19.5275 22.1668 19.1319 22.3268 18.813 22.6468C18.4941 22.9668 18.3341 23.3624 18.333 23.8335C18.3319 24.3046 18.4919 24.7007 18.813 25.0218C19.1341 25.3429 19.5297 25.5024 19.9997 25.5002ZM24.9997 25.5002C25.4719 25.5002 25.868 25.3402 26.188 25.0202C26.508 24.7002 26.6675 24.3046 26.6663 23.8335C26.6652 23.3624 26.5052 22.9668 26.1863 22.6468C25.8675 22.3268 25.4719 22.1668 24.9997 22.1668C24.5275 22.1668 24.1319 22.3268 23.813 22.6468C23.4941 22.9668 23.3341 23.3624 23.333 23.8335C23.3319 24.3046 23.4919 24.7007 23.813 25.0218C24.1341 25.3429 24.5297 25.5024 24.9997 25.5002ZM11.6663 20.5002H28.333V18.8335C28.333 16.5279 27.5202 14.5629 25.8947 12.9385C24.2691 11.3141 22.3041 10.5013 19.9997 10.5002C17.6952 10.4991 15.7302 11.3118 14.1047 12.9385C12.4791 14.5652 11.6663 16.5302 11.6663 18.8335V20.5002ZM6.66634 37.1668C5.74967 37.1668 4.96523 36.8407 4.31301 36.1885C3.66079 35.5363 3.33412 34.7513 3.33301 33.8335V7.16683C3.33301 6.25016 3.65967 5.46572 4.31301 4.8135C4.96634 4.16127 5.75079 3.83461 6.66634 3.8335H33.333C34.2497 3.8335 35.0347 4.16016 35.688 4.8135C36.3413 5.46683 36.6675 6.25127 36.6663 7.16683V33.8335C36.6663 34.7502 36.3402 35.5352 35.688 36.1885C35.0358 36.8418 34.2508 37.1679 33.333 37.1668H6.66634Z" fill="#FAFAFA"/>
</svg>
