<svg width="38" height="30" viewBox="0 0 38 30" fill="none" xmlns="http://www.w3.org/2000/svg">
<path d="M17.7345 0.81543V0.830273H18.6935V3.12973H18.6938V5.57231C18.4328 5.52839 18.1695 5.50011 17.9051 5.48762C15.8114 5.3866 13.6057 6.17027 12.184 6.53137L11.5946 6.68137L11.64 7.11606C11.6041 7.1023 11.5684 7.08824 11.5317 7.07504L11.4766 7.05504L11.4188 7.04449C11.0987 6.98613 10.7727 6.95129 10.4438 6.9359C8.1409 6.82871 5.69113 7.6752 4.10207 8.07051L3.50738 8.21832L3.5727 8.8277C3.61996 9.26863 3.66785 9.73316 3.78941 10.1943C2.95801 11.2156 3.00207 11.6279 3.13184 12.3181L19.6272 18.0928V23.8782C13.3773 21.285 7.3009 18.1114 0.998555 15.6631V2.38184H2.4048V2.3916H3.37152V5.10801L16.3284 3.43504V0.81543H17.7345ZM17.5714 6.89707C17.6653 6.89603 17.7581 6.89707 17.8498 6.9002C18.07 6.90762 18.2799 6.93113 18.4818 6.96582C19.5403 7.37184 20.0675 7.95309 20.3764 8.64254C18.5596 9.39598 16.9253 9.69777 15.4924 9.87191C15.0801 9.78207 14.75 9.67926 14.4811 9.5677C14.1648 8.95884 13.7252 8.42247 13.1904 7.9927C13.1736 7.90626 13.1583 7.81953 13.1447 7.73254C14.5052 7.37082 16.1614 6.91191 17.5713 6.89699L17.5714 6.89707ZM10.2003 8.34457C10.3081 8.34343 10.4146 8.34462 10.5198 8.34816C10.7623 8.35659 11.004 8.38139 11.2432 8.42238C12.4743 8.88254 13.0828 9.55012 13.4309 10.3385C11.3653 11.1861 9.50746 11.523 7.88676 11.715C6.52582 11.4266 5.92457 11.0127 5.60785 10.5693C5.36785 10.2332 5.25441 9.80738 5.17582 9.27887C6.69887 8.88223 8.58363 8.36066 10.2004 8.34449L10.2003 8.34457ZM21.7968 9.5541L23.8598 10.1364C19.2353 10.9496 14.0868 12.3811 10.9551 13.7118L8.81113 12.9954C10.4701 12.7496 12.3881 12.3116 14.4805 11.3668L14.8938 11.1801C15.0282 11.2145 15.1672 11.2468 15.3118 11.2764L15.4227 11.299L15.5352 11.2857C17.2197 11.0873 19.2778 10.7159 21.5625 9.66215L21.7968 9.5541ZM27.1716 11.0711L31.1822 12.2032L19.6272 15.2014V16.5764L13.1805 14.4555L13.0422 14.4094C16.8841 13.0253 22.7639 11.5732 27.1717 11.0711H27.1716ZM37.1552 12.1399V19.2157L21.1632 24.0722V16.2894L37.1552 12.1399ZM0.844727 17.0662L3.75285 18.3592V19.5056L2.1234 20.1662L0.844805 19.3404L0.844727 17.0662ZM37.0369 20.9133V23.6473L35.3252 24.3907L34.0465 23.8125V21.8214L37.0369 20.9133ZM18.7203 25.0141L19.6272 25.4172L20.3648 25.745L21.8759 25.2083V28.3996L20.1021 29.1842L18.7204 28.1932L18.7203 25.0141Z" fill="#FAFAFA"/>
</svg>
