<svg width="27" height="35" viewBox="0 0 27 35" fill="none" xmlns="http://www.w3.org/2000/svg">
<path d="M33.6663 24.1668H0.333008V27.5002H3.66634V34.1668H30.333V27.5002H33.6663V24.1668ZM14.3997 22.5002C13.983 22.5002 13.6663 22.1835 13.583 21.7668L12.9497 16.7668V16.6668C12.9497 16.2002 13.3163 15.8335 13.783 15.8335H20.333C20.783 15.9002 21.0997 16.3168 21.0497 16.7668L20.4163 21.7668C20.333 22.1835 20.0163 22.5002 19.5997 22.5002H14.3997ZM28.6663 0.833496L32.933 8.6335C32.9997 8.80016 33.0163 8.9835 33.0163 9.16683C33.0163 10.1002 32.2663 10.8335 31.3497 10.8335H28.6663V22.5002H25.333V10.8335H18.6663V14.1668H15.333V10.8335H8.66634V22.5002H5.33301V10.8335H3.03301C2.74714 10.8364 2.46535 10.7656 2.21481 10.628C1.96427 10.4903 1.75345 10.2903 1.60269 10.0474C1.45192 9.80454 1.36631 9.52688 1.35411 9.24126C1.3419 8.95564 1.40352 8.6717 1.53301 8.41683L5.33301 0.833496H28.6663Z" fill="#FAFAFA"/>
</svg>
