<svg width="36" height="26" viewBox="0 0 36 26" fill="none" xmlns="http://www.w3.org/2000/svg">
<path d="M28 15.75C32.1413 15.75 35.5 16.6088 35.5 20.75C35.5 21.0815 35.3683 21.3995 35.1339 21.6339C34.8995 21.8683 34.5815 22 34.25 22H33V23.25C33 23.913 32.7366 24.5489 32.2678 25.0178C31.7989 25.4866 31.163 25.75 30.5 25.75C29.837 25.75 29.2011 25.4866 28.7322 25.0178C28.2634 24.5489 28 23.913 28 23.25V22H8V23.25C8 23.913 7.73661 24.5489 7.26777 25.0178C6.79893 25.4866 6.16304 25.75 5.5 25.75C4.83696 25.75 4.20107 25.4866 3.73223 25.0178C3.26339 24.5489 3 23.913 3 23.25V22H1.75C1.41848 22 1.10054 21.8683 0.866116 21.6339C0.631696 21.3995 0.5 21.0815 0.5 20.75C0.5 20.6838 0.5175 20.6212 0.52 20.5562C0.5175 20.5212 0.5 20.4937 0.5 20.46V11.8837C0.5 10.5725 1.5725 9.5 2.88375 9.5H3.11625C4.4275 9.5 5.5 10.5725 5.5 11.8837V15.75H28ZM3.11625 7H2.88375C2.13625 7 1.135 7.2425 0.5 7.545C1.49375 3.69625 5.25125 0.75 11.1 0.75C16.7013 0.75 20.2125 3.39625 21.75 7H28.4363C29.0356 6.99984 29.6291 7.11777 30.1829 7.34706C30.7367 7.57635 31.2399 7.91251 31.6637 8.33633C32.0875 8.76014 32.4236 9.26331 32.6529 9.81708C32.8822 10.3709 33.0002 10.9644 33 11.5638V12.1087C33.0005 12.2588 32.9713 12.4074 32.9141 12.5461C32.857 12.6848 32.7729 12.8108 32.6668 12.9168C32.5608 13.0229 32.4348 13.107 32.2961 13.1641C32.1574 13.2213 32.0088 13.2505 31.8587 13.25H8V11.8837C7.99901 10.5888 7.48415 9.34718 6.56849 8.43151C5.65282 7.51585 4.4112 7.00099 3.11625 7Z" fill="#FAFAFA"/>
</svg>
