<svg width="40" height="40" viewBox="0 0 40 40" fill="none" xmlns="http://www.w3.org/2000/svg">
<path opacity="0.15" d="M11.8584 37.9167C11.8584 38.0809 12.069 38.2434 12.4781 38.3951C12.8873 38.5468 13.487 38.6846 14.243 38.8006C14.9991 38.9167 15.8966 39.0088 16.8844 39.0716C17.8722 39.1344 18.9309 39.1667 20.0001 39.1667C21.0692 39.1667 22.128 39.1344 23.1157 39.0716C24.1035 39.0088 25.0011 38.9167 25.7571 38.8006C26.5131 38.6846 27.1128 38.5468 27.522 38.3951C27.9311 38.2434 28.1417 38.0809 28.1417 37.9167C28.1417 37.5852 27.284 37.2673 25.7571 37.0329C24.2302 36.7984 22.1594 36.6667 20.0001 36.6667C17.8408 36.6667 15.7699 36.7984 14.243 37.0329C12.7162 37.2673 11.8584 37.5852 11.8584 37.9167Z" fill="#FAFAFA"/>
<path d="M12.7246 35C12.7246 35 13.5579 35.075 15.7246 26.9833C18.0579 18.3333 19.9996 15.8333 20.4663 15.3833" stroke="white" stroke-linecap="round" stroke-linejoin="round"/>
<path d="M26.8838 4.64987C25.1644 5.76938 23.688 7.22363 22.5426 8.92593C21.3973 10.6282 20.6064 12.5437 20.2171 14.5582C20.1744 14.7951 20.2239 15.0394 20.3557 15.2409C20.4874 15.4423 20.6913 15.5857 20.9255 15.6415C22.9259 16.0943 24.9969 16.1402 27.0155 15.7766C29.034 15.413 30.9588 14.6472 32.6755 13.5249C34.3932 12.4016 35.8683 10.9452 37.0134 9.24188C38.1585 7.53856 38.9503 5.6229 39.3421 3.60821C39.3943 3.36737 39.3491 3.11569 39.2164 2.90806C39.0837 2.70042 38.8743 2.55369 38.6338 2.49987C36.6312 2.05147 34.5589 2.01074 32.5402 2.38011C30.5215 2.74948 28.5979 3.5214 26.8838 4.64987Z" fill="#F9F9F9"/>
<path d="M20.6502 15.5249C21.8056 11.861 24.2957 8.76518 27.6267 6.85118C30.9577 4.93718 34.8863 4.34482 38.6335 5.19154C38.7309 5.21098 38.824 5.24767 38.9085 5.29988C39.0816 4.75216 39.2262 4.19586 39.3418 3.63321C39.3714 3.51222 39.3764 3.38653 39.3566 3.26356C39.3368 3.1406 39.2926 3.02284 39.2266 2.91722C39.1606 2.8116 39.0741 2.72027 38.9722 2.64859C38.8704 2.57691 38.7552 2.52635 38.6335 2.49988C36.6327 2.0484 34.5616 2.00316 32.543 2.36685C30.5243 2.73054 28.5993 3.49576 26.8818 4.61715C25.1644 5.73854 23.6895 7.19328 22.5447 8.89516C21.3998 10.597 20.6082 12.5114 20.2168 14.5249C20.1739 14.716 20.1927 14.9158 20.2706 15.0955C20.3485 15.2752 20.4814 15.4255 20.6502 15.5249Z" fill="#EFF0EE"/>
<path d="M26.8838 4.64987C25.1644 5.76938 23.688 7.22363 22.5426 8.92593C21.3973 10.6282 20.6064 12.5437 20.2171 14.5582C20.1744 14.7951 20.2239 15.0394 20.3557 15.2409C20.4874 15.4423 20.6913 15.5857 20.9255 15.6415C22.9259 16.0943 24.9969 16.1402 27.0155 15.7766C29.034 15.413 30.9588 14.6472 32.6755 13.5249C34.3932 12.4016 35.8683 10.9452 37.0134 9.24188C38.1585 7.53856 38.9503 5.6229 39.3421 3.60821C39.3943 3.36737 39.3491 3.11569 39.2164 2.90806C39.0837 2.70042 38.8743 2.55369 38.6338 2.49987C36.6312 2.05147 34.5589 2.01074 32.5402 2.38011C30.5215 2.74948 28.5979 3.5214 26.8838 4.64987Z" stroke="white" stroke-linecap="round" stroke-linejoin="round"/>
<path d="M25.5336 24.5415C24.1181 24.8023 22.7698 25.3464 21.5698 26.1411C20.3698 26.9359 19.3427 27.965 18.5503 29.1665C18.4584 29.3082 18.4245 29.4797 18.4555 29.6457C18.4866 29.8116 18.5801 29.9593 18.717 30.0582C19.8869 30.8899 21.2118 31.4784 22.6133 31.7889C24.0147 32.0995 25.4642 32.1258 26.876 31.8663C28.2877 31.6068 29.6331 31.0667 30.8325 30.2781C32.0319 29.4894 33.0609 28.4682 33.8586 27.2749C33.9505 27.1332 33.9844 26.9617 33.9534 26.7958C33.9224 26.6298 33.8288 26.4821 33.692 26.3832C32.5252 25.5446 31.2016 24.9494 29.8 24.633C28.3984 24.3166 26.9475 24.2855 25.5336 24.5415Z" fill="#F9F9F9"/>
<path d="M18.7164 29.9999L18.8247 30.0749C20.5731 28.1483 22.9623 26.9229 25.5471 26.627C28.1319 26.3311 30.7361 26.9849 32.8747 28.4666C33.2327 28.0745 33.5613 27.6568 33.858 27.2166C33.9499 27.0749 33.9838 26.9034 33.9528 26.7374C33.9218 26.5715 33.8282 26.4238 33.6914 26.3249C32.5178 25.496 31.1899 24.9112 29.7861 24.6051C28.3824 24.299 26.9315 24.2778 25.5194 24.5428C24.1074 24.8078 22.7629 25.3536 21.5657 26.1479C20.3684 26.9421 19.3429 27.9686 18.5497 29.1666C18.4745 29.3028 18.4501 29.4612 18.4806 29.6137C18.5111 29.7663 18.5946 29.9031 18.7164 29.9999Z" fill="#EFF0EE"/>
<path d="M25.5336 24.5415C24.1181 24.8023 22.7698 25.3464 21.5698 26.1411C20.3698 26.9359 19.3427 27.965 18.5503 29.1665C18.4584 29.3082 18.4245 29.4797 18.4555 29.6457C18.4866 29.8116 18.5801 29.9593 18.717 30.0582C19.8869 30.8899 21.2118 31.4784 22.6133 31.7889C24.0147 32.0995 25.4642 32.1258 26.876 31.8663C28.2877 31.6068 29.6331 31.0667 30.8325 30.2781C32.0319 29.4894 33.0609 28.4682 33.8586 27.2749C33.9505 27.1332 33.9844 26.9617 33.9534 26.7958C33.9224 26.6298 33.8288 26.4821 33.692 26.3832C32.5252 25.5446 31.2016 24.9494 29.8 24.633C28.3984 24.3166 26.9475 24.2855 25.5336 24.5415Z" stroke="white" stroke-linecap="round" stroke-linejoin="round"/>
<path d="M10.6748 17.6998C9.61708 16.2282 8.27479 14.9839 6.72741 14.0405C5.18002 13.0972 3.45904 12.4741 1.66643 12.2081C1.4564 12.1809 1.24388 12.2346 1.07206 12.3585C0.900249 12.4823 0.782028 12.6669 0.741428 12.8748C0.419376 14.6591 0.45938 16.4899 0.859062 18.2585C1.25874 20.027 2.00994 21.6971 3.068 23.1696C4.12606 24.642 5.46937 25.8866 7.01807 26.8295C8.56678 27.7724 10.2893 28.3942 12.0831 28.6581C12.2906 28.6833 12.5 28.6297 12.6698 28.5077C12.8396 28.3858 12.9574 28.2045 12.9998 27.9998C13.3242 26.2148 13.2855 24.3827 12.8861 22.613C12.4866 20.8433 11.7345 19.1723 10.6748 17.6998Z" fill="#F9F9F9"/>
<path d="M10.6753 17.7081C9.61912 16.2343 8.27735 14.9879 6.72981 14.0431C5.18227 13.0982 3.46054 12.4742 1.66699 12.2081C1.45696 12.1809 1.24444 12.2346 1.07263 12.3585C0.900813 12.4823 0.782593 12.6669 0.741992 12.8748C0.634606 13.4695 0.567785 14.0709 0.541992 14.6748C4.09266 15.3071 7.29664 17.1975 9.56699 19.9998C11.4701 22.3336 12.631 25.1837 12.9003 28.1831C12.9281 28.1191 12.9477 28.0519 12.9587 27.9831C13.2865 26.2048 13.2533 24.3788 12.861 22.6136C12.4688 20.8484 11.7255 19.1801 10.6753 17.7081Z" fill="#EFF0EE"/>
<path d="M10.6748 17.6998C9.61708 16.2282 8.27479 14.9839 6.72741 14.0405C5.18002 13.0972 3.45904 12.4741 1.66643 12.2081C1.4564 12.1809 1.24388 12.2346 1.07206 12.3585C0.900249 12.4823 0.782028 12.6669 0.741428 12.8748C0.419376 14.6591 0.45938 16.4899 0.859062 18.2585C1.25874 20.027 2.00994 21.6971 3.068 23.1696C4.12606 24.642 5.46937 25.8866 7.01807 26.8295C8.56678 27.7724 10.2893 28.3942 12.0831 28.6581C12.2906 28.6833 12.5 28.6297 12.6698 28.5077C12.8396 28.3858 12.9574 28.2045 12.9998 27.9998C13.3242 26.2148 13.2855 24.3827 12.8861 22.613C12.4866 20.8433 11.7345 19.1723 10.6748 17.6998Z" stroke="white" stroke-linecap="round" stroke-linejoin="round"/>
<path d="M24.1667 18.1669C23.3185 18.741 22.5938 19.4792 22.0356 20.338C21.4774 21.1967 21.097 22.1586 20.9167 23.1669C20.8967 23.2848 20.9228 23.4058 20.9895 23.5051C21.0561 23.6043 21.1584 23.6742 21.275 23.7002C22.2849 23.9138 23.3274 23.9219 24.3405 23.7241C25.3535 23.5263 26.3164 23.1267 27.1718 22.5489C28.0271 21.9711 28.7575 21.2271 29.3192 20.3612C29.881 19.4953 30.2627 18.5251 30.4417 17.5086C30.4593 17.3898 30.4313 17.2687 30.3633 17.1698C30.2952 17.0708 30.1923 17.0013 30.075 16.9752C29.0607 16.7658 28.0146 16.7635 26.9993 16.9682C25.984 17.173 25.0206 17.5807 24.1667 18.1669Z" fill="#F9F9F9"/>
<path d="M21.2999 23.725H21.3499C22.0049 22.0452 23.2315 20.6503 24.8138 19.786C26.3961 18.9217 28.2326 18.6433 29.9999 19C30.1883 18.5265 30.3279 18.0351 30.4166 17.5333C30.4342 17.4145 30.4062 17.2935 30.3382 17.1945C30.2701 17.0956 30.1672 17.026 30.0499 17C29.043 16.7914 28.0044 16.7872 26.9957 16.9874C25.987 17.1877 25.0288 17.5884 24.1779 18.1658C23.3269 18.7432 22.6005 19.4856 22.0418 20.3489C21.483 21.2122 21.1032 22.1788 20.9249 23.1916C20.9055 23.3119 20.9338 23.435 21.0039 23.5346C21.0739 23.6343 21.1802 23.7026 21.2999 23.725Z" fill="#EFF0EE"/>
<path d="M24.1667 18.1669C23.3185 18.741 22.5938 19.4792 22.0356 20.338C21.4774 21.1967 21.097 22.1586 20.9167 23.1669C20.8967 23.2848 20.9228 23.4058 20.9895 23.5051C21.0561 23.6043 21.1584 23.6742 21.275 23.7002C22.2849 23.9138 23.3274 23.9219 24.3405 23.7241C25.3535 23.5263 26.3164 23.1267 27.1718 22.5489C28.0271 21.9711 28.7575 21.2271 29.3192 20.3612C29.881 19.4953 30.2627 18.5251 30.4417 17.5086C30.4593 17.3898 30.4313 17.2687 30.3633 17.1698C30.2952 17.0708 30.1923 17.0013 30.075 16.9752C29.0607 16.7658 28.0146 16.7635 26.9993 16.9682C25.984 17.173 25.0206 17.5807 24.1667 18.1669Z" stroke="white" stroke-linecap="round" stroke-linejoin="round"/>
<path d="M13.9582 8.10015C12.8124 7.10542 11.4784 6.35092 10.0355 5.8814C8.59256 5.41188 7.07004 5.23689 5.55822 5.36682C5.38146 5.38571 5.2185 5.47115 5.10243 5.6058C4.98636 5.74044 4.92586 5.9142 4.93322 6.09182C5.01913 7.60556 5.40767 9.08671 6.07588 10.4477C6.74409 11.8087 7.6784 13.0219 8.82357 14.0155C9.96874 15.0092 11.3015 15.7632 12.7431 16.2329C14.1847 16.7026 15.7058 16.8785 17.2165 16.7502C17.3926 16.7333 17.5555 16.6496 17.6717 16.5163C17.788 16.383 17.8488 16.2102 17.8415 16.0335C17.7597 14.5182 17.3736 13.0349 16.7065 11.672C16.0393 10.309 15.1047 9.09431 13.9582 8.10015Z" fill="#F9F9F9"/>
<path d="M5.15822 7.76677C5.26447 7.65855 5.40688 7.59328 5.55822 7.58343C8.32015 7.34595 11.0733 8.12898 13.2969 9.78438C15.5205 11.4398 17.0603 13.8527 17.6249 16.5668C17.6986 16.4997 17.7563 16.417 17.7937 16.3247C17.8312 16.2324 17.8476 16.1329 17.8415 16.0334C17.759 14.5182 17.3727 13.035 16.7057 11.6719C16.0387 10.3089 15.1046 9.09378 13.9588 8.09881C12.813 7.10383 11.479 6.34927 10.0359 5.87994C8.59278 5.41062 7.07008 5.23611 5.55822 5.36677C5.38146 5.38566 5.2185 5.4711 5.10243 5.60574C4.98636 5.74039 4.92586 5.91415 4.93322 6.09177C4.96763 6.6548 5.04282 7.21461 5.15822 7.76677Z" fill="#EFF0EE"/>
<path d="M13.4082 34.0585C14.4809 31.9994 16.2542 30.3916 18.4082 29.5252M15.6249 27.4085C16.2416 25.1002 19.6249 25.0168 20.9082 23.3668M17.8249 20.4502C17.8249 20.4502 18.6582 18.1585 17.3916 16.7335M14.5332 31.0918L14.2832 30.8252C13.5745 30.0457 12.9746 29.1739 12.4999 28.2335M20.4499 15.3668L20.5249 15.2502C22.7031 12.0259 25.7888 9.52016 29.3916 8.05015M13.9582 8.10015C12.8124 7.10542 11.4784 6.35092 10.0355 5.8814C8.59256 5.41188 7.07004 5.23689 5.55822 5.36682C5.38146 5.38571 5.2185 5.47115 5.10243 5.6058C4.98636 5.74044 4.92586 5.9142 4.93322 6.09182C5.01913 7.60556 5.40767 9.08671 6.07588 10.4477C6.74409 11.8087 7.6784 13.0219 8.82357 14.0155C9.96874 15.0092 11.3015 15.7632 12.7431 16.2329C14.1847 16.7026 15.7058 16.8785 17.2166 16.7502C17.3926 16.7333 17.5555 16.6496 17.6717 16.5163C17.788 16.383 17.8488 16.2102 17.8416 16.0335C17.7597 14.5182 17.3736 13.0349 16.7065 11.672C16.0393 10.309 15.1047 9.09431 13.9582 8.10015Z" stroke="white" stroke-linecap="round" stroke-linejoin="round"/>
<path d="M17.3999 16.7081L17.2832 16.4664C17.2832 16.4664 16.0332 13.9664 11.3165 10.0581M20.9999 23.4998L21.4082 23.0831C22.6461 21.8678 24.0487 20.8327 25.5749 20.0081M18.4165 29.5248C18.4165 29.5248 21.2665 27.4998 26.8499 27.8081M12.4999 28.2331C12.4999 28.2331 11.1915 23.8164 6.5332 19.0664" stroke="white" stroke-linecap="round" stroke-linejoin="round"/>
</svg>
