<svg width="38" height="41" viewBox="0 0 38 41" fill="none" xmlns="http://www.w3.org/2000/svg">
<path d="M16.6667 11.75C16.6667 9.76088 15.9643 7.85322 14.714 6.4467C13.4638 5.04018 11.7681 4.25 10 4.25C8.23189 4.25 6.5362 5.04018 5.28596 6.4467C4.03571 7.85322 3.33333 9.76088 3.33333 11.75C3.33333 13.7391 4.03571 15.6468 5.28596 17.0533C6.5362 18.4598 8.23189 19.25 10 19.25C11.7681 19.25 13.4638 18.4598 14.714 17.0533C15.9643 15.6468 16.6667 13.7391 16.6667 11.75ZM19.75 14.25C18.7431 19.2578 14.7569 23 10 23C4.47917 23 0 17.9609 0 11.75C0 5.53906 4.47917 0.5 10 0.5C14.7569 0.5 18.7431 4.24219 19.75 9.25H24.7361C25.3472 8.48437 26.2361 8 27.2222 8H34.4444C36.2847 8 37.7778 9.67969 37.7778 11.75C37.7778 13.8203 36.2847 15.5 34.4444 15.5H27.2222C26.2361 15.5 25.3472 15.0156 24.7361 14.25H19.75ZM10 6.75C11.1787 6.75 12.3092 7.27678 13.1427 8.21447C13.9762 9.15215 14.4444 10.4239 14.4444 11.75C14.4444 13.0761 13.9762 14.3479 13.1427 15.2855C12.3092 16.2232 11.1787 16.75 10 16.75C8.82126 16.75 7.6908 16.2232 6.8573 15.2855C6.02381 14.3479 5.55556 13.0761 5.55556 11.75C5.55556 10.4239 6.02381 9.15215 6.8573 8.21447C7.6908 7.27678 8.82126 6.75 10 6.75ZM27.7778 19.25C28.7014 19.25 29.4444 20.0859 29.4444 21.125V21.75H36.1111C37.0347 21.75 37.7778 22.5859 37.7778 23.625C37.7778 24.6641 37.0347 25.5 36.1111 25.5H19.4444C18.5208 25.5 17.7778 24.6641 17.7778 23.625C17.7778 22.5859 18.5208 21.75 19.4444 21.75H26.1111V21.125C26.1111 20.0859 26.8542 19.25 27.7778 19.25ZM20 36.75V28H35.5556V36.75C35.5556 38.8203 34.0625 40.5 32.2222 40.5H23.3333C21.4931 40.5 20 38.8203 20 36.75ZM3.33333 25.5H12.2222C14.0625 25.5 15.5556 27.1797 15.5556 29.25C15.5556 31.3203 14.0625 33 12.2222 33H11.1111C11.1111 34.3828 10.1181 35.5 8.88889 35.5H4.44444C3.21528 35.5 2.22222 34.3828 2.22222 33V26.75C2.22222 26.0625 2.72222 25.5 3.33333 25.5ZM12.2222 30.5C12.8333 30.5 13.3333 29.9375 13.3333 29.25C13.3333 28.5625 12.8333 28 12.2222 28H11.1111V30.5H12.2222ZM1.66667 36.75H13.8889C14.8125 36.75 15.5556 37.5859 15.5556 38.625C15.5556 39.6641 14.8125 40.5 13.8889 40.5H1.66667C0.743056 40.5 0 39.6641 0 38.625C0 37.5859 0.743056 36.75 1.66667 36.75Z" fill="#FAFAFA"/>
</svg>
