<svg width="26" height="38" viewBox="0 0 26 38" fill="none" xmlns="http://www.w3.org/2000/svg">
<path d="M13.1314 0.0917969C10.1214 0.0917969 7.28492 1.06758 4.75 2.81156H0.511719V34.4766H4.7232C7.26656 36.2308 10.1166 37.2159 13.1314 37.2159C16.1462 37.2159 18.9942 36.2307 21.5371 34.4766H25.7487V2.81156H21.5128C18.9779 1.06758 16.1414 0.091875 13.1313 0.091875L13.1314 0.0917969ZM2.62102 5.08437H23.6464V32.2623H2.62117V5.08437H2.62102ZM4.08102 6.54453V15.0381L13.9907 6.54438H4.08109L4.08102 6.54453ZM19.7402 6.54453L4.08117 19.9672V24.3911L22.1866 8.86867V6.54445L19.7402 6.54453ZM22.1866 17.4893L6.63469 30.8023H10.27L22.1866 20.7729V17.4893ZM22.1866 22.6821L12.5381 30.8024H22.1866V22.682V22.6821Z" fill="#FAFAFA"/>
</svg>
