<svg width="32" height="35" viewBox="0 0 32 35" fill="none" xmlns="http://www.w3.org/2000/svg">
<path d="M16 11.8335V33.5002V11.8335ZM31 11.8335H1L16 1.8335L31 11.8335ZM7.66667 20.1668H24.3333H7.66667ZM9.33333 33.5002V28.5002C9.33333 28.0581 9.15774 27.6342 8.84518 27.3216C8.53262 27.0091 8.10869 26.8335 7.66667 26.8335H1M1 18.5002V33.5002V18.5002ZM22.6667 33.5002V28.5002C22.6667 27.6668 23.5 26.8335 24.3333 26.8335H31M31 18.5002V33.5002V18.5002Z" fill="#FAFAFA"/>
<path d="M16 11.8335V33.5002M7.66667 20.1668H24.3333M9.33333 33.5002V28.5002C9.33333 28.0581 9.15774 27.6342 8.84518 27.3216C8.53262 27.0091 8.10869 26.8335 7.66667 26.8335H1M1 18.5002V33.5002M22.6667 33.5002V28.5002C22.6667 27.6668 23.5 26.8335 24.3333 26.8335H31M31 18.5002V33.5002M31 11.8335H1L16 1.8335L31 11.8335Z" stroke="#FAFAFA" stroke-width="2" stroke-linecap="round" stroke-linejoin="round"/>
</svg>
