<svg width="40" height="41" viewBox="0 0 40 41" fill="none" xmlns="http://www.w3.org/2000/svg">
<path d="M3.33301 10.5002C3.33301 4.9835 4.48301 3.8335 9.99967 3.8335H29.9997C35.5163 3.8335 36.6663 4.9835 36.6663 10.5002V30.5002C36.6663 36.0168 35.5163 37.1668 29.9997 37.1668H9.99967C4.48301 37.1668 3.33301 36.0168 3.33301 30.5002V10.5002ZM9.99967 32.1668H16.6663H9.99967ZM29.9997 32.1818V32.1668V32.1818Z" fill="#FAFAFA"/>
<path d="M9.99967 32.1668H16.6663M29.9997 32.1818V32.1668M3.33301 10.5002C3.33301 4.9835 4.48301 3.8335 9.99967 3.8335H29.9997C35.5163 3.8335 36.6663 4.9835 36.6663 10.5002V30.5002C36.6663 36.0168 35.5163 37.1668 29.9997 37.1668H9.99967C4.48301 37.1668 3.33301 36.0168 3.33301 30.5002V10.5002Z" stroke="black" stroke-width="1.5" stroke-linecap="round" stroke-linejoin="round"/>
<path d="M19.9997 23.8333C23.6816 23.8333 26.6663 20.8486 26.6663 17.1667C26.6663 13.4848 23.6816 10.5 19.9997 10.5C16.3178 10.5 13.333 13.4848 13.333 17.1667C13.333 20.8486 16.3178 23.8333 19.9997 23.8333Z" stroke="black" stroke-width="1.5" stroke-linecap="round" stroke-linejoin="round"/>
<path d="M25.8327 17.1668H28.3327M19.9993 23.0002V25.5002M14.166 17.1668H11.666M19.9993 11.3335V8.8335" stroke="black" stroke-width="1.5" stroke-linecap="round" stroke-linejoin="round"/>
</svg>
