<svg width="40" height="40" viewBox="0 0 40 40" fill="none" xmlns="http://www.w3.org/2000/svg">
<path d="M36.04 4.69125C31.7594 0.41125 23.9294 1.29937 18.5538 6.67687C15.4031 9.82687 13.8062 13.815 13.8737 17.4425C13.62 21.3275 12.9237 25.0769 11.0856 27.2506L10.45 26.6144L9.46937 27.5944L9.74125 27.8662L3.14813 34.4594L2.87625 34.1875L1.89688 35.1669L5.47813 38.75L6.45875 37.7706L6.18688 37.4994L12.7806 30.9062L13.0525 31.1775L14.0312 30.1981L13.4831 29.6469C15.6556 27.81 19.4 27.1144 23.2812 26.8587C26.91 26.9294 30.9019 25.3331 34.055 22.18C39.4344 16.8025 40.3219 8.9725 36.04 4.69125ZM36.7788 11.6731L35.88 10.7756L36.5775 10.0794C36.69 10.5977 36.7571 11.129 36.7788 11.6731ZM36.2869 9.06687L35.2294 10.125L33.2456 8.14062L34.8194 6.56625C35.464 7.29826 35.9621 8.14715 36.2869 9.06687ZM18.0312 18.0794L20.52 15.5894L22.5056 17.5744L20.0156 20.0631L18.0312 18.0794ZM19.3656 20.7169L17.7887 22.2919C17.1439 21.5593 16.6458 20.7098 16.3212 19.7894L17.3794 18.7325L19.3656 20.7169ZM27.4669 8.64438L29.9544 6.15562L31.9388 8.14125L29.4494 10.6306L27.4669 8.64438ZM31.4338 13.9181L28.9431 16.4131L26.9563 14.4294L29.4494 11.935L31.4338 13.9181ZM28.7975 11.2825L26.3044 13.7756L24.32 11.7912L26.8131 9.2975L28.7975 11.2825ZM25.6519 14.4294L23.1581 16.9225L21.1725 14.9369L23.6669 12.4438L25.6519 14.4294ZM23.6669 11.1388L21.6875 9.15875L24.1806 6.665L26.1588 8.64438L23.6669 11.1388ZM23.015 11.7919L20.52 14.2844L18.5413 12.3044L21.0331 9.81L23.015 11.7919ZM23.1581 18.2281L25.1419 20.2113L22.6531 22.7012L20.67 20.7156L23.1581 18.2281ZM23.8125 17.5744L26.3044 15.0812L28.2887 17.0656L25.7938 19.5594L23.8125 17.5744ZM28.9431 17.7175L30.9194 19.6981L28.4256 22.1912L26.445 20.2113L28.9431 17.7175ZM29.5938 17.065L32.0869 14.5719L34.0675 16.5513L31.5744 19.045L29.5938 17.065ZM30.1025 11.2831L32.5925 8.79313L34.5762 10.7763L32.0894 13.2662L30.1025 11.2831ZM34.1675 5.91375L32.5925 7.48875L30.6063 5.50313L31.6631 4.44625C32.5848 4.76912 33.4353 5.26746 34.1675 5.91375ZM30.6512 4.15375L29.955 4.85L29.0581 3.95312C29.6027 3.97521 30.1337 4.04208 30.6512 4.15375ZM27.7819 3.98187L29.3019 5.5025L26.8138 7.99187L24.8325 6.0125L26.7206 4.12437C27.0765 4.05896 27.4302 4.01146 27.7819 3.98187ZM24.9338 4.60625L24.1812 5.36L23.8606 5.03937C24.2118 4.87929 24.5698 4.73478 24.9338 4.60625ZM22.9925 5.47563L23.5275 6.01125L21.0331 8.50563L20.1075 7.5775C20.9768 6.75821 21.9462 6.052 22.9925 5.47563ZM19.4544 8.23125L20.3819 9.15875L17.8881 11.6519L17.3525 11.1156C17.9289 10.0695 18.6351 9.1004 19.4544 8.23125ZM16.9156 11.9844L17.2356 12.305L16.4819 13.0587C16.6077 12.6979 16.7523 12.3398 16.9156 11.9844ZM16 14.8438L17.8881 12.9562L19.8681 14.9363L17.3794 17.4244L15.8569 15.9025C15.8869 15.5521 15.9346 15.1992 16 14.8438ZM16.7256 18.0788L16.0294 18.775C15.916 18.2509 15.8491 17.7178 15.8294 17.1819L16.7256 18.0788ZM14.0544 26.6794C13.3706 25.9956 14.2606 23.3456 14.8769 21.77C15.3044 22.6444 15.8575 23.4569 16.5656 24.165C17.2738 24.8731 18.0875 25.4275 18.9637 25.8556C17.3881 26.4713 14.7369 27.3619 14.0544 26.6794ZM18.4412 22.945L20.0163 21.3694L22.0006 23.3544L20.9412 24.4112C20.0218 24.0868 19.1732 23.5891 18.4412 22.945ZM21.9556 24.7025L22.6525 24.0056L23.55 24.9038C23.0137 24.8837 22.4801 24.8163 21.9556 24.7025ZM24.8269 24.875L23.3044 23.3525L25.7931 20.8638L27.7744 22.8431L25.8856 24.7331C25.5352 24.7972 25.1818 24.8445 24.8269 24.875ZM27.6719 24.2512L28.425 23.4981L28.7463 23.8181C28.3904 23.9802 28.0323 24.1246 27.6719 24.2512ZM29.6169 23.3794L29.0812 22.8431L31.5744 20.3506L32.5012 21.2775C31.6321 22.0967 30.663 22.803 29.6169 23.3794ZM33.1538 20.625L32.2262 19.6981L34.7194 17.2044L35.2562 17.74C34.6791 18.786 33.9727 19.7553 33.1538 20.625ZM35.6925 16.8719L35.3719 16.5519L36.125 15.7987C35.9975 16.1629 35.8532 16.521 35.6925 16.8719ZM36.6075 14.0106L34.7194 15.8994L32.7406 13.9181L35.2294 11.4294L36.7506 12.9519C36.7197 13.3069 36.6719 13.6602 36.6075 14.0106ZM8.125 15C9.96125 15 11.6881 14.285 12.9869 12.9869C14.2856 11.6887 15 9.96125 15 8.125C15 6.28875 14.2837 4.56188 12.985 3.26375C11.6869 1.96563 9.96062 1.25 8.12437 1.25C6.28812 1.25 4.5625 1.965 3.26437 3.26375C1.96562 4.56188 1.25 6.28875 1.25 8.125C1.25 9.96125 1.965 11.6887 3.26375 12.9869C3.90074 13.6271 4.65836 14.1347 5.49278 14.4802C6.3272 14.8258 7.22186 15.0024 8.125 15ZM12.1756 4.07438C13.2107 5.10604 13.8089 6.49656 13.8462 7.9575C12.3937 7.8954 11.0174 7.29001 9.99 6.26125C8.96058 5.23407 8.35509 3.85732 8.29375 2.40437C9.75417 2.44183 11.1442 3.03982 12.1756 4.07438ZM4.07438 4.07375C5.01672 3.12708 6.2622 2.54229 7.5925 2.42188C7.65768 4.05492 8.33565 5.60347 9.49137 6.75907C10.6471 7.91467 12.1957 8.59248 13.8287 8.6575C13.7083 9.9881 13.1233 11.2338 12.1763 12.1763C11.2337 13.123 9.98802 13.7079 8.6575 13.8281C8.59212 12.1954 7.9142 10.6473 6.75875 9.49187C5.60337 8.33642 4.0552 7.65851 2.4225 7.59313C2.54158 6.2621 3.12656 5.01579 4.07438 4.07375ZM6.26062 9.98875C7.28953 11.0163 7.89493 12.3928 7.95687 13.8456C6.49611 13.8087 5.10562 13.2109 4.07375 12.1763C3.03913 11.1444 2.44135 9.75389 2.40437 8.29313C3.85687 8.35506 5.23315 8.96022 6.26062 9.98875Z" fill="#FAFAFA"/>
</svg>
