<svg width="34" height="31" viewBox="0 0 34 31" fill="none" xmlns="http://www.w3.org/2000/svg">
<path fill-rule="evenodd" clip-rule="evenodd" d="M0.333008 2.33317C0.333008 1.89114 0.508602 1.46722 0.821163 1.15466C1.13372 0.842099 1.55765 0.666504 1.99967 0.666504H31.9997C32.4417 0.666504 32.8656 0.842099 33.1782 1.15466C33.4907 1.46722 33.6663 1.89114 33.6663 2.33317V23.9998C33.6663 24.4419 33.4907 24.8658 33.1782 25.1784C32.8656 25.4909 32.4417 25.6665 31.9997 25.6665H1.99967C1.55765 25.6665 1.13372 25.4909 0.821163 25.1784C0.508602 24.8658 0.333008 24.4419 0.333008 23.9998V2.33317ZM10.333 29.0832C10.333 28.3932 10.9063 27.8332 11.588 27.8332H22.4113C22.5759 27.8325 22.739 27.8644 22.8912 27.9269C23.0435 27.9894 23.1819 28.0814 23.2985 28.1975C23.4151 28.3137 23.5076 28.4517 23.5707 28.6037C23.6338 28.7556 23.6663 28.9186 23.6663 29.0832V30.3332H10.333V29.0832Z" fill="#FAFAFA"/>
</svg>
