<svg width="30" height="31" viewBox="0 0 30 31" fill="none" xmlns="http://www.w3.org/2000/svg">
<path fill-rule="evenodd" clip-rule="evenodd" d="M23.3334 0.5C24.1744 0.499734 24.9844 0.817344 25.601 1.38916C26.2177 1.96098 26.5954 2.74474 26.6584 3.58333L26.6668 3.83333V27.1667H28.3334C28.7582 27.1671 29.1668 27.3298 29.4757 27.6214C29.7846 27.913 29.9705 28.3116 29.9954 28.7357C30.0203 29.1597 29.8823 29.5773 29.6097 29.9031C29.337 30.2288 28.9503 30.4382 28.5284 30.4883L28.3334 30.5H1.66677C1.24197 30.4995 0.833386 30.3369 0.524493 30.0453C0.215599 29.7536 0.0297151 29.3551 0.00481985 28.931C-0.0200753 28.5069 0.117898 28.0894 0.390548 27.7636C0.663199 27.4379 1.04995 27.2285 1.47177 27.1783L1.66677 27.1667H3.33344V3.83333C3.33317 2.99237 3.65078 2.18239 4.2226 1.56575C4.79442 0.949118 5.57818 0.571406 6.41677 0.508334L6.66677 0.5H23.3334ZM19.1668 13.8333C18.8385 13.8333 18.5134 13.898 18.2101 14.0236C17.9067 14.1493 17.6312 14.3334 17.399 14.5656C17.1669 14.7977 16.9827 15.0733 16.8571 15.3766C16.7314 15.6799 16.6668 16.005 16.6668 16.3333C16.6668 16.6616 16.7314 16.9867 16.8571 17.29C16.9827 17.5934 17.1669 17.869 17.399 18.1011C17.6312 18.3332 17.9067 18.5174 18.2101 18.643C18.5134 18.7687 18.8385 18.8333 19.1668 18.8333C19.8298 18.8333 20.4657 18.5699 20.9345 18.1011C21.4034 17.6323 21.6668 16.9964 21.6668 16.3333C21.6668 15.6703 21.4034 15.0344 20.9345 14.5656C20.4657 14.0967 19.8298 13.8333 19.1668 13.8333Z" fill="#FAFAFA"/>
</svg>
