<svg width="26" height="27" viewBox="0 0 26 27" fill="none" xmlns="http://www.w3.org/2000/svg">
<path d="M25.2147 19.708C25.1621 20.2309 24.9736 20.731 24.668 21.1586C24.3898 21.5708 24.0144 21.908 23.5748 22.1406C23.1353 22.3731 22.6453 22.4938 22.148 22.492H18.228C18.1588 22.851 18.0561 23.2027 17.9214 23.5426C17.6529 24.1948 17.2578 24.7873 16.7589 25.2858C16.26 25.7842 15.6671 26.1788 15.0147 26.4466C14.3547 26.7133 13.6467 26.844 12.9347 26.8333H12.828C12.1693 26.8272 11.5178 26.696 10.908 26.4466C10.2456 26.1894 9.64559 25.794 9.14802 25.2866C8.64561 24.7912 8.25072 24.1975 7.98802 23.5426C7.85321 23.2023 7.75053 22.8501 7.68136 22.4906H3.92136C3.43029 22.5299 2.93712 22.4471 2.48581 22.2496C2.03449 22.0521 1.63904 21.746 1.33469 21.3586C1.04676 20.8911 0.866294 20.3654 0.806341 19.8196C0.746389 19.2738 0.808445 18.7215 0.988025 18.2026C1.27796 17.4329 1.6728 16.707 2.16136 16.0453C2.72297 15.3669 3.09961 14.5549 3.25469 13.688C3.25469 9.83996 3.25469 8.53462 5.36136 6.03062C6.05589 5.20088 6.91959 4.52901 7.89469 4.05996L8.93469 3.55329C8.98559 3.52111 9.03067 3.48053 9.06802 3.43329C9.10829 3.38282 9.13574 3.32335 9.14802 3.25996C9.29944 2.60976 9.61118 2.0078 10.0548 1.50896C10.4985 1.01011 11.0599 0.630231 11.688 0.403957C12.3163 0.177126 12.9914 0.111244 13.6517 0.212323C14.3119 0.313403 14.9364 0.578225 15.468 0.982624C16.1972 1.56353 16.6747 2.40295 16.8014 3.32662V3.45996C16.8401 3.51439 16.8902 3.55986 16.948 3.59329L17.908 4.05996C18.8814 4.52662 19.7454 5.19329 20.4414 6.01729C22.548 8.53462 22.548 9.83996 22.548 13.688C22.7267 14.608 23.1347 15.4693 23.7347 16.192C24.2147 16.8333 24.604 17.5373 24.8947 18.2826C25.1134 18.7253 25.224 19.2133 25.2147 19.708Z" fill="#1A2A4D"/>
</svg>
