<svg width="32" height="33" viewBox="0 0 32 33" fill="none" xmlns="http://www.w3.org/2000/svg">
<path d="M13.3333 5.5C12.0073 5.5 10.7355 6.02678 9.7978 6.96447C8.86012 7.90215 8.33333 9.17392 8.33333 10.5C8.33333 11.8261 8.86012 13.0979 9.7978 14.0355C10.7355 14.9732 12.0073 15.5 13.3333 15.5C14.6594 15.5 15.9312 14.9732 16.8689 14.0355C17.8065 13.0979 18.3333 11.8261 18.3333 10.5C18.3333 9.17392 17.8065 7.90215 16.8689 6.96447C15.9312 6.02678 14.6594 5.5 13.3333 5.5ZM8 18.1667C6.67392 18.1667 5.40215 18.6935 4.46447 19.6311C3.52678 20.5688 3 21.8406 3 23.1667V24.7507C3 25.756 3.728 26.612 4.72 26.7733C7.66667 27.2547 10.644 27.488 13.6213 27.472C13.8293 27.4707 13.9547 27.24 13.8533 27.0587C13.0728 25.6662 12.6642 24.0963 12.6667 22.5C12.6667 21.4507 12.84 20.4413 13.16 19.5C13.1738 19.4584 13.1779 19.4141 13.1717 19.3707C13.1656 19.3273 13.1495 19.2859 13.1247 19.2497C13.0999 19.2136 13.0671 19.1836 13.0288 19.1623C12.9905 19.1409 12.9478 19.1287 12.904 19.1267C12.03 19.0873 11.1654 18.9304 10.3333 18.66L9.17867 18.2813C8.94463 18.2063 8.70045 18.1676 8.45467 18.1667H8ZM23 20.5C23 20.2348 22.8946 19.9804 22.7071 19.7929C22.5196 19.6054 22.2652 19.5 22 19.5C21.7348 19.5 21.4804 19.6054 21.2929 19.7929C21.1054 19.9804 21 20.2348 21 20.5V22.864C21 23.184 21.1533 23.484 21.412 23.672L22.7453 24.6427C22.96 24.7986 23.2278 24.8629 23.4898 24.8214C23.7519 24.7799 23.9867 24.636 24.1427 24.4213C24.2986 24.2067 24.3629 23.9389 24.3214 23.6768C24.2799 23.4148 24.136 23.1799 23.9213 23.024L23 22.3547V20.5Z" fill="#1A2A4D"/>
<path fill-rule="evenodd" clip-rule="evenodd" d="M21.9998 29.8334C23.9448 29.8334 25.81 29.0608 27.1853 27.6855C28.5606 26.3103 29.3332 24.445 29.3332 22.5001C29.3332 20.5552 28.5606 18.6899 27.1853 17.3146C25.81 15.9394 23.9448 15.1667 21.9998 15.1667C20.0549 15.1667 18.1897 15.9394 16.8144 17.3146C15.4391 18.6899 14.6665 20.5552 14.6665 22.5001C14.6665 24.445 15.4391 26.3103 16.8144 27.6855C18.1897 29.0608 20.0549 29.8334 21.9998 29.8334ZM21.9998 27.8334C23.4143 27.8334 24.7709 27.2715 25.7711 26.2713C26.7713 25.2711 27.3332 23.9146 27.3332 22.5001C27.3332 21.0856 26.7713 19.729 25.7711 18.7288C24.7709 17.7287 23.4143 17.1667 21.9998 17.1667C20.5853 17.1667 19.2288 17.7287 18.2286 18.7288C17.2284 19.729 16.6665 21.0856 16.6665 22.5001C16.6665 23.9146 17.2284 25.2711 18.2286 26.2713C19.2288 27.2715 20.5853 27.8334 21.9998 27.8334Z" fill="#1A2A4D"/>
</svg>
