<svg width="32" height="33" viewBox="0 0 32 33" fill="none" xmlns="http://www.w3.org/2000/svg">
<g clip-path="url(#clip0_2128_4630)">
<path d="M18.9999 3.5C18.9999 4.29565 18.6838 5.05871 18.1212 5.62132C17.5586 6.18393 16.7955 6.5 15.9999 6.5C15.2042 6.5 14.4412 6.18393 13.8785 5.62132C13.3159 5.05871 12.9999 4.29565 12.9999 3.5C12.9999 2.70435 13.3159 1.94129 13.8785 1.37868C14.4412 0.81607 15.2042 0.5 15.9999 0.5C16.7955 0.5 17.5586 0.81607 18.1212 1.37868C18.6838 1.94129 18.9999 2.70435 18.9999 3.5ZM12.8799 8.004C13.0204 7.84572 13.1929 7.71898 13.3859 7.63212C13.579 7.54525 13.7882 7.50023 13.9999 7.5H16.8899C18.3739 7.5 19.5299 8.786 19.3759 10.26L18.5159 18.426C18.4871 18.6951 18.428 18.9601 18.3399 19.216L17.7039 21.028L18.1299 21.512C18.2208 21.6182 18.2975 21.7359 18.3579 21.862L22.3579 30.362C22.4477 30.541 22.5009 30.7361 22.5141 30.9359C22.5273 31.1357 22.5005 31.3362 22.435 31.5254C22.3695 31.7147 22.2669 31.8889 22.133 32.0378C21.9991 32.1868 21.8368 32.3074 21.6556 32.3926C21.4744 32.4778 21.2779 32.5258 21.0778 32.5339C20.8778 32.542 20.6781 32.5099 20.4906 32.4396C20.3031 32.3693 20.1316 32.2621 19.9862 32.1244C19.8407 31.9868 19.7244 31.8214 19.6439 31.638L15.7319 23.33L12.3719 19.488C12.1133 19.1942 11.9798 18.8109 11.9999 18.42L12.2759 13.194L11.4059 14.172L10.4779 19.744C10.4126 20.1365 10.1941 20.487 9.87044 20.7185C9.54675 20.9499 9.14439 21.0432 8.75187 20.978C8.35935 20.9128 8.00882 20.6943 7.7774 20.3706C7.54598 20.0469 7.45263 19.6445 7.51787 19.252L8.51787 13.252C8.56476 12.9731 8.68956 12.7131 8.87787 12.502L12.8779 8.002L12.8799 8.004Z" fill="#1A2A4D"/>
<path d="M12.5 23.99V21.154L14.908 23.904L15.43 24.952C15.3758 25.118 15.2947 25.2741 15.19 25.414L10.19 31.914C9.94761 32.2296 9.58975 32.4359 9.19518 32.4877C8.8006 32.5395 8.40162 32.4324 8.08602 32.19C7.77041 31.9475 7.56402 31.5897 7.51226 31.1951C7.4605 30.8005 7.56761 30.4016 7.81002 30.086L12.5 23.99ZM20.94 15.56L19.952 14.572L20.362 10.886L20.374 10.752L22.622 13H25.502C25.8998 13 26.2814 13.158 26.5627 13.4393C26.844 13.7206 27.002 14.1021 27.002 14.5C27.002 14.8978 26.844 15.2793 26.5627 15.5606C26.2814 15.8419 25.8998 16 25.502 16H22C21.8028 16 21.6074 15.9612 21.4252 15.8857C21.243 15.8102 21.0774 15.6995 20.938 15.56H20.94Z" fill="#1A2A4D"/>
</g>
<defs>
<clipPath id="clip0_2128_4630">
<rect width="32" height="32" fill="white" transform="translate(0 0.5)"/>
</clipPath>
</defs>
</svg>
