<svg width="32" height="33" viewBox="0 0 32 33" fill="none" xmlns="http://www.w3.org/2000/svg">
<path d="M1.616 0.5L0 2.116L2.84677 7.03908L4.69292 6.76831L15.9618 18.0385L15.0006 18.9615C14.5083 19.4538 14.5083 20.1997 15.0006 20.692L15.5003 21.1929C15.9926 21.6852 16.7458 21.6852 17.1151 21.1929L18.5772 22.6538C18.4542 23.3923 18.5772 24.2698 19.1926 24.8852L25.8462 31.5006C27.2 32.8545 29.4154 32.8545 30.7692 31.5006C32.3692 30.0237 32.3545 27.8157 31.0006 26.4618L24.3852 19.8071C23.7698 19.1917 22.8923 18.9455 22.1538 19.1917L20.5378 17.7308C20.9071 17.2385 20.9071 16.4852 20.5378 16.1148L20.0763 15.6545C19.9644 15.5378 19.8301 15.4449 19.6814 15.3815C19.5327 15.3181 19.3727 15.2854 19.2111 15.2854C19.0494 15.2854 18.8894 15.3181 18.7407 15.3815C18.5921 15.4449 18.4577 15.5378 18.3458 15.6545L17.5385 16.4618L6.26954 5.19292L6.53785 3.34677L1.616 0.5ZM25.616 0.538154C23.1877 0.336308 19.968 1.94615 18.4615 3.34554C16.608 5.19908 16.9108 7.62246 18.384 9.96215L15.7698 12.5775L17.616 14.6538C18.6006 13.7923 20.0529 13.7923 21.0375 14.6538L21.5385 15.1535L21.6542 15.2692L22.7311 14.1923C24.9563 15.5006 27.2726 15.6889 29.0388 13.9228C30.7618 12.3228 32.6302 8.37692 31.7686 6.03846L28.3077 9.61508C27.8154 10.1074 27.0695 10.1074 26.5772 9.61508L22.9994 6.03846C22.8827 5.92658 22.7899 5.79225 22.7264 5.64356C22.663 5.49487 22.6303 5.33488 22.6303 5.17323C22.6303 5.01158 22.663 4.8516 22.7264 4.7029C22.7899 4.55421 22.8827 4.41989 22.9994 4.308L26.5785 0.731385C26.2708 0.623077 25.9631 0.567692 25.616 0.538154ZM12.0775 15.8846L7.61477 20.3462C7.13514 20.24 6.64506 20.1884 6.15385 20.1923C2.70769 20.1923 0 22.9 0 26.3462C0 29.7923 2.70769 32.5 6.15385 32.5C9.6 32.5 12.3077 29.7923 12.3077 26.3462C12.3077 25.7148 12.208 25.108 12.0382 24.5382L14.6535 21.9228L14.2695 21.4231C13.2849 20.4385 13.2923 18.9468 14.1538 17.9609L12.0775 15.8846ZM21.616 21.5006C21.7698 21.5006 21.9151 21.5302 22.0382 21.6545L29.3083 28.9234C29.5545 29.1695 29.5545 29.5609 29.3083 29.8071C29.0622 30.0532 28.6683 30.0532 28.4222 29.8071L21.1545 22.5382C20.9083 22.292 20.9083 21.9006 21.1545 21.6545C21.2775 21.5314 21.4622 21.5006 21.616 21.5006ZM7.00062 23.1523L9.34646 25.4994L8.49969 28.6908L5.30831 29.5375L2.96123 27.1905L3.808 23.9991L7.00062 23.1523Z" fill="#1A2A4D"/>
</svg>
