<svg width="28" height="25" viewBox="0 0 28 25" fill="none" xmlns="http://www.w3.org/2000/svg">
<path d="M11.904 1.89078C12.1139 1.5197 12.4185 1.21099 12.7868 0.996191C13.155 0.781394 13.5737 0.668213 14 0.668213C14.4264 0.668213 14.845 0.781394 15.2133 0.996191C15.5815 1.21099 15.8862 1.5197 16.096 1.89078L27.008 21.0081C27.936 22.6348 26.7707 24.6668 24.9094 24.6668H3.09337C1.23203 24.6668 0.0666999 22.6348 0.9947 21.0081L11.904 1.89078ZM12.6667 10.0001V12.6668C12.6667 13.0204 12.8072 13.3595 13.0572 13.6096C13.3073 13.8596 13.6464 14.0001 14 14.0001C14.3537 14.0001 14.6928 13.8596 14.9428 13.6096C15.1929 13.3595 15.3334 13.0204 15.3334 12.6668V10.0001C15.3334 9.64649 15.1929 9.30735 14.9428 9.05731C14.6928 8.80726 14.3537 8.66678 14 8.66678C13.6464 8.66678 13.3073 8.80726 13.0572 9.05731C12.8072 9.30735 12.6667 9.64649 12.6667 10.0001ZM14 16.0001C13.4696 16.0001 12.9609 16.2108 12.5858 16.5859C12.2107 16.961 12 17.4697 12 18.0001C12 18.5305 12.2107 19.0393 12.5858 19.4143C12.9609 19.7894 13.4696 20.0001 14 20.0001C14.5305 20.0001 15.0392 19.7894 15.4142 19.4143C15.7893 19.0393 16 18.5305 16 18.0001C16 17.4697 15.7893 16.961 15.4142 16.5859C15.0392 16.2108 14.5305 16.0001 14 16.0001Z" fill="#1A2A4D"/>
</svg>
