<svg width="24" height="24" viewBox="0 0 24 24" fill="none" xmlns="http://www.w3.org/2000/svg">
<path d="M10 3.75C9.00544 3.75 8.05161 4.14509 7.34835 4.84835C6.64509 5.55161 6.25 6.50544 6.25 7.5C6.25 8.49456 6.64509 9.44839 7.34835 10.1517C8.05161 10.8549 9.00544 11.25 10 11.25C10.9946 11.25 11.9484 10.8549 12.6517 10.1517C13.3549 9.44839 13.75 8.49456 13.75 7.5C13.75 6.50544 13.3549 5.55161 12.6517 4.84835C11.9484 4.14509 10.9946 3.75 10 3.75ZM6 13.25C5.00544 13.25 4.05161 13.6451 3.34835 14.3483C2.64509 15.0516 2.25 16.0054 2.25 17V18.188C2.25 18.942 2.796 19.584 3.54 19.705C5.75 20.066 7.983 20.241 10.216 20.229C10.372 20.228 10.466 20.055 10.39 19.919C9.80463 18.8747 9.49811 17.6972 9.5 16.5C9.5 15.713 9.63 14.956 9.87 14.25C9.88038 14.2188 9.8834 14.1856 9.87881 14.153C9.87422 14.1205 9.86216 14.0894 9.84356 14.0623C9.82496 14.0352 9.80034 14.0127 9.77161 13.9967C9.74289 13.9807 9.71085 13.9716 9.678 13.97C9.02252 13.9405 8.37402 13.8228 7.75 13.62L6.884 13.336C6.70847 13.2797 6.52534 13.2507 6.341 13.25H6ZM17.25 15C17.25 14.8011 17.171 14.6103 17.0303 14.4697C16.8897 14.329 16.6989 14.25 16.5 14.25C16.3011 14.25 16.1103 14.329 15.9697 14.4697C15.829 14.6103 15.75 14.8011 15.75 15V16.773C15.75 17.013 15.865 17.238 16.059 17.379L17.059 18.107C17.22 18.224 17.4208 18.2722 17.6174 18.241C17.8139 18.2099 17.99 18.102 18.107 17.941C18.224 17.78 18.2722 17.5792 18.241 17.3826C18.2099 17.1861 18.102 17.01 17.941 16.893L17.25 16.391V15Z" fill="#1A2A4D"/>
<path fill-rule="evenodd" clip-rule="evenodd" d="M16.5 22C17.9587 22 19.3576 21.4205 20.3891 20.3891C21.4205 19.3576 22 17.9587 22 16.5C22 15.0413 21.4205 13.6424 20.3891 12.6109C19.3576 11.5795 17.9587 11 16.5 11C15.0413 11 13.6424 11.5795 12.6109 12.6109C11.5795 13.6424 11 15.0413 11 16.5C11 17.9587 11.5795 19.3576 12.6109 20.3891C13.6424 21.4205 15.0413 22 16.5 22ZM16.5 20.5C17.5609 20.5 18.5783 20.0786 19.3284 19.3284C20.0786 18.5783 20.5 17.5609 20.5 16.5C20.5 15.4391 20.0786 14.4217 19.3284 13.6716C18.5783 12.9214 17.5609 12.5 16.5 12.5C15.4391 12.5 14.4217 12.9214 13.6716 13.6716C12.9214 14.4217 12.5 15.4391 12.5 16.5C12.5 17.5609 12.9214 18.5783 13.6716 19.3284C14.4217 20.0786 15.4391 20.5 16.5 20.5Z" fill="#1A2A4D"/>
</svg>
