<svg width="22" height="21" viewBox="0 0 22 21" fill="none" xmlns="http://www.w3.org/2000/svg">
<path d="M10.0624 1.21249C6.87494 1.99998 6.08744 3.08749 5.71244 7.32499C5.37494 10.775 5.37494 10.775 6.53744 12.5375C7.28744 13.7 7.62494 14.7125 7.54994 15.3875C7.43744 16.3625 7.17494 16.5125 4.17494 17.4875C0.799943 18.575 0.349944 19.025 1.47494 20.15C2.29994 21.0125 9.57494 21.0125 10.2499 20.1875C10.6249 19.7375 10.6249 19.5125 10.2874 19.1C9.98744 18.725 9.94994 18.5 10.2499 18.3125C10.8499 17.9375 10.6999 17.525 9.68744 17.075C9.16244 16.85 8.74994 16.4 8.74994 16.0625C8.74994 15.425 9.34994 15.3125 9.68744 15.875C9.79994 16.0625 10.3999 16.25 10.9999 16.25C11.5999 16.25 12.1999 16.0625 12.3124 15.875C12.6499 15.3125 13.2499 15.425 13.2499 16.0625C13.2499 16.4 12.8374 16.85 12.3124 17.075C11.2999 17.525 11.1499 17.9375 11.7499 18.3125C12.0499 18.5 12.0124 18.725 11.7124 19.1C11.3749 19.5125 11.3749 19.7375 11.7499 20.1875C12.4624 21.05 19.6999 21.0125 20.5624 20.15C21.6499 19.0625 21.0499 18.4625 17.7499 17.4125C14.8249 16.5125 14.5624 16.325 14.4499 15.3875C14.3749 14.7125 14.7124 13.7 15.4624 12.5375C16.6249 10.7375 16.6249 10.7375 16.2874 7.47499C16.0999 5.44999 15.7249 3.98749 15.3874 3.57499C15.0499 3.23749 14.6374 2.48749 14.4124 1.88749C14.0749 1.02499 13.8124 0.874985 12.6124 0.912485C11.8249 0.949986 10.6999 1.06248 10.0624 1.21249ZM14.4124 5.63749C14.5999 5.82499 14.9374 6.94999 15.1249 8.14999C15.4249 10.1375 15.3874 10.4375 14.4874 11.8625C13.3999 13.6625 11.8249 15.0875 10.9999 15.0875C10.1749 15.0875 8.59994 13.6625 7.51244 11.9C6.68744 10.55 6.61244 10.1375 6.83744 8.14999C6.98744 6.94999 7.21244 5.74999 7.32494 5.56249C7.62494 5.07499 13.9249 5.14999 14.4124 5.63749Z" fill="#1A2A4D"/>
</svg>
