<svg width="52" height="76" viewBox="0 0 52 76" fill="none" xmlns="http://www.w3.org/2000/svg">
<path d="M1 14.8333C1 10.1667 1 7.83333 1.90833 6.05C2.70727 4.48205 3.98205 3.20727 5.55 2.40833C7.33333 1.5 9.66667 1.5 14.3333 1.5H37.6667C42.3333 1.5 44.6667 1.5 46.45 2.40833C48.0179 3.20727 49.2927 4.48205 50.0917 6.05C51 7.83333 51 10.1667 51 14.8333V70.2708C51 72.2958 51 73.3083 50.5792 73.8625C50.3973 74.1035 50.1653 74.3021 49.8991 74.4446C49.6329 74.587 49.3389 74.6699 49.0375 74.6875C48.3417 74.7292 47.5 74.1667 45.8167 73.0458L26 59.8333L6.18333 73.0417C4.5 74.1667 3.65833 74.7292 2.95833 74.6875C2.65765 74.6693 2.36449 74.5862 2.09905 74.4437C1.83362 74.3013 1.60223 74.103 1.42083 73.8625C0.999999 73.3083 1 72.2958 1 70.2708V14.8333Z" fill="#60636C" stroke="#60636C" stroke-width="1.5" stroke-linecap="round" stroke-linejoin="round"/>
</svg>
