<svg width="24" height="24" viewBox="0 0 24 24" fill="none" xmlns="http://www.w3.org/2000/svg">
<path d="M3.65896 9.0245C3.99361 9.0249 4.31444 9.15801 4.55107 9.39464C4.7877 9.63127 4.92081 9.9521 4.92121 10.2867C4.92121 10.9827 4.35496 11.5479 3.65896 11.5479C2.96296 11.5479 2.39746 10.9824 2.39746 10.2864C2.39746 9.95174 2.53034 9.63079 2.7669 9.39409C3.00346 9.1574 3.32432 9.02432 3.65896 9.02412V9.0245ZM12.0237 2C12.2417 2 12.4575 2.04294 12.6589 2.12636C12.8603 2.20977 13.0433 2.33204 13.1975 2.48618C13.3516 2.64032 13.4739 2.82331 13.5573 3.02471C13.6407 3.2261 13.6836 3.44195 13.6836 3.65994C13.6836 3.87792 13.6407 4.09378 13.5573 4.29517C13.4739 4.49656 13.3516 4.67955 13.1975 4.83369C13.0433 4.98783 12.8603 5.1101 12.6589 5.19352C12.4575 5.27694 12.2417 5.31988 12.0237 5.31987C11.8059 5.31992 11.5901 5.27706 11.3889 5.19373C11.1876 5.1104 11.0047 4.98823 10.8506 4.83421C10.6966 4.68019 10.5744 4.49732 10.491 4.29606C10.4076 4.09481 10.3647 3.8791 10.3647 3.66125C10.3647 3.22105 10.5394 2.79884 10.8505 2.48736C11.1615 2.17588 11.5835 2.0006 12.0237 2ZM2.88084 7.36512L3.13884 7.77537C3.42455 7.59612 3.76966 7.53738 4.09859 7.61203C4.42752 7.68667 4.71347 7.88861 4.89384 8.17362L5.30296 7.91488C5.05422 7.5213 4.65957 7.24242 4.20553 7.13936C3.75149 7.03631 3.27511 7.1175 2.88084 7.36512ZM4.04446 5.41437L4.20346 5.8715C4.52218 5.76072 4.87183 5.78096 5.17564 5.92777C5.47945 6.07457 5.71258 6.33595 5.82384 6.6545L6.28059 6.49512C6.12672 6.05577 5.80495 5.69534 5.38579 5.49282C4.96663 5.29031 4.48428 5.26223 4.04446 5.41475V5.41437ZM5.61721 3.77525L5.66971 4.25675C6.00516 4.22076 6.3412 4.31919 6.60422 4.53048C6.86723 4.74176 7.03579 5.04868 7.07296 5.384L7.55371 5.33112C7.50267 4.86832 7.27019 4.44465 6.90725 4.15299C6.54431 3.86133 6.08053 3.72549 5.61759 3.77525H5.61721ZM7.46109 3.0125C7.796 3.05306 8.10118 3.2247 8.30979 3.48983C8.51841 3.75495 8.61344 4.09195 8.57409 4.427L9.05484 4.484C9.10931 4.0216 8.97822 3.55647 8.69028 3.19058C8.40235 2.82468 7.98108 2.5879 7.51884 2.53212L7.46109 3.0125ZM15.1726 2.39225C15.3697 2.66589 15.4504 3.00648 15.397 3.33948C15.3436 3.67248 15.1604 3.97075 14.8876 4.169L15.1711 4.56162C15.5479 4.28823 15.8009 3.87659 15.8747 3.41694C15.9486 2.95729 15.8371 2.48712 15.5648 2.1095L15.1726 2.39225ZM17.1398 3.33425C17.2702 3.64513 17.2721 3.99499 17.1452 4.30729C17.0183 4.6196 16.7729 4.86893 16.4626 5.00075L16.6508 5.447C17.0793 5.26537 17.4183 4.92134 17.5936 4.49027C17.7689 4.05919 17.7662 3.57622 17.5861 3.14713L17.1398 3.33425ZM18.845 4.69362C18.9023 5.02613 18.8254 5.36779 18.6313 5.64375C18.4371 5.91971 18.1415 6.10746 17.8092 6.16587L17.8917 6.6425C18.3504 6.56228 18.7586 6.30342 19.0267 5.92268C19.2948 5.54194 19.401 5.07041 19.322 4.6115L18.845 4.694V4.69362ZM18.86 7.604L18.8337 8.087C19.2987 8.11186 19.7545 7.95133 20.1013 7.64062C20.448 7.32991 20.6574 6.89437 20.6836 6.4295L20.1998 6.40287C20.1809 6.73972 20.0291 7.05531 19.7779 7.28051C19.5267 7.50572 19.1965 7.62217 18.8596 7.60437L18.86 7.604ZM20.1485 11.7069C19.4465 11.7069 18.8772 11.1421 18.8772 10.4461C18.8772 9.75013 19.4461 9.18537 20.1485 9.18537C20.8497 9.18537 21.4197 9.74975 21.4197 10.4461C21.4197 11.1421 20.8497 11.7069 20.1485 11.7069ZM21.4898 13.8612L21.9653 13.862L22.9381 17.2587C23.0131 17.5194 23.3041 17.6626 23.5883 17.5812C23.8733 17.4999 24.0533 17.2509 23.9573 16.925L22.9572 13.4405C22.5575 12.0474 21.3912 12.0909 21.3912 12.0909H18.9061C18.9061 12.0909 17.741 12.0474 17.3401 13.4405L16.3392 16.925C16.244 17.2509 16.424 17.4999 16.709 17.5812C16.9932 17.6626 17.2842 17.5194 17.3581 17.2587L18.3316 13.862L18.8063 13.8612L17.507 18.3927H22.7907L21.4906 13.8612H21.4898ZM3.63271 13.379C4.08796 13.379 4.35571 13.2125 4.36546 11.954H2.92021C2.93071 13.2125 3.17446 13.379 3.63271 13.379Z" fill="#1A2A4D"/>
<path d="M5.35048 13.9535H5.81173V17.4774C5.81173 17.7827 6.05848 18.0309 6.36223 18.0309C6.43451 18.0307 6.50603 18.0162 6.57268 17.9882C6.63933 17.9603 6.69977 17.9194 6.75053 17.8679C6.80129 17.8164 6.84136 17.7554 6.86843 17.6884C6.89549 17.6214 6.90902 17.5497 6.90823 17.4774V13.5688C6.90823 12.677 6.17698 11.954 5.28523 11.954H4.71448C4.71448 13.1822 4.35598 13.7023 3.82723 13.7023V15.1224C3.98323 15.1888 4.09348 15.3444 4.09348 15.5244C4.09348 15.7659 3.89998 15.9647 3.65848 15.9647C3.41623 15.9647 3.22348 15.7727 3.22348 15.5304C3.22348 15.3493 3.33223 15.1952 3.48823 15.1284V13.7072C2.93323 13.7072 2.59123 13.1398 2.59123 11.954H2.04823C1.15573 11.954 0.360352 12.677 0.360352 13.5688V17.4774C0.360352 17.7827 0.599602 18.0305 0.904852 18.0305C1.20935 18.0305 1.45685 17.7827 1.45685 17.4774V13.9535H1.9136V18.3928H5.35048V13.9535ZM14.5571 8.05403H14.1371V21.1505C14.1371 21.6677 13.7179 22.0865 13.2004 22.0865C12.6829 22.0865 12.264 21.6677 12.264 21.1505V13.0393H11.784V21.1505C11.7771 21.3945 11.6753 21.6261 11.5003 21.7962C11.3253 21.9664 11.0909 22.0615 10.8469 22.0615C10.6028 22.0615 10.3684 21.9664 10.1934 21.7962C10.0184 21.6261 9.91663 21.3945 9.90973 21.1505V8.05403H9.48823L9.48748 12.8837C9.48748 13.0732 9.41217 13.255 9.27813 13.3891C9.14409 13.5231 8.96229 13.5984 8.77273 13.5984C8.58316 13.5984 8.40136 13.5231 8.26732 13.3891C8.13328 13.255 8.05798 13.0732 8.05798 12.8837V7.54366C8.05798 6.36766 8.89948 5.70166 10.0519 5.70166H13.9942C15.1462 5.70166 15.9881 6.36803 15.9881 7.54366V12.8837C15.9881 13.0732 15.9128 13.255 15.7788 13.3891C15.6447 13.5231 15.4629 13.5984 15.2734 13.5984C15.0838 13.5984 14.902 13.5231 14.7679 13.3891C14.6339 13.255 14.5586 13.0732 14.5586 12.8837L14.5564 8.05403H14.5571Z" fill="#1A2A4D"/>
</svg>
