<svg width="24" height="25" viewBox="0 0 24 25" fill="none" xmlns="http://www.w3.org/2000/svg">
<path d="M6 6.7C6 5.58 6 5.02 6.218 4.592C6.40974 4.21569 6.71569 3.90974 7.092 3.718C7.52 3.5 8.08 3.5 9.2 3.5H14.8C15.92 3.5 16.48 3.5 16.908 3.718C17.2843 3.90974 17.5903 4.21569 17.782 4.592C18 5.02 18 5.58 18 6.7V20.005C18 20.491 18 20.734 17.899 20.867C17.8554 20.9248 17.7997 20.9725 17.7358 21.0067C17.6719 21.0409 17.6013 21.0608 17.529 21.065C17.362 21.075 17.16 20.94 16.756 20.671L12 17.5L7.244 20.67C6.84 20.94 6.638 21.075 6.47 21.065C6.39784 21.0606 6.32748 21.0407 6.26377 21.0065C6.20007 20.9723 6.14453 20.9247 6.101 20.867C6 20.734 6 20.491 6 20.005V6.7Z" fill="#1A2A4D" stroke="#1A2A4D" stroke-width="1.5" stroke-linecap="round" stroke-linejoin="round"/>
</svg>
