<svg width="20" height="18" viewBox="0 0 20 18" fill="none" xmlns="http://www.w3.org/2000/svg">
<path d="M8.42827 0.917903C8.58567 0.639592 8.81414 0.408058 9.09033 0.24696C9.36652 0.0858625 9.68053 0.000976563 10.0003 0.000976562C10.32 0.000976563 10.634 0.0858625 10.9102 0.24696C11.1864 0.408058 11.4149 0.639592 11.5723 0.917903L19.7563 15.2559C20.4523 16.4759 19.5783 17.9999 18.1823 17.9999H1.82027C0.424269 17.9999 -0.449731 16.4759 0.246269 15.2559L8.42827 0.917903ZM9.00027 6.9999V8.9999C9.00027 9.26512 9.10563 9.51947 9.29316 9.70701C9.4807 9.89455 9.73505 9.9999 10.0003 9.9999C10.2655 9.9999 10.5198 9.89455 10.7074 9.70701C10.8949 9.51947 11.0003 9.26512 11.0003 8.9999V6.9999C11.0003 6.73469 10.8949 6.48033 10.7074 6.2928C10.5198 6.10526 10.2655 5.9999 10.0003 5.9999C9.73505 5.9999 9.4807 6.10526 9.29316 6.2928C9.10563 6.48033 9.00027 6.73469 9.00027 6.9999ZM10.0003 11.4999C9.60244 11.4999 9.22091 11.6579 8.93961 11.9392C8.6583 12.2205 8.50027 12.6021 8.50027 12.9999C8.50027 13.3977 8.6583 13.7793 8.93961 14.0606C9.22091 14.3419 9.60244 14.4999 10.0003 14.4999C10.3981 14.4999 10.7796 14.3419 11.0609 14.0606C11.3422 13.7793 11.5003 13.3977 11.5003 12.9999C11.5003 12.6021 11.3422 12.2205 11.0609 11.9392C10.7796 11.6579 10.3981 11.4999 10.0003 11.4999Z" fill="#1A2A4D"/>
</svg>
