<svg width="20" height="21" viewBox="0 0 20 21" fill="none" xmlns="http://www.w3.org/2000/svg">
<path d="M19 4.521C19.003 4.375 18.993 3.056 17.7 1.786C16.427 0.536 15.143 0.5 15 0.5H4.996C4.757 0.5 3.503 0.563 2.288 1.802C1.036 3.078 1 4.359 1 4.5V7.5H0V10.5H1V16.5C1 17.234 1.406 17.873 2 18.221V19.5C2 19.7652 2.10536 20.0196 2.29289 20.2071C2.48043 20.3946 2.73478 20.5 3 20.5H4C4.26522 20.5 4.51957 20.3946 4.70711 20.2071C4.89464 20.0196 5 19.7652 5 19.5V18.5H15V19.5C15 19.7652 15.1054 20.0196 15.2929 20.2071C15.4804 20.3946 15.7348 20.5 16 20.5H17C17.2652 20.5 17.5196 20.3946 17.7071 20.2071C17.8946 20.0196 18 19.7652 18 19.5V18.223C18.3034 18.049 18.5556 17.7981 18.7311 17.4956C18.9067 17.1932 18.9994 16.8497 19 16.5V10.5H20V7.5H19V4.521ZM7 2.5H13V4.5H7V2.5ZM4.5 16.5C4.10204 16.4999 3.72044 16.3417 3.43913 16.0602C3.15783 15.7787 2.99987 15.397 3 14.999C3.00013 14.601 3.15835 14.2194 3.43984 13.9381C3.72133 13.6568 4.10304 13.4989 4.501 13.499C4.89896 13.4991 5.28056 13.6573 5.56187 13.9388C5.84317 14.2203 6.00113 14.602 6.001 15C6.00087 15.398 5.84265 15.7796 5.56116 16.0609C5.27967 16.3422 4.89796 16.5001 4.5 16.5ZM9 11.5H3V6.5H9V11.5ZM15.5 16.5C15.102 16.4999 14.7204 16.3417 14.4391 16.0602C14.1578 15.7787 13.9999 15.397 14 14.999C14.0001 14.601 14.1583 14.2194 14.4398 13.9381C14.7213 13.6568 15.103 13.4989 15.501 13.499C15.899 13.4991 16.2806 13.6573 16.5619 13.9388C16.8432 14.2203 17.0011 14.602 17.001 15C17.0009 15.398 16.8427 15.7796 16.5612 16.0609C16.2797 16.3422 15.898 16.5001 15.5 16.5ZM17 11.5H11V6.5H17V11.5Z" fill="#60636C"/>
</svg>
