<svg width="19" height="19" viewBox="0 0 19 19" fill="none" xmlns="http://www.w3.org/2000/svg">
<path fill-rule="evenodd" clip-rule="evenodd" d="M8.79341 0.792786C8.98094 0.605315 9.23524 0.5 9.50041 0.5C9.76557 0.5 10.0199 0.605315 10.2074 0.792786L16.2074 6.79279L18.2074 8.79279C18.3896 8.98139 18.4904 9.23399 18.4881 9.49619C18.4858 9.75838 18.3806 10.0092 18.1952 10.1946C18.0098 10.38 17.759 10.4852 17.4968 10.4875C17.2346 10.4897 16.982 10.3889 16.7934 10.2068L16.5004 9.91379V16.4998C16.5004 17.0302 16.2897 17.5389 15.9146 17.914C15.5395 18.2891 15.0308 18.4998 14.5004 18.4998H11.5004C11.2352 18.4998 10.9808 18.3944 10.7933 18.2069C10.6058 18.0194 10.5004 17.765 10.5004 17.4998V14.4998H8.50041V17.4998C8.50041 17.765 8.39505 18.0194 8.20751 18.2069C8.01998 18.3944 7.76562 18.4998 7.50041 18.4998H4.50041C3.96997 18.4998 3.46127 18.2891 3.08619 17.914C2.71112 17.5389 2.50041 17.0302 2.50041 16.4998V9.91379L2.20741 10.2068C2.0188 10.3889 1.7662 10.4897 1.50401 10.4875C1.24181 10.4852 0.990997 10.38 0.805589 10.1946C0.62018 10.0092 0.515012 9.75838 0.512733 9.49619C0.510455 9.23399 0.611249 8.98139 0.793407 8.79279L2.79341 6.79279L8.79341 0.792786Z" fill="#1A2A4D"/>
</svg>
