<svg width="19" height="19" viewBox="0 0 19 19" fill="none" xmlns="http://www.w3.org/2000/svg">
<path d="M18.4553 1.50548C18.5037 1.37152 18.5128 1.22658 18.4818 1.0876C18.4508 0.948619 18.3809 0.82134 18.2802 0.720647C18.1795 0.619953 18.0522 0.550007 17.9132 0.518987C17.7742 0.487967 17.6293 0.497155 17.4953 0.545477L0.99533 6.54548C0.852544 6.59725 0.728842 6.69115 0.640588 6.81476C0.552334 6.93837 0.503688 7.08586 0.501087 7.23772C0.498485 7.38958 0.542051 7.53865 0.626019 7.6652C0.709987 7.79176 0.830401 7.88985 0.97133 7.94648L7.62083 10.606L11.9708 5.97098L13.0313 7.03148L8.56133 11.7955L11.0543 18.0295C11.1108 18.1705 11.2088 18.291 11.3352 18.3751C11.4617 18.4592 11.6107 18.5029 11.7626 18.5004C11.9144 18.498 12.062 18.4495 12.1857 18.3614C12.3094 18.2733 12.4034 18.1497 12.4553 18.007L18.4553 1.50548Z" fill="#F0F0F0"/>
</svg>
