<svg width="21" height="21" viewBox="0 0 21 21" fill="none" xmlns="http://www.w3.org/2000/svg">
<path d="M12.1415 12.2885L12.9 11.3448L15.1103 14.0947L15.5 14.5796L15.8897 14.0947L18.1 11.3448L18.8585 12.2885L16.5103 15.2101L16.2585 15.5233L16.5103 15.8366L18.8585 18.7582L18.1 19.7019L15.8897 16.9519L15.5 16.467L15.1103 16.9519L12.9 19.7019L12.1415 18.7582L14.4897 15.8366L14.7415 15.5233L14.4897 15.2101L12.1415 12.2885ZM11.9665 4.88569L12.725 3.94197L14.4603 6.10095L14.85 6.58583L15.2397 6.10095L19.0965 1.30242L19.8613 2.27088L14.8741 8.5033L11.9665 4.88569ZM1 16.2675V14.7792H9V16.2675H1ZM1 6.31415V4.82582H9V6.31415H1Z" fill="#60636C" stroke="#60636C"/>
</svg>
