<svg width="24" height="24" viewBox="0 0 24 24" fill="none" xmlns="http://www.w3.org/2000/svg">
<path fill-rule="evenodd" clip-rule="evenodd" d="M12.5942 23.2584L12.5822 23.2604L12.5112 23.2954L12.4912 23.2994L12.4772 23.2954L12.4062 23.2594C12.3955 23.2568 12.3875 23.2588 12.3822 23.2654L12.3782 23.2754L12.3612 23.7034L12.3662 23.7234L12.3762 23.7364L12.4802 23.8104L12.4952 23.8144L12.5072 23.8104L12.6112 23.7364L12.6232 23.7204L12.6272 23.7034L12.6102 23.2764C12.6075 23.2658 12.6022 23.2598 12.5942 23.2584ZM12.8582 23.1454L12.8442 23.1474L12.6602 23.2404L12.6502 23.2504L12.6472 23.2614L12.6652 23.6914L12.6702 23.7034L12.6782 23.7114L12.8792 23.8034C12.8918 23.8068 12.9015 23.8041 12.9082 23.7954L12.9122 23.7814L12.8782 23.1674C12.8748 23.1548 12.8682 23.1474 12.8582 23.1454ZM12.1432 23.1474C12.1388 23.1448 12.1335 23.1439 12.1285 23.145C12.1234 23.1461 12.119 23.1491 12.1162 23.1534L12.1102 23.1674L12.0762 23.7814C12.0768 23.7934 12.0825 23.8014 12.0932 23.8054L12.1082 23.8034L12.3092 23.7104L12.3192 23.7024L12.3222 23.6914L12.3402 23.2614L12.3372 23.2494L12.3272 23.2394L12.1432 23.1474Z" fill="#60636C"/>
<path fill-rule="evenodd" clip-rule="evenodd" d="M3 5C3.24493 5.00003 3.48134 5.08996 3.66437 5.25272C3.84741 5.41547 3.96434 5.63975 3.993 5.883L4 6V13H11V8C11 7.75507 11.09 7.51866 11.2527 7.33563C11.4155 7.15259 11.6397 7.03566 11.883 7.007L12 7H19C19.7652 6.99996 20.5015 7.29233 21.0583 7.81728C21.615 8.34224 21.9501 9.06011 21.995 9.824L22 10V18C21.9997 18.2549 21.9021 18.5 21.7272 18.6854C21.5522 18.8707 21.313 18.9822 21.0586 18.9972C20.8042 19.0121 20.5536 18.9293 20.3582 18.7657C20.1627 18.6021 20.0371 18.3701 20.007 18.117L20 18V15H4V18C3.99972 18.2549 3.90212 18.5 3.72715 18.6854C3.55218 18.8707 3.31305 18.9822 3.05861 18.9972C2.80416 19.0121 2.55362 18.9293 2.35817 18.7657C2.16271 18.6021 2.0371 18.3701 2.007 18.117L2 18V6C2 5.73478 2.10536 5.48043 2.29289 5.29289C2.48043 5.10536 2.73478 5 3 5ZM7.5 7C8.16304 7 8.79893 7.26339 9.26777 7.73223C9.73661 8.20107 10 8.83696 10 9.5C10 10.163 9.73661 10.7989 9.26777 11.2678C8.79893 11.7366 8.16304 12 7.5 12C6.83696 12 6.20107 11.7366 5.73223 11.2678C5.26339 10.7989 5 10.163 5 9.5C5 8.83696 5.26339 8.20107 5.73223 7.73223C6.20107 7.26339 6.83696 7 7.5 7Z" fill="#60636C"/>
</svg>
