<svg width="24" height="24" viewBox="0 0 24 24" fill="none" xmlns="http://www.w3.org/2000/svg">
<path d="M12.5932 23.2584L12.5822 23.2604L12.5112 23.2954L12.4912 23.2994L12.4772 23.2954L12.4062 23.2604C12.3955 23.2571 12.3875 23.2588 12.3822 23.2654L12.3782 23.2754L12.3612 23.7034L12.3662 23.7234L12.3762 23.7364L12.4802 23.8104L12.4952 23.8144L12.5072 23.8104L12.6112 23.7364L12.6232 23.7204L12.6272 23.7034L12.6102 23.2764C12.6075 23.2658 12.6018 23.2598 12.5932 23.2584ZM12.8582 23.1454L12.8452 23.1474L12.6602 23.2404L12.6502 23.2504L12.6472 23.2614L12.6652 23.6914L12.6702 23.7034L12.6782 23.7104L12.8792 23.8034C12.8918 23.8068 12.9015 23.8041 12.9082 23.7954L12.9122 23.7814L12.8782 23.1674C12.8748 23.1554 12.8682 23.1481 12.8582 23.1454ZM12.1432 23.1474C12.1388 23.1448 12.1335 23.1439 12.1285 23.145C12.1234 23.1461 12.119 23.1491 12.1162 23.1534L12.1102 23.1674L12.0762 23.7814C12.0768 23.7934 12.0825 23.8014 12.0932 23.8054L12.1082 23.8034L12.3092 23.7104L12.3192 23.7024L12.3232 23.6914L12.3402 23.2614L12.3372 23.2494L12.3272 23.2394L12.1432 23.1474Z" fill="#60636C"/>
<path d="M12 2C17.523 2 22 6.477 22 12C22 17.523 17.523 22 12 22C10.1782 22.0028 8.39054 21.5054 6.83201 20.562L3.80001 21.454C3.62593 21.5052 3.44126 21.5086 3.26542 21.4638C3.08959 21.4189 2.92908 21.3276 2.80077 21.1992C2.67246 21.0709 2.58108 20.9104 2.53625 20.7346C2.49142 20.5587 2.49479 20.3741 2.54601 20.2L3.43801 17.168C2.49506 15.6093 1.99769 13.8218 2.00001 12C2.00001 6.477 6.47701 2 12 2ZM8.50001 10.5C8.10218 10.5 7.72065 10.658 7.43935 10.9393C7.15804 11.2206 7.00001 11.6022 7.00001 12C7.00001 12.3978 7.15804 12.7794 7.43935 13.0607C7.72065 13.342 8.10218 13.5 8.50001 13.5C8.89783 13.5 9.27936 13.342 9.56067 13.0607C9.84197 12.7794 10 12.3978 10 12C10 11.6022 9.84197 11.2206 9.56067 10.9393C9.27936 10.658 8.89783 10.5 8.50001 10.5ZM15.5 10.5C15.1022 10.5 14.7207 10.658 14.4393 10.9393C14.158 11.2206 14 11.6022 14 12C14 12.3978 14.158 12.7794 14.4393 13.0607C14.7207 13.342 15.1022 13.5 15.5 13.5C15.8978 13.5 16.2794 13.342 16.5607 13.0607C16.842 12.7794 17 12.3978 17 12C17 11.6022 16.842 11.2206 16.5607 10.9393C16.2794 10.658 15.8978 10.5 15.5 10.5Z" fill="#60636C"/>
</svg>
