<svg width="20" height="14" viewBox="0 0 20 14" fill="none" xmlns="http://www.w3.org/2000/svg">
<path fill-rule="evenodd" clip-rule="evenodd" d="M1 0C1.24493 3.23106e-05 1.48134 0.089956 1.66437 0.252715C1.84741 0.415474 1.96434 0.639749 1.993 0.883L2 1V8H9V3C9.00003 2.75507 9.08996 2.51866 9.25272 2.33563C9.41547 2.15259 9.63975 2.03566 9.883 2.007L10 2H17C17.7652 1.99996 18.5015 2.29233 19.0583 2.81728C19.615 3.34224 19.9501 4.06011 19.995 4.824L20 5V13C19.9997 13.2549 19.9021 13.5 19.7272 13.6854C19.5522 13.8707 19.313 13.9822 19.0586 13.9972C18.8042 14.0121 18.5536 13.9293 18.3582 13.7657C18.1627 13.6021 18.0371 13.3701 18.007 13.117L18 13V10H2V13C1.99972 13.2549 1.90212 13.5 1.72715 13.6854C1.55218 13.8707 1.31305 13.9822 1.05861 13.9972C0.804163 14.0121 0.553621 13.9293 0.358167 13.7657C0.162714 13.6021 0.0371036 13.3701 0.00699997 13.117L0 13V1C0 0.734784 0.105357 0.48043 0.292893 0.292893C0.48043 0.105357 0.734784 0 1 0ZM5.5 2C6.16304 2 6.79893 2.26339 7.26777 2.73223C7.73661 3.20107 8 3.83696 8 4.5C8 5.16304 7.73661 5.79893 7.26777 6.26777C6.79893 6.73661 6.16304 7 5.5 7C4.83696 7 4.20107 6.73661 3.73223 6.26777C3.26339 5.79893 3 5.16304 3 4.5C3 3.83696 3.26339 3.20107 3.73223 2.73223C4.20107 2.26339 4.83696 2 5.5 2Z" fill="#60636C"/>
</svg>
