<svg width="100" height="100" viewBox="0 0 100 100" fill="none" xmlns="http://www.w3.org/2000/svg">
<path fill-rule="evenodd" clip-rule="evenodd" d="M75.1349 36.1599C76.1535 35.3116 77.4673 34.9025 78.7874 35.0225C80.1075 35.1425 81.326 35.7818 82.1749 36.7999L92.5899 49.2999C93.4012 50.3225 93.7805 51.6217 93.6467 52.9202C93.513 54.2186 92.8768 55.4132 91.874 56.2489C90.8712 57.0845 89.5815 57.4949 88.2802 57.3923C86.9789 57.2897 85.7694 56.6824 84.9099 55.6999L74.4949 43.1999C73.6466 42.1814 73.2374 40.8676 73.3575 39.5474C73.4775 38.2273 74.1168 37.0089 75.1349 36.1599Z" fill="#60636C"/>
<path fill-rule="evenodd" clip-rule="evenodd" d="M75.1349 68.8399C74.1161 67.9917 73.4758 66.7736 73.3549 65.4534C73.2339 64.1333 73.6422 62.8191 74.4899 61.7999L84.9099 49.2999C85.3243 48.7776 85.839 48.3435 86.4236 48.0231C87.0083 47.7026 87.6511 47.5024 88.3143 47.434C88.9775 47.3657 89.6477 47.4307 90.2854 47.6252C90.9231 47.8197 91.5155 48.1398 92.0277 48.5666C92.5398 48.9934 92.9615 49.5184 93.2678 50.1105C93.5741 50.7027 93.7589 51.3502 93.8113 52.0148C93.8637 52.6795 93.7826 53.3479 93.5729 53.9807C93.3631 54.6136 93.0289 55.1981 92.5899 55.6999L82.1749 68.1999C81.326 69.218 80.1076 69.8573 78.7874 69.9773C77.4673 70.0974 76.1535 69.6882 75.1349 68.8399Z" fill="#60636C"/>
<path fill-rule="evenodd" clip-rule="evenodd" d="M87.5 52.5C87.5 53.8261 86.9732 55.0979 86.0355 56.0355C85.0979 56.9732 83.8261 57.5 82.5 57.5H50C48.6739 57.5 47.4021 56.9732 46.4645 56.0355C45.5268 55.0979 45 53.8261 45 52.5C45 51.1739 45.5268 49.9021 46.4645 48.9645C47.4021 48.0268 48.6739 47.5 50 47.5H82.5C83.8261 47.5 85.0979 48.0268 86.0355 48.9645C86.9732 49.9021 87.5 51.1739 87.5 52.5ZM15 17.5C15 16.1739 15.5268 14.9021 16.4645 13.9645C17.4021 13.0268 18.6739 12.5 20 12.5H65C66.3261 12.5 67.5979 13.0268 68.5355 13.9645C69.4732 14.9021 70 16.1739 70 17.5C70 18.8261 69.4732 20.0979 68.5355 21.0355C67.5979 21.9732 66.3261 22.5 65 22.5H20C18.6739 22.5 17.4021 21.9732 16.4645 21.0355C15.5268 20.0979 15 18.8261 15 17.5ZM15 87.5C15 86.1739 15.5268 84.9021 16.4645 83.9645C17.4021 83.0268 18.6739 82.5 20 82.5H65C66.3261 82.5 67.5979 83.0268 68.5355 83.9645C69.4732 84.9021 70 86.1739 70 87.5C70 88.8261 69.4732 90.0979 68.5355 91.0355C67.5979 91.9732 66.3261 92.5 65 92.5H20C18.6739 92.5 17.4021 91.9732 16.4645 91.0355C15.5268 90.0979 15 88.8261 15 87.5Z" fill="#60636C"/>
<path fill-rule="evenodd" clip-rule="evenodd" d="M65 12.5C66.3261 12.5 67.5979 13.0268 68.5355 13.9645C69.4732 14.9021 70 16.1739 70 17.5V37.5C70 38.8261 69.4732 40.0979 68.5355 41.0355C67.5979 41.9732 66.3261 42.5 65 42.5C63.6739 42.5 62.4021 41.9732 61.4645 41.0355C60.5268 40.0979 60 38.8261 60 37.5V17.5C60 16.1739 60.5268 14.9021 61.4645 13.9645C62.4021 13.0268 63.6739 12.5 65 12.5ZM65 62.5C66.3261 62.5 67.5979 63.0268 68.5355 63.9645C69.4732 64.9021 70 66.1739 70 67.5V87.5C70 88.8261 69.4732 90.0979 68.5355 91.0355C67.5979 91.9732 66.3261 92.5 65 92.5C63.6739 92.5 62.4021 91.9732 61.4645 91.0355C60.5268 90.0979 60 88.8261 60 87.5V67.5C60 66.1739 60.5268 64.9021 61.4645 63.9645C62.4021 63.0268 63.6739 62.5 65 62.5ZM20 12.5C21.3261 12.5 22.5979 13.0268 23.5355 13.9645C24.4732 14.9021 25 16.1739 25 17.5V87.5C25 88.8261 24.4732 90.0979 23.5355 91.0355C22.5979 91.9732 21.3261 92.5 20 92.5C18.6739 92.5 17.4021 91.9732 16.4645 91.0355C15.5268 90.0979 15 88.8261 15 87.5V17.5C15 16.1739 15.5268 14.9021 16.4645 13.9645C17.4021 13.0268 18.6739 12.5 20 12.5Z" fill="#60636C"/>
</svg>
