<svg width="24" height="24" viewBox="0 0 24 24" fill="none" xmlns="http://www.w3.org/2000/svg">
<g clip-path="url(#clip0_142_2786)">
<path d="M2.96875 11.5823H4.2415V7.7625C4.2412 6.7431 4.44176 5.73362 4.83171 4.79175C5.22166 3.84987 5.79337 2.99405 6.51416 2.27319C7.23495 1.55233 8.09071 0.980541 9.03255 0.5905C9.97439 0.200458 10.9838 -0.000195781 12.0033 1.30598e-06C13.0228 -0.000590253 14.0325 0.199789 14.9745 0.589682C15.9166 0.979574 16.7726 1.55133 17.4935 2.27227C18.2144 2.9932 18.7862 3.84916 19.1761 4.79122C19.566 5.73328 19.7663 6.74295 19.7658 7.7625V11.5478C19.75 11.556 19.7297 11.5748 19.711 11.583L19.6908 11.6033H19.684L19.6637 11.622H19.6368L19.6165 11.6423H19.5978L19.5775 11.649H19.5693L19.561 11.661L19.5497 11.6693H19.5415L19.5295 11.6775L19.5212 11.6895L19.5145 11.6963L19.5025 11.7045L19.4755 11.7248L19.4552 11.736L19.4283 11.7563L19.3893 11.772L19.3615 11.7908L19.3465 11.8028L19.3345 11.811L19.3075 11.8298L19.2873 11.838L19.24 11.865L19.2213 11.877L19.2055 11.8853L19.1868 11.8973H19.1785L19.1193 11.9243H19.1005L19.0338 11.9595H19.0255L19.0187 11.9715L18.9865 11.9865L18.9715 11.9985L18.9393 12.0188L18.9242 12.0255H18.9122L18.8853 12.0458L18.865 12.054L18.8463 12.0653C18.8305 12.0735 18.8035 12.081 18.7833 12.093L18.7645 12.1013L18.7443 12.1125L18.709 12.1283L18.67 12.1485L18.5763 12.1875L18.5575 12.1943L18.5215 12.2145L18.5028 12.2265C16.9555 12.9645 14.4828 13.7415 9.796 14.0775C6.433 14.3198 4.39 15.8003 3.06925 17.5778L2.96875 11.5823ZM7.8085 11.5823H16.1793V7.7625C16.1801 7.21277 16.0725 6.66827 15.8626 6.16021C15.6526 5.65215 15.3444 5.19053 14.9557 4.80181C14.567 4.41309 14.1054 4.10491 13.5973 3.89495C13.0892 3.68498 12.5447 3.57736 11.995 3.57825C11.4453 3.57796 10.9009 3.68596 10.393 3.8961C9.88499 4.10623 9.42341 4.41439 9.03457 4.80295C8.64573 5.19151 8.33724 5.65287 8.12674 6.16068C7.91624 6.66849 7.80785 7.21279 7.80775 7.7625L7.8085 11.5823ZM21.0303 13.0433V24H5.569C7.276 23.055 8.53825 23.148 10.6472 23.2148C13.5115 23.3085 16.675 22.1085 18.229 20.5155C19.7838 18.9255 18.0933 20.1405 16.3307 20.5898C14.5682 21.039 11.1588 21.09 8.878 20.4878C16.0503 20.5815 18.8508 18.27 20.4333 16.1798C22.015 14.1015 19.7493 15.816 18.2762 16.5345C16.8085 17.2575 14.2413 17.7653 11.413 17.3903C15.6828 17.3783 18.9333 15.2453 21.022 13.0425L21.0303 13.0433Z" fill="#60636C"/>
</g>
<defs>
<clipPath id="clip0_142_2786">
<rect width="24" height="24" fill="white"/>
</clipPath>
</defs>
</svg>
