<svg width="34" height="27" viewBox="0 0 34 27" fill="none" xmlns="http://www.w3.org/2000/svg">
<path d="M3.66634 0.166504C1.81634 0.166504 0.333008 1.64984 0.333008 3.49984V23.4998C0.333008 24.3839 0.684197 25.2317 1.30932 25.8569C1.93444 26.482 2.78229 26.8332 3.66634 26.8332H30.333C31.2171 26.8332 32.0649 26.482 32.69 25.8569C33.3152 25.2317 33.6663 24.3839 33.6663 23.4998V3.49984C33.6663 2.61578 33.3152 1.76794 32.69 1.14281C32.0649 0.517693 31.2171 0.166504 30.333 0.166504H3.66634ZM3.66634 3.49984H15.333V7.04984C12.3997 7.8165 10.333 10.4665 10.333 13.4998C10.337 14.9762 10.8297 16.4098 11.7342 17.5766C12.6387 18.7435 13.9042 19.578 15.333 19.9498V23.4998H3.66634V20.1665H8.66634V6.83317H3.66634V3.49984ZM18.6663 3.49984H30.333V6.83317H25.333V20.1665H30.333V23.4998H18.6663V19.9498C21.5997 19.1832 23.6663 16.5332 23.6663 13.4998C23.6624 12.0234 23.1697 10.5899 22.2651 9.42305C21.3606 8.2562 20.0951 7.42169 18.6663 7.04984V3.49984ZM3.66634 10.1665H5.33301V16.8332H3.66634V10.1665ZM28.6663 10.1665H30.333V16.8332H28.6663V10.1665ZM18.6663 10.6165C19.6997 11.2165 20.333 12.3165 20.333 13.4998C20.333 14.6832 19.6997 15.7832 18.6663 16.3832V10.6165ZM15.333 10.6165V16.3832C14.2997 15.7832 13.6663 14.6832 13.6663 13.4998C13.6663 12.3165 14.2997 11.2165 15.333 10.6165Z" fill="#FAFAFA"/>
</svg>
