<svg width="26" height="30" viewBox="0 0 26 30" fill="none" xmlns="http://www.w3.org/2000/svg">
<path d="M13.1663 21.3167V29.5H10.833V22.9V22.1874L10.1629 22.4298C9.43432 22.6934 8.65855 22.8333 7.83301 22.8333C3.94248 22.8333 0.833008 19.7239 0.833008 15.8333C0.833008 13.8518 1.61149 12.0831 2.94471 10.8119L3.19544 10.5728L3.05969 10.2541C2.70206 9.41441 2.49967 8.48094 2.49967 7.5C2.49967 3.60948 5.60915 0.5 9.49967 0.5C11.9252 0.5 14.0735 1.74377 15.3352 3.61307L15.4839 3.83333H15.7497H16.1663C17.3045 3.83333 18.4314 4.0575 19.4829 4.49304C20.5344 4.92858 21.4898 5.56697 22.2946 6.37174C23.0994 7.17652 23.7378 8.13192 24.1733 9.18341C24.6088 10.2349 24.833 11.3619 24.833 12.5C24.833 13.6381 24.6088 14.7651 24.1733 15.8166C23.7378 16.8681 23.0994 17.8235 22.2946 18.6283C21.4898 19.433 20.5344 20.0714 19.4829 20.507C18.4314 20.9425 17.3045 21.1667 16.1663 21.1667C15.3803 21.1667 14.5923 21.0567 13.8012 20.8352L13.1663 20.6574V21.3167Z" fill="#FAFAFA" stroke="#FAFAFA"/>
</svg>
