<svg width="100" height="100" viewBox="0 0 100 100" fill="none" xmlns="http://www.w3.org/2000/svg">
<path d="M53.125 84.375V65.625H65.625L50 46.875L34.375 65.625H46.875V84.375H31.25V84.2188C30.725 84.25 30.225 84.375 29.6875 84.375C23.4715 84.375 17.5101 81.9057 13.1147 77.5103C8.7193 73.1149 6.25 67.1535 6.25 60.9375C6.25 48.9125 15.3438 39.1125 27.0125 37.7688C28.0356 32.4206 30.8903 27.5961 35.0857 24.125C39.2811 20.654 44.5549 18.7533 50 18.75C55.4459 18.753 60.7206 20.6534 64.917 24.1244C69.1135 27.5954 71.9694 32.4201 72.9937 37.7688C84.6625 39.1125 93.7437 48.9125 93.7437 60.9375C93.7437 67.1535 91.2744 73.1149 86.8791 77.5103C82.4837 81.9057 76.5223 84.375 70.3062 84.375C69.7812 84.375 69.275 84.25 68.7437 84.2188V84.375H53.125Z" fill="#60636C"/>
</svg>
